%TF.GenerationSoftware,KiCad,Pcbnew,9.0.2*%
%TF.CreationDate,2025-09-12T12:40:56+09:00*%
%TF.ProjectId,CL70_Plate_6u,434c3730-5f50-46c6-9174-655f36752e6b,rev?*%
%TF.SameCoordinates,Original*%
%TF.FileFunction,Copper,L2,Bot*%
%TF.FilePolarity,Positive*%
%FSLAX46Y46*%
G04 Gerber Fmt 4.6, Leading zero omitted, Abs format (unit mm)*
G04 Created by KiCad (PCBNEW 9.0.2) date 2025-09-12 12:40:56*
%MOMM*%
%LPD*%
G01*
G04 APERTURE LIST*
%TA.AperFunction,NonConductor*%
%ADD10C,1.800000*%
%TD*%
%TA.AperFunction,NonConductor*%
%ADD11C,2.500000*%
%TD*%
%TA.AperFunction,NonConductor*%
%ADD12C,2.000000*%
%TD*%
G04 APERTURE END LIST*
D10*
X315881401Y-150119500D02*
X315881401Y-144244987D01*
X305700441Y-170369792D02*
X305700441Y-169567212D01*
X79543363Y-157070500D02*
G75*
G02*
X79743501Y-157275197I2J-200187D01*
G01*
X46249963Y-136362500D02*
G75*
G02*
X45450001Y-135562500I38J800000D01*
G01*
X322485646Y-174550000D02*
X335074963Y-174550000D01*
X212137501Y-130800000D02*
X212137501Y-118199992D01*
X244438425Y-184149292D02*
X244438501Y-184149292D01*
X196962501Y-112550000D02*
X184362463Y-112550000D01*
X277924963Y-174550000D02*
G75*
G02*
X278725049Y-175359302I-62J-800200D01*
G01*
X264525001Y-187950000D02*
X264525001Y-175349992D01*
X130287463Y-117400000D02*
G75*
G02*
X131087501Y-118209301I-98J-800188D01*
G01*
X122449963Y-150650000D02*
G75*
G02*
X121650001Y-149850000I38J800000D01*
G01*
X197762501Y-111749992D02*
G75*
G02*
X196962501Y-112550000I-800056J48D01*
G01*
X278725001Y-187949992D02*
G75*
G02*
X277925001Y-188750000I-800060J52D01*
G01*
X335350251Y-162899492D02*
G75*
G02*
X335150251Y-163099550I-200050J-8D01*
G01*
X159750001Y-149850000D02*
X159750001Y-137249992D01*
X89123146Y-98350000D02*
X101712463Y-98350000D01*
X95368751Y-165100592D02*
X95368751Y-168899992D01*
D11*
X258837501Y-92450000D02*
G75*
G02*
X255837501Y-92450000I-1500000J0D01*
G01*
X255837501Y-92450000D02*
G75*
G02*
X258837501Y-92450000I1500000J0D01*
G01*
D10*
X334724763Y-160300700D02*
X335150263Y-160300700D01*
X46260646Y-141212500D02*
X58849963Y-141212500D01*
X335075001Y-188750000D02*
X322474963Y-188750000D01*
D11*
X262409376Y-194650000D02*
G75*
G02*
X259409376Y-194650000I-1500000J0D01*
G01*
X259409376Y-194650000D02*
G75*
G02*
X262409376Y-194650000I1500000J0D01*
G01*
D10*
X207287501Y-175359301D02*
X207287501Y-179150941D01*
X265324963Y-188750000D02*
G75*
G02*
X264525001Y-187950000I38J800000D01*
G01*
D11*
X163587501Y-92450000D02*
G75*
G02*
X160587501Y-92450000I-1500000J0D01*
G01*
X160587501Y-92450000D02*
G75*
G02*
X163587501Y-92450000I1500000J0D01*
G01*
D10*
X135049963Y-136450000D02*
G75*
G02*
X135850001Y-137259301I-98J-800188D01*
G01*
D12*
X365082185Y-193042815D02*
X363767886Y-194357115D01*
D10*
X79943463Y-160300700D02*
G75*
G02*
X79743501Y-160100700I38J200000D01*
G01*
X245475001Y-156299992D02*
G75*
G02*
X246285646Y-155500000I800160J-99D01*
G01*
X230299863Y-136450000D02*
G75*
G02*
X231100000Y-137259301I1J-800188D01*
G01*
X255799963Y-150650000D02*
G75*
G02*
X255000001Y-149850000I38J800000D01*
G01*
X136748146Y-117400000D02*
X149337463Y-117400000D01*
X250988463Y-174880400D02*
G75*
G02*
X251188501Y-175085097I-97J-200186D01*
G01*
X82662501Y-112550000D02*
X70062463Y-112550000D01*
X49850063Y-172806330D02*
X49850063Y-172806250D01*
X139812463Y-98350000D02*
G75*
G02*
X140612501Y-99159301I-98J-800188D01*
G01*
X274860646Y-136450000D02*
X287449963Y-136450000D01*
X339681501Y-141050692D02*
G75*
G02*
X339481501Y-141250700I-200100J92D01*
G01*
X346431001Y-138225197D02*
X346431001Y-141050700D01*
D12*
X229848263Y-192750000D02*
G75*
G02*
X230552266Y-193039765I40J-999996D01*
G01*
D10*
X97837501Y-130800000D02*
X97837501Y-118199992D01*
X85843751Y-187949992D02*
G75*
G02*
X85043751Y-188750000I-800022J14D01*
G01*
X49050001Y-170662500D02*
X49050001Y-167262492D01*
D12*
X116738763Y-192750000D02*
X89557093Y-192750000D01*
D10*
X347256501Y-143849492D02*
G75*
G02*
X347056501Y-144049500I-200100J92D01*
G01*
X330312501Y-112550000D02*
X317712463Y-112550000D01*
X95456251Y-175349992D02*
G75*
G02*
X96261919Y-174550000I800012J0D01*
G01*
X112037501Y-130799992D02*
G75*
G02*
X111237501Y-131600000I-800056J48D01*
G01*
X72993901Y-160100692D02*
X72993901Y-157270592D01*
X73199254Y-157070500D02*
X79543363Y-157070500D01*
X222462463Y-112550000D02*
G75*
G02*
X221662501Y-111750000I38J800000D01*
G01*
D12*
X306755386Y-94057115D02*
G75*
G02*
X306048287Y-94349961I-707085J707215D01*
G01*
X342628863Y-194650000D02*
X332589263Y-194650000D01*
D10*
X59650001Y-142021801D02*
X59650001Y-154612492D01*
X312150001Y-160100692D02*
X312150001Y-156300092D01*
X346431001Y-150119492D02*
G75*
G02*
X346231001Y-150319500I-200100J92D01*
G01*
X249462415Y-174099292D02*
X249462501Y-174099292D01*
D12*
X331876928Y-194351928D02*
X330564766Y-193039765D01*
D10*
X278812501Y-111750000D02*
X278812501Y-99150092D01*
X127223146Y-98350000D02*
X139812463Y-98350000D01*
X255000001Y-149850000D02*
X255000001Y-137249992D01*
X264437501Y-118209301D02*
X264437501Y-130799992D01*
X108856251Y-188750000D02*
X96256263Y-188750000D01*
X251188501Y-184149192D02*
X251188501Y-186979392D01*
X346630963Y-141250700D02*
G75*
G02*
X346431001Y-141050700I38J200000D01*
G01*
X155787463Y-131600000D02*
G75*
G02*
X154987501Y-130800000I38J800000D01*
G01*
X49050001Y-167262492D02*
G75*
G02*
X49860646Y-166462500I800160J-99D01*
G01*
X346431001Y-144249592D02*
X346431001Y-150119492D01*
X135850001Y-175359301D02*
X135850001Y-187949992D01*
X277925001Y-169700000D02*
X265324963Y-169700000D01*
X354125001Y-169700000D02*
X341524963Y-169700000D01*
D12*
X342628863Y-194650000D02*
G75*
G02*
X345226964Y-196149977I38J-3000000D01*
G01*
D10*
X241523146Y-98350000D02*
X254112463Y-98350000D01*
X249349963Y-136450000D02*
G75*
G02*
X250150001Y-137259301I-98J-800188D01*
G01*
X188325001Y-156299992D02*
G75*
G02*
X189135646Y-155500000I800160J-99D01*
G01*
X235950001Y-137249992D02*
G75*
G02*
X236760646Y-136450000I800160J-99D01*
G01*
X131087501Y-118209301D02*
X131087501Y-130799992D01*
D12*
X84495063Y-92450000D02*
G75*
G02*
X82662046Y-91250000I40J2000041D01*
G01*
D10*
X81168751Y-168899992D02*
X81168751Y-165100592D01*
X107362501Y-99149992D02*
G75*
G02*
X108173146Y-98350000I800160J-99D01*
G01*
X74025001Y-130800000D02*
X74025001Y-118200092D01*
X327975263Y-169369500D02*
G75*
G02*
X327775301Y-169169492I38J200000D01*
G01*
X339481363Y-145850600D02*
G75*
G02*
X339681545Y-146046086I38J-200200D01*
G01*
X354925001Y-175359301D02*
X354925001Y-187949992D01*
X339881463Y-150319500D02*
G75*
G02*
X339681501Y-150119500I38J200000D01*
G01*
X188325001Y-168900000D02*
X188325001Y-156299992D01*
X254112463Y-98350000D02*
G75*
G02*
X254912501Y-99159301I-98J-800188D01*
G01*
X244438501Y-179149392D02*
G75*
G02*
X244238501Y-179349360I-199989J21D01*
G01*
X130287501Y-131600000D02*
X117687463Y-131600000D01*
X179610646Y-136450000D02*
X192199963Y-136450000D01*
X304118763Y-174550000D02*
G75*
G02*
X304918801Y-175349992I38J-800000D01*
G01*
X207375001Y-168900000D02*
X207375001Y-156299992D01*
X193087501Y-130800000D02*
X193087501Y-118199992D01*
X103743463Y-160300700D02*
X104168863Y-160300700D01*
X341405401Y-151319800D02*
X341405401Y-150514987D01*
D12*
X134269463Y-194650000D02*
X119467363Y-194650000D01*
X76989424Y-93125000D02*
G75*
G02*
X76015063Y-94349991I-974360J-224992D01*
G01*
D10*
X78018201Y-169569492D02*
G75*
G02*
X78212972Y-169369500I200167J-102D01*
G01*
D12*
X343409963Y-94350000D02*
X375974963Y-94350000D01*
D10*
X320705701Y-151519800D02*
X317806663Y-151519800D01*
X335150263Y-160300700D02*
G75*
G02*
X335350301Y-160500692I38J-200000D01*
G01*
X221662501Y-111750000D02*
X221662501Y-99149992D01*
X46249963Y-155412500D02*
G75*
G02*
X45450001Y-154612500I38J800000D01*
G01*
X255810646Y-136450000D02*
X268399963Y-136450000D01*
X338256251Y-146050592D02*
G75*
G02*
X338453435Y-145850571I200050J-8D01*
G01*
X317806663Y-151519800D02*
G75*
G02*
X317606701Y-151319800I38J200000D01*
G01*
D12*
X66403863Y-194650000D02*
X56364263Y-194650000D01*
D10*
X293012501Y-111749992D02*
G75*
G02*
X292212501Y-112550000I-800100J92D01*
G01*
X360574963Y-188750000D02*
G75*
G02*
X359775001Y-187950000I38J800000D01*
G01*
D12*
X377974980Y-170065292D02*
X377975001Y-170065292D01*
D10*
X59650001Y-154612492D02*
G75*
G02*
X58850001Y-155412500I-800056J48D01*
G01*
X259762501Y-99149992D02*
G75*
G02*
X260573146Y-98349999I800160J-98D01*
G01*
X211250001Y-150650000D02*
X198649963Y-150650000D01*
X338256251Y-149849992D02*
G75*
G02*
X337456251Y-150650050I-800050J-8D01*
G01*
X83462501Y-111749992D02*
G75*
G02*
X82662501Y-112550000I-800056J48D01*
G01*
X193887463Y-188750000D02*
G75*
G02*
X193087501Y-187950000I38J800000D01*
G01*
X74824963Y-131600000D02*
G75*
G02*
X74025001Y-130800000I38J800000D01*
G01*
X49850063Y-172806250D02*
X55249963Y-172806250D01*
X96794001Y-160100692D02*
G75*
G02*
X96594001Y-160300700I-200058J50D01*
G01*
X101818301Y-169569492D02*
X101818301Y-170369792D01*
X327775251Y-160100692D02*
X327775251Y-157270492D01*
D12*
X168505386Y-194357115D02*
G75*
G02*
X167798287Y-194650000I-707120J707166D01*
G01*
D10*
X101818301Y-169569492D02*
G75*
G02*
X102013072Y-169369500I200167J-102D01*
G01*
X341535646Y-155500000D02*
X354124963Y-155500000D01*
X321587501Y-118209301D02*
X321587501Y-130799992D01*
X334524751Y-169169492D02*
G75*
G02*
X334324751Y-169369550I-200050J-8D01*
G01*
X231987463Y-131600000D02*
G75*
G02*
X231187501Y-130800000I38J800000D01*
G01*
D12*
X41450001Y-190750000D02*
X41450001Y-96350012D01*
D10*
X251188501Y-184149192D02*
G75*
G02*
X251388463Y-183949230I199964J-2D01*
G01*
X346431001Y-144249592D02*
G75*
G02*
X346625771Y-144049474I200200J-8D01*
G01*
X116000001Y-150650000D02*
X103399963Y-150650000D01*
X79743501Y-165100592D02*
X79743501Y-169169492D01*
X322430963Y-138020500D02*
G75*
G02*
X322631050Y-138225198I-62J-200200D01*
G01*
X169275001Y-156299992D02*
G75*
G02*
X170085646Y-155500000I800160J-99D01*
G01*
D11*
X81412501Y-92450000D02*
G75*
G02*
X78412501Y-92450000I-1500000J0D01*
G01*
X78412501Y-92450000D02*
G75*
G02*
X81412501Y-92450000I1500000J0D01*
G01*
D10*
X324056251Y-149849992D02*
X324056251Y-146050592D01*
X202612501Y-99149992D02*
G75*
G02*
X203423146Y-98350000I800160J-99D01*
G01*
X334324751Y-169369500D02*
X332996735Y-169369500D01*
X45450001Y-122962492D02*
G75*
G02*
X46260646Y-122162500I800160J-99D01*
G01*
D11*
X73100001Y-194650000D02*
G75*
G02*
X70100001Y-194650000I-1500000J0D01*
G01*
X70100001Y-194650000D02*
G75*
G02*
X73100001Y-194650000I1500000J0D01*
G01*
D12*
X230555386Y-94057115D02*
G75*
G02*
X229848287Y-94350000I-707120J707166D01*
G01*
D10*
X112037501Y-118209301D02*
X112037501Y-130799992D01*
X108162463Y-112550000D02*
G75*
G02*
X107362501Y-111750000I38J800000D01*
G01*
X315055931Y-141450692D02*
G75*
G02*
X315255931Y-141250630I200070J-8D01*
G01*
X212050001Y-149849992D02*
G75*
G02*
X211250001Y-150650000I-800056J48D01*
G01*
X78018201Y-169569492D02*
X78018201Y-170369792D01*
X251037463Y-131600000D02*
G75*
G02*
X250237501Y-130800000I38J800000D01*
G01*
D12*
X308069685Y-92742815D02*
G75*
G02*
X308783733Y-92450017I706916J-706885D01*
G01*
X56364263Y-194650000D02*
G75*
G02*
X55651928Y-194351928I115J1000482D01*
G01*
D10*
X305700455Y-170369792D02*
X305700441Y-170369792D01*
X89806251Y-150650000D02*
X77206263Y-150650000D01*
X324861919Y-136450000D02*
X337456263Y-136450000D01*
X288337501Y-130800000D02*
X288337501Y-118199992D01*
X269200001Y-137259301D02*
X269200001Y-149849992D01*
X89112463Y-112550000D02*
G75*
G02*
X88312501Y-111750000I38J800000D01*
G01*
X246274963Y-169700000D02*
G75*
G02*
X245475001Y-168900000I38J800000D01*
G01*
X94568763Y-155500000D02*
G75*
G02*
X95368751Y-156299992I4J-799984D01*
G01*
X102512501Y-99159301D02*
X102512501Y-111749992D01*
X278725001Y-156309301D02*
X278725001Y-168899992D01*
X76406251Y-137249992D02*
G75*
G02*
X77211919Y-136450000I800012J0D01*
G01*
X316912501Y-111750000D02*
X316912501Y-99149992D01*
X315055955Y-143849492D02*
X315055931Y-143849492D01*
X155938501Y-184149192D02*
X155938501Y-186979392D01*
X74835646Y-117400000D02*
X87424963Y-117400000D01*
X331200001Y-118199992D02*
G75*
G02*
X332010646Y-117399968I800200J-108D01*
G01*
X149337501Y-131600000D02*
X136737463Y-131600000D01*
X307387501Y-130800000D02*
X307387501Y-118199992D01*
X251188501Y-186979392D02*
G75*
G02*
X250988463Y-187179430I-200039J1D01*
G01*
X189124963Y-169700000D02*
G75*
G02*
X188325001Y-168900000I38J800000D01*
G01*
X216012463Y-98350000D02*
G75*
G02*
X216812501Y-99159301I-98J-800188D01*
G01*
X227235646Y-155500000D02*
X239824963Y-155500000D01*
X310924763Y-160300700D02*
X311950001Y-160300700D01*
X273962501Y-111749992D02*
G75*
G02*
X273162501Y-112550000I-800060J52D01*
G01*
X168387463Y-117400000D02*
G75*
G02*
X169187501Y-118209301I-98J-800188D01*
G01*
X216812501Y-111749992D02*
G75*
G02*
X216012501Y-112550000I-800056J48D01*
G01*
X159662501Y-111749992D02*
G75*
G02*
X158862501Y-112550000I-800056J48D01*
G01*
X173149963Y-136450000D02*
G75*
G02*
X173950001Y-137259301I-98J-800188D01*
G01*
X187437463Y-117400000D02*
G75*
G02*
X188237501Y-118209301I-98J-800188D01*
G01*
X341535646Y-174550000D02*
X354124963Y-174550000D01*
X177912463Y-98350000D02*
G75*
G02*
X178712501Y-99159301I-98J-800188D01*
G01*
X131974963Y-169700000D02*
G75*
G02*
X131175001Y-168900000I38J800000D01*
G01*
X148566563Y-181150470D02*
X148988501Y-181150470D01*
X283575001Y-156299992D02*
G75*
G02*
X284385646Y-155499968I800200J-108D01*
G01*
X283487501Y-118209301D02*
X283487501Y-130799992D01*
X45450001Y-99149992D02*
G75*
G02*
X46260646Y-98350000I800160J-99D01*
G01*
X241512463Y-112550000D02*
G75*
G02*
X240712501Y-111750000I38J800000D01*
G01*
X116800001Y-149849992D02*
G75*
G02*
X116000001Y-150650000I-800056J48D01*
G01*
X146262463Y-112550000D02*
G75*
G02*
X145462501Y-111750000I38J800000D01*
G01*
D12*
X142063702Y-196150000D02*
G75*
G02*
X136867550Y-196150000I-2598076J1500000D01*
G01*
D10*
X254912501Y-111749992D02*
G75*
G02*
X254112501Y-112550000I-800056J48D01*
G01*
X150225001Y-168900000D02*
X150225001Y-156299992D01*
X101712501Y-112550000D02*
X89112463Y-112550000D01*
X346231001Y-150319500D02*
X344900572Y-150319500D01*
X244238463Y-183949230D02*
G75*
G02*
X244438425Y-184149292I0J-199962D01*
G01*
X72793863Y-163099500D02*
G75*
G02*
X72993901Y-163294987I-100J-200193D01*
G01*
X154212415Y-174099292D02*
X154212501Y-174099292D01*
D12*
X110648263Y-92450000D02*
G75*
G02*
X111358590Y-92746089I40J-999997D01*
G01*
D10*
X235062463Y-98350000D02*
G75*
G02*
X235862501Y-99159301I-98J-800188D01*
G01*
D12*
X189576863Y-94350000D02*
G75*
G02*
X188874626Y-94062126I14J1000486D01*
G01*
X336762955Y-91250000D02*
G75*
G02*
X342435578Y-93125000I2749546J-1200000D01*
G01*
D10*
X278725001Y-175359301D02*
X278725001Y-187949992D01*
D12*
X41450001Y-96350012D02*
G75*
G02*
X43450013Y-94350000I2000012J0D01*
G01*
D10*
X222473146Y-98350000D02*
X235062463Y-98350000D01*
X331999963Y-131600000D02*
G75*
G02*
X331200001Y-130800000I38J800000D01*
G01*
X250237501Y-130800000D02*
X250237501Y-118200092D01*
X103543501Y-157275197D02*
X103543501Y-160100700D01*
X373975001Y-118209301D02*
X373975001Y-130799992D01*
X322474963Y-188750000D02*
G75*
G02*
X321675001Y-187950000I38J800000D01*
G01*
X255000001Y-137249992D02*
G75*
G02*
X255810646Y-136450000I800160J-99D01*
G01*
X349362463Y-98350000D02*
G75*
G02*
X350162549Y-99159302I-62J-800200D01*
G01*
X178712501Y-99159301D02*
X178712501Y-111749992D01*
X177912501Y-112550000D02*
X165312463Y-112550000D01*
X244438501Y-186973980D02*
X244438501Y-184149292D01*
X244587501Y-131600000D02*
X231987463Y-131600000D01*
X74919163Y-170569800D02*
G75*
G02*
X74719191Y-170369800I45J200017D01*
G01*
X226425001Y-168900000D02*
X226425001Y-156299992D01*
X327775251Y-160100692D02*
G75*
G02*
X327575251Y-160300750I-200050J-8D01*
G01*
X334324763Y-157070500D02*
G75*
G02*
X334524801Y-157270492I38J-200000D01*
G01*
X197762501Y-99159301D02*
X197762501Y-111749992D01*
X263637501Y-131600000D02*
X251037463Y-131600000D01*
X165323146Y-98350000D02*
X177912463Y-98350000D01*
X329699163Y-170569800D02*
G75*
G02*
X329499201Y-170369792I38J200000D01*
G01*
X102512501Y-111749992D02*
G75*
G02*
X101712501Y-112550000I-800056J48D01*
G01*
X296974863Y-155500000D02*
G75*
G02*
X297775049Y-156309302I38J-800200D01*
G01*
X277925001Y-188750000D02*
X265324963Y-188750000D01*
X193000001Y-149849992D02*
G75*
G02*
X192200001Y-150650000I-800056J48D01*
G01*
X145375001Y-156309301D02*
X145375001Y-168899992D01*
D12*
X329860763Y-192750000D02*
G75*
G02*
X330564766Y-193039765I38J-1000000D01*
G01*
D10*
X324856263Y-150650000D02*
G75*
G02*
X324056301Y-149849992I38J800000D01*
G01*
X331112501Y-111749992D02*
G75*
G02*
X330312501Y-112550000I-800100J92D01*
G01*
X116887501Y-118199992D02*
G75*
G02*
X117698146Y-117400000I800160J-99D01*
G01*
X331112501Y-99159301D02*
X331112501Y-111749992D01*
X329299163Y-169369500D02*
G75*
G02*
X329499201Y-169569492I38J-200000D01*
G01*
X245387501Y-118209301D02*
X245387501Y-130799992D01*
X81974419Y-155500000D02*
X94568763Y-155500000D01*
X346230963Y-138020500D02*
G75*
G02*
X346431050Y-138225198I-62J-200200D01*
G01*
X203423146Y-98350000D02*
X216012463Y-98350000D01*
X159662501Y-99159301D02*
X159662501Y-111749992D01*
D12*
X169819685Y-193042815D02*
X168505386Y-194357115D01*
D10*
X329499151Y-170369792D02*
X329499151Y-169569492D01*
X202525001Y-168899992D02*
G75*
G02*
X201725001Y-169700000I-800056J48D01*
G01*
X148562363Y-183949230D02*
G75*
G02*
X148362500Y-183743780I97J200033D01*
G01*
X207375001Y-156299992D02*
G75*
G02*
X208185646Y-155500000I800160J-99D01*
G01*
X121562501Y-99159301D02*
X121562501Y-111749992D01*
X49849963Y-171462500D02*
G75*
G02*
X49050001Y-170662500I38J800000D01*
G01*
X264525001Y-175349992D02*
G75*
G02*
X265335646Y-174549999I800160J-98D01*
G01*
X148988463Y-183949230D02*
X148562363Y-183949230D01*
D12*
X350423077Y-196150000D02*
G75*
G02*
X345226925Y-196150000I-2598076J1500000D01*
G01*
D10*
X127212463Y-112550000D02*
G75*
G02*
X126412501Y-111750000I38J800000D01*
G01*
X49050001Y-183350000D02*
X49050001Y-179949992D01*
X58849963Y-122162500D02*
G75*
G02*
X59650001Y-122971801I-98J-800188D01*
G01*
X273162501Y-112550000D02*
X260562463Y-112550000D01*
X206487501Y-131600000D02*
X193887463Y-131600000D01*
D12*
X281614774Y-194357102D02*
G75*
G02*
X280907663Y-194649973I-707073J707102D01*
G01*
D10*
X227224963Y-169700000D02*
G75*
G02*
X226425001Y-168900000I38J800000D01*
G01*
X303775163Y-163099500D02*
G75*
G02*
X303975201Y-163299492I38J-200000D01*
G01*
D12*
X167283663Y-92450000D02*
G75*
G02*
X164685577Y-90950000I4J3000023D01*
G01*
X363060787Y-194650000D02*
X353012678Y-194650000D01*
D10*
X145462501Y-111750000D02*
X145462501Y-99149992D01*
X187437501Y-131600000D02*
X174837463Y-131600000D01*
X55250001Y-171462500D02*
X49849963Y-171462500D01*
X321675001Y-187950000D02*
X321675001Y-175349992D01*
D12*
X308783733Y-92450000D02*
X334929863Y-92450000D01*
X74198077Y-196150000D02*
G75*
G02*
X76787678Y-194650000I2598086J-1499992D01*
G01*
X135305386Y-94057115D02*
X136619685Y-92742815D01*
D10*
X293012501Y-99159301D02*
X293012501Y-111749992D01*
X96593963Y-164900600D02*
X95565935Y-164900600D01*
X77818201Y-170569800D02*
X74919163Y-170569800D01*
X308999451Y-169569492D02*
X308999451Y-170369792D01*
X373975001Y-175359301D02*
X373975001Y-187949992D01*
X360574963Y-112550000D02*
G75*
G02*
X359775001Y-111750000I38J800000D01*
G01*
X88225001Y-118209301D02*
X88225001Y-130799992D01*
D12*
X365082185Y-193042815D02*
G75*
G02*
X365782093Y-192750016I706916J-706885D01*
G01*
D10*
X188237501Y-118209301D02*
X188237501Y-130799992D01*
X135850001Y-149849992D02*
G75*
G02*
X135050001Y-150650000I-800056J48D01*
G01*
X103399963Y-150650000D02*
G75*
G02*
X102600001Y-149850000I38J800000D01*
G01*
X58850001Y-112550000D02*
X46249963Y-112550000D01*
D12*
X282098263Y-92450000D02*
G75*
G02*
X282808590Y-92746089I38J-1000000D01*
G01*
D10*
X251188501Y-175085097D02*
X251188501Y-180953021D01*
D12*
X377975001Y-190749992D02*
G75*
G02*
X375975001Y-192750000I-2000100J92D01*
G01*
D10*
X320787501Y-131600000D02*
X308187463Y-131600000D01*
X335875001Y-187949992D02*
G75*
G02*
X335075001Y-188750000I-800100J92D01*
G01*
X315881401Y-141050692D02*
X315881401Y-138220492D01*
X174848146Y-117400000D02*
X187437463Y-117400000D01*
X145375001Y-168899992D02*
G75*
G02*
X144575001Y-169700000I-800056J48D01*
G01*
X293100001Y-137250092D02*
G75*
G02*
X293910646Y-136449968I800200J-8D01*
G01*
X70073146Y-98350000D02*
X82662363Y-98350000D01*
X103343501Y-169369500D02*
X102013072Y-169369500D01*
X90606251Y-137249992D02*
X90606251Y-149849992D01*
X260562463Y-112550000D02*
G75*
G02*
X259762501Y-111750000I38J800000D01*
G01*
D12*
X284826863Y-94350000D02*
X306048287Y-94350000D01*
D10*
X322830963Y-141250700D02*
X323856251Y-141250700D01*
D12*
X262533663Y-92450000D02*
X282098263Y-92450000D01*
D10*
X88312501Y-99149992D02*
G75*
G02*
X89123146Y-98350000I800160J-99D01*
G01*
X344705801Y-150519592D02*
G75*
G02*
X344900571Y-150319474I200200J-8D01*
G01*
X101818301Y-170369792D02*
G75*
G02*
X101618301Y-170569800I-200058J50D01*
G01*
X104169001Y-163099500D02*
X103738272Y-163099500D01*
X173150001Y-150650000D02*
X160549963Y-150650000D01*
X207287501Y-184149192D02*
G75*
G02*
X207487463Y-183949230I199964J-2D01*
G01*
X325550001Y-169700000D02*
X312949963Y-169700000D01*
X273162463Y-98350000D02*
G75*
G02*
X273962549Y-99159302I-62J-800200D01*
G01*
X244438501Y-175080392D02*
G75*
G02*
X244643854Y-174880399I200158J-98D01*
G01*
X207487463Y-179349360D02*
X244238501Y-179349360D01*
X46260646Y-98350000D02*
X58849863Y-98350000D01*
X315881401Y-138220492D02*
G75*
G02*
X316086755Y-138020466I200200J-108D01*
G01*
X212948146Y-117400000D02*
X225537463Y-117400000D01*
X269287501Y-130800000D02*
X269287501Y-118199992D01*
X154099963Y-136450000D02*
G75*
G02*
X154900001Y-137259301I-98J-800188D01*
G01*
X193087501Y-179149392D02*
G75*
G02*
X192887501Y-179349360I-199989J21D01*
G01*
X72449419Y-174550000D02*
X85043763Y-174550000D01*
X140612501Y-99159301D02*
X140612501Y-111749992D01*
X77206263Y-150650000D02*
G75*
G02*
X76406251Y-149849992I3J800015D01*
G01*
D11*
X140965626Y-194650000D02*
G75*
G02*
X137965626Y-194650000I-1500000J0D01*
G01*
X137965626Y-194650000D02*
G75*
G02*
X140965626Y-194650000I1500000J0D01*
G01*
D10*
X344599963Y-117400000D02*
G75*
G02*
X345400049Y-118209302I-62J-800200D01*
G01*
X304118751Y-188750000D02*
X291518763Y-188750000D01*
X310924763Y-160300700D02*
G75*
G02*
X310724801Y-160100692I38J200000D01*
G01*
X79743501Y-169169492D02*
G75*
G02*
X79543501Y-169369500I-200058J50D01*
G01*
X310724751Y-169169492D02*
G75*
G02*
X310524751Y-169369550I-200050J-8D01*
G01*
X112935646Y-155500000D02*
X125524863Y-155500000D01*
D12*
X255713263Y-194650000D02*
X232576763Y-194650000D01*
D10*
X303975151Y-169169492D02*
X303975151Y-163299492D01*
X103343363Y-157070500D02*
G75*
G02*
X103543501Y-157275197I2J-200187D01*
G01*
X235862501Y-111749992D02*
G75*
G02*
X235062501Y-112550000I-800056J48D01*
G01*
X321675001Y-175349992D02*
G75*
G02*
X322485646Y-174549968I800200J-108D01*
G01*
X197850001Y-149850000D02*
X197850001Y-137249992D01*
X317406563Y-150319500D02*
G75*
G02*
X317606735Y-150514571I38J-200200D01*
G01*
X55249963Y-179150000D02*
G75*
G02*
X56050001Y-179959301I-98J-800188D01*
G01*
X109656251Y-175349992D02*
X109656251Y-187949992D01*
X149188501Y-186973980D02*
X149188501Y-184149292D01*
X322631001Y-150119492D02*
G75*
G02*
X322431001Y-150319500I-200100J92D01*
G01*
X184362463Y-112550000D02*
G75*
G02*
X183562501Y-111750000I38J800000D01*
G01*
X303149681Y-162896330D02*
X303149681Y-160500692D01*
X96794001Y-169169500D02*
X96794001Y-165096087D01*
X160549963Y-150650000D02*
G75*
G02*
X159750001Y-149850000I38J800000D01*
G01*
X104369001Y-160505397D02*
X104369001Y-162899492D01*
X293899963Y-150650000D02*
G75*
G02*
X293100001Y-149850000I38J800000D01*
G01*
X173950001Y-149849992D02*
G75*
G02*
X173150001Y-150650000I-800056J48D01*
G01*
X308187463Y-131600000D02*
G75*
G02*
X307387501Y-130800000I38J800000D01*
G01*
D12*
X137333733Y-92450000D02*
X156891348Y-92450000D01*
D10*
X332799551Y-170369792D02*
G75*
G02*
X332599551Y-170569850I-200050J-8D01*
G01*
X197850001Y-137249992D02*
G75*
G02*
X198660646Y-136450000I800160J-99D01*
G01*
X284374963Y-169700000D02*
G75*
G02*
X283575001Y-168900000I38J800000D01*
G01*
X154212501Y-174099292D02*
X154212501Y-174680400D01*
X122449963Y-188750000D02*
G75*
G02*
X121650001Y-187950000I38J800000D01*
G01*
X96993963Y-169369500D02*
G75*
G02*
X96794001Y-169169500I38J200000D01*
G01*
X244438501Y-179149392D02*
X244438501Y-175080392D01*
X305500463Y-169369500D02*
X304175163Y-169369500D01*
X341205263Y-150319500D02*
G75*
G02*
X341405445Y-150514986I38J-200200D01*
G01*
X178800001Y-149850000D02*
X178800001Y-137249992D01*
X149337463Y-117400000D02*
G75*
G02*
X150137501Y-118209301I-98J-800188D01*
G01*
X155738463Y-174880400D02*
G75*
G02*
X155938501Y-175085097I-97J-200186D01*
G01*
X308999451Y-169569492D02*
G75*
G02*
X309196635Y-169369471I200050J-8D01*
G01*
D12*
X167798287Y-194650000D02*
X144661778Y-194650000D01*
X363767886Y-194357115D02*
G75*
G02*
X363060787Y-194649961I-707085J707215D01*
G01*
D10*
X112125001Y-168900000D02*
X112125001Y-156299992D01*
X324056251Y-141050692D02*
X324056251Y-137249992D01*
X340725001Y-175349992D02*
G75*
G02*
X341535646Y-174549968I800200J-108D01*
G01*
X250150001Y-149849992D02*
G75*
G02*
X249350001Y-150650000I-800056J48D01*
G01*
X330312463Y-98350000D02*
G75*
G02*
X331112549Y-99159302I-62J-800200D01*
G01*
X273962501Y-99159301D02*
X273962501Y-111749992D01*
X78018201Y-170369792D02*
G75*
G02*
X77818201Y-170569800I-200058J50D01*
G01*
X55238893Y-177806250D02*
X49849963Y-177806250D01*
X140612501Y-111749992D02*
G75*
G02*
X139812501Y-112550000I-800056J48D01*
G01*
X326350001Y-156309301D02*
X326350001Y-160100700D01*
X146273146Y-98350000D02*
X158862463Y-98350000D01*
D12*
X87542886Y-194357115D02*
G75*
G02*
X86835787Y-194650000I-707120J707166D01*
G01*
D10*
X112125001Y-156299992D02*
G75*
G02*
X112935646Y-155500000I800160J-99D01*
G01*
X345400001Y-118209301D02*
X345400001Y-130799992D01*
X312062501Y-99159301D02*
X312062501Y-111749992D01*
X304177991Y-157070500D02*
X310524763Y-157070500D01*
X206487463Y-174550000D02*
G75*
G02*
X207287501Y-175359301I-98J-800188D01*
G01*
X287449963Y-136450000D02*
G75*
G02*
X288250049Y-137259302I-62J-800200D01*
G01*
X339681501Y-150119500D02*
X339681501Y-146046087D01*
X322631001Y-138225197D02*
X322631001Y-141050700D01*
X77211919Y-136450000D02*
X89806263Y-136450000D01*
X311949963Y-164900600D02*
X310921935Y-164900600D01*
X231998146Y-117400000D02*
X244587463Y-117400000D01*
D12*
X113376863Y-94350000D02*
G75*
G02*
X112674626Y-94062126I14J1000486D01*
G01*
D10*
X259675001Y-168899992D02*
G75*
G02*
X258875001Y-169700000I-800060J52D01*
G01*
X249462501Y-174099292D02*
X249462501Y-174680400D01*
X82662363Y-98350000D02*
G75*
G02*
X83462500Y-99159301I1J-800188D01*
G01*
X125525001Y-169700000D02*
X112924963Y-169700000D01*
X344505801Y-151519800D02*
X341605363Y-151519800D01*
X98317863Y-169369500D02*
G75*
G02*
X98517901Y-169564987I-100J-200193D01*
G01*
X335350251Y-160500692D02*
X335350251Y-162899492D01*
X344600001Y-131600000D02*
X331999963Y-131600000D01*
X298662463Y-112550000D02*
G75*
G02*
X297862501Y-111750000I38J800000D01*
G01*
X226337501Y-130799992D02*
G75*
G02*
X225537501Y-131600000I-800056J48D01*
G01*
X360585646Y-98350000D02*
X373174963Y-98350000D01*
X116800001Y-137259301D02*
X116800001Y-149849992D01*
X144575001Y-169700000D02*
X131974963Y-169700000D01*
X198660646Y-136450000D02*
X211249963Y-136450000D01*
X322830963Y-141250700D02*
G75*
G02*
X322631001Y-141050700I38J200000D01*
G01*
X347056501Y-144049500D02*
X346625772Y-144049500D01*
X79743501Y-157275197D02*
X79743501Y-160100700D01*
X192887463Y-183949230D02*
G75*
G02*
X193087425Y-184149292I0J-199962D01*
G01*
X55250001Y-184150000D02*
X49849963Y-184150000D01*
X55249963Y-172806250D02*
G75*
G02*
X56050001Y-173606292I2J-800036D01*
G01*
X83462501Y-99159301D02*
X83462501Y-111749992D01*
X117698146Y-117400000D02*
X130287463Y-117400000D01*
X293910646Y-136450000D02*
X306499963Y-136450000D01*
X326350001Y-165100592D02*
G75*
G02*
X326544771Y-164900574I200200J-108D01*
G01*
X306500001Y-150650000D02*
X293899963Y-150650000D01*
X72993901Y-157270592D02*
G75*
G02*
X73199254Y-157070499I200158J2D01*
G01*
X306499963Y-136450000D02*
G75*
G02*
X307300049Y-137259302I-62J-800200D01*
G01*
X290718751Y-175349992D02*
G75*
G02*
X291524419Y-174549970I800050J-8D01*
G01*
D12*
X231869685Y-92742815D02*
G75*
G02*
X232583733Y-92450000I706924J-706847D01*
G01*
D10*
X347056463Y-141250700D02*
G75*
G02*
X347256550Y-141455398I-62J-200200D01*
G01*
D12*
X231864428Y-194351928D02*
X230552266Y-193039765D01*
D10*
X347256501Y-141455397D02*
X347256501Y-143849492D01*
X103543501Y-163299492D02*
G75*
G02*
X103738272Y-163099500I200167J-102D01*
G01*
X46249963Y-112550000D02*
G75*
G02*
X45450001Y-111750000I38J800000D01*
G01*
X97837501Y-118199992D02*
G75*
G02*
X98648146Y-117400000I800160J-99D01*
G01*
X216012501Y-112550000D02*
X203412463Y-112550000D01*
X338256251Y-146050592D02*
X338256251Y-149849992D01*
X149188501Y-180950492D02*
X149188501Y-175080392D01*
X56050001Y-170662492D02*
G75*
G02*
X55250001Y-171462500I-800056J48D01*
G01*
X108856263Y-174550000D02*
G75*
G02*
X109656251Y-175349992I4J-799984D01*
G01*
X69262501Y-99149992D02*
G75*
G02*
X70073146Y-98350000I800160J-99D01*
G01*
X336773146Y-98350000D02*
X349362463Y-98350000D01*
X173950001Y-137259301D02*
X173950001Y-149849992D01*
X244638363Y-187179430D02*
G75*
G02*
X244438500Y-186973980I97J200033D01*
G01*
X246162501Y-174099192D02*
G75*
G02*
X246364462Y-173899240I199963J-1D01*
G01*
X301737501Y-131600000D02*
X289137463Y-131600000D01*
X98317863Y-169369500D02*
X96993963Y-169369500D01*
X109656251Y-187949992D02*
G75*
G02*
X108856251Y-188750000I-800022J14D01*
G01*
X335875001Y-175359301D02*
X335875001Y-187949992D01*
D12*
X230555386Y-94057115D02*
X231869685Y-92742815D01*
D10*
X155738463Y-187179430D02*
X149388363Y-187179430D01*
X45450001Y-142012492D02*
G75*
G02*
X46260646Y-141212500I800160J-99D01*
G01*
X74519063Y-169369500D02*
G75*
G02*
X74719191Y-169564572I-1J-200195D01*
G01*
X290718751Y-187949992D02*
X290718751Y-175349992D01*
X150912501Y-174680392D02*
X150912501Y-174099192D01*
X320905701Y-150519592D02*
X320905701Y-151319792D01*
X293100001Y-149850000D02*
X293100001Y-137250092D01*
X101618301Y-170569800D02*
X98717863Y-170569800D01*
X155938501Y-186979392D02*
G75*
G02*
X155738463Y-187179430I-200039J1D01*
G01*
X308999451Y-170369792D02*
G75*
G02*
X308799451Y-170569850I-200050J-8D01*
G01*
X249262363Y-173899240D02*
G75*
G02*
X249462415Y-174099292I99J-199953D01*
G01*
X297775001Y-156309301D02*
X297775001Y-168899992D01*
X297862501Y-111750000D02*
X297862501Y-99149992D01*
D12*
X255713263Y-194650000D02*
G75*
G02*
X258311299Y-196150000I-20J-2999965D01*
G01*
D10*
X155938501Y-175085097D02*
X155938501Y-179150941D01*
X202612501Y-111750000D02*
X202612501Y-99149992D01*
X58850001Y-136362500D02*
X46249963Y-136362500D01*
X49050001Y-173606392D02*
G75*
G02*
X49850063Y-172806330I799960J102D01*
G01*
X298673146Y-98350000D02*
X311262463Y-98350000D01*
X354124963Y-174550000D02*
G75*
G02*
X354925049Y-175359302I-62J-800200D01*
G01*
X239824963Y-155500000D02*
G75*
G02*
X240625001Y-156309301I-98J-800188D01*
G01*
D12*
X282928973Y-193042902D02*
G75*
G02*
X283628952Y-192750017I707128J-707098D01*
G01*
X136619685Y-92742815D02*
G75*
G02*
X137333733Y-92450000I706924J-706847D01*
G01*
X254739424Y-90950000D02*
G75*
G02*
X259935578Y-90950000I2598077J-1499998D01*
G01*
D10*
X96999354Y-157070500D02*
X103343363Y-157070500D01*
X79743501Y-165100592D02*
G75*
G02*
X79938272Y-164900600I200167J-102D01*
G01*
X310524751Y-169369500D02*
X309196635Y-169369500D01*
X74519063Y-169369500D02*
X73193863Y-169369500D01*
D12*
X76989424Y-93125000D02*
G75*
G02*
X82662046Y-91250000I2923077J674999D01*
G01*
D10*
X320905701Y-150519592D02*
G75*
G02*
X321100471Y-150319474I200200J-8D01*
G01*
X95368751Y-165100592D02*
G75*
G02*
X95565935Y-164900600I200013J-1D01*
G01*
X231187501Y-118199992D02*
G75*
G02*
X231998146Y-117400000I800160J-99D01*
G01*
X120762463Y-98350000D02*
G75*
G02*
X121562501Y-99159301I-98J-800188D01*
G01*
X359775001Y-130800000D02*
X359775001Y-118199992D01*
X359775001Y-99150092D02*
G75*
G02*
X360585646Y-98349968I800200J-8D01*
G01*
X126412501Y-99149992D02*
G75*
G02*
X127223146Y-98350000I800160J-99D01*
G01*
X221575001Y-168899992D02*
G75*
G02*
X220775001Y-169700000I-800056J48D01*
G01*
X231100001Y-149849992D02*
G75*
G02*
X230300001Y-150650000I-800056J48D01*
G01*
X131985646Y-155500000D02*
X144574963Y-155500000D01*
X335962501Y-99149992D02*
G75*
G02*
X336773146Y-98349968I800200J-108D01*
G01*
X340725001Y-156299992D02*
G75*
G02*
X341535646Y-155499968I800200J-108D01*
G01*
X360585646Y-117400000D02*
X373174963Y-117400000D01*
X116887501Y-130800000D02*
X116887501Y-118199992D01*
X226425001Y-156299992D02*
G75*
G02*
X227235646Y-155500000I800160J-99D01*
G01*
X148362501Y-183743780D02*
X148362501Y-181350492D01*
D12*
X88857185Y-193042815D02*
G75*
G02*
X89557093Y-192750000I706923J-706847D01*
G01*
D10*
X332010646Y-117400000D02*
X344599963Y-117400000D01*
X354925001Y-187949992D02*
G75*
G02*
X354125001Y-188750000I-800100J92D01*
G01*
X331200001Y-130800000D02*
X331200001Y-118199992D01*
X264525001Y-156299992D02*
G75*
G02*
X265335646Y-155499999I800160J-98D01*
G01*
D12*
X159489424Y-90950000D02*
G75*
G02*
X156891348Y-92450000I-2598106J1500052D01*
G01*
D10*
X307387501Y-118199992D02*
G75*
G02*
X308198146Y-117399968I800200J-108D01*
G01*
X212050001Y-137259301D02*
X212050001Y-149849992D01*
X245475001Y-168900000D02*
X245475001Y-156299992D01*
D12*
X74198077Y-196150000D02*
G75*
G02*
X69001923Y-196150000I-2598077J1500000D01*
G01*
D10*
X154987501Y-130800000D02*
X154987501Y-118199992D01*
X225537463Y-117400000D02*
G75*
G02*
X226337501Y-118209301I-98J-800188D01*
G01*
X212137501Y-118199992D02*
G75*
G02*
X212948146Y-117400000I800160J-99D01*
G01*
X136737463Y-131600000D02*
G75*
G02*
X135937501Y-130800000I38J800000D01*
G01*
D12*
X169819685Y-193042815D02*
G75*
G02*
X170519593Y-192750000I706923J-706847D01*
G01*
D10*
X149188501Y-180950492D02*
G75*
G02*
X148988501Y-181150470I-200006J28D01*
G01*
X288337501Y-118199992D02*
G75*
G02*
X289148146Y-117399968I800200J-108D01*
G01*
X269287501Y-118199992D02*
G75*
G02*
X270098146Y-117399968I800200J-108D01*
G01*
X95568763Y-160300700D02*
X96594001Y-160300700D01*
X193898146Y-117400000D02*
X206487363Y-117400000D01*
D12*
X350423077Y-196150000D02*
G75*
G02*
X353012678Y-194649971I2598124J-1500000D01*
G01*
D10*
X259675001Y-156309301D02*
X259675001Y-168899992D01*
X211249963Y-136450000D02*
G75*
G02*
X212050001Y-137259301I-98J-800188D01*
G01*
X154900001Y-137259301D02*
X154900001Y-149849992D01*
X156138463Y-179349360D02*
G75*
G02*
X155938501Y-179150941I1J199969D01*
G01*
X164425001Y-168899992D02*
G75*
G02*
X163625001Y-169700000I-800056J48D01*
G01*
X326549963Y-160300700D02*
G75*
G02*
X326350001Y-160100700I38J200000D01*
G01*
X85043763Y-174550000D02*
G75*
G02*
X85843751Y-175349992I4J-799984D01*
G01*
X235950001Y-149850000D02*
X235950001Y-137249992D01*
X158862463Y-98350000D02*
G75*
G02*
X159662501Y-99159301I-98J-800188D01*
G01*
X163625001Y-169700000D02*
X151024963Y-169700000D01*
D12*
X232576763Y-194650000D02*
G75*
G02*
X231864428Y-194351928I115J1000482D01*
G01*
D10*
X107362501Y-111750000D02*
X107362501Y-99149992D01*
D12*
X232583733Y-92450000D02*
X252141348Y-92450000D01*
D10*
X283487501Y-130799992D02*
G75*
G02*
X282687501Y-131600000I-800100J92D01*
G01*
X160560646Y-136450000D02*
X173149963Y-136450000D01*
X217699963Y-150650000D02*
G75*
G02*
X216900001Y-149850000I38J800000D01*
G01*
X279623146Y-98350000D02*
X292212463Y-98350000D01*
X289137463Y-131600000D02*
G75*
G02*
X288337501Y-130800000I38J800000D01*
G01*
X268399963Y-136450000D02*
G75*
G02*
X269200049Y-137259302I-62J-800200D01*
G01*
X122460646Y-136450000D02*
X135049963Y-136450000D01*
X246285646Y-155500000D02*
X258874963Y-155500000D01*
X102600001Y-137249992D02*
G75*
G02*
X103410646Y-136450000I800160J-99D01*
G01*
X240712501Y-99149992D02*
G75*
G02*
X241523146Y-98350000I800160J-99D01*
G01*
X236760646Y-136450000D02*
X249349963Y-136450000D01*
X121562501Y-111749992D02*
G75*
G02*
X120762501Y-112550000I-800056J48D01*
G01*
X302537501Y-118209301D02*
X302537501Y-130799992D01*
X72993901Y-169169500D02*
X72993901Y-163294987D01*
X182674963Y-155500000D02*
G75*
G02*
X183475001Y-156309301I-98J-800188D01*
G01*
X150137501Y-118209301D02*
X150137501Y-130799992D01*
X263637463Y-117400000D02*
G75*
G02*
X264437499Y-118209301I-102J-800190D01*
G01*
X334524751Y-157270492D02*
X334524751Y-160100692D01*
X283575001Y-168900000D02*
X283575001Y-156299992D01*
X288250001Y-149849992D02*
G75*
G02*
X287450001Y-150650000I-800100J92D01*
G01*
X249350001Y-150650000D02*
X236749963Y-150650000D01*
X150137501Y-130799992D02*
G75*
G02*
X149337501Y-131600000I-800056J48D01*
G01*
D12*
X113376863Y-94350000D02*
X134598287Y-94350000D01*
D10*
X88312501Y-111750000D02*
X88312501Y-99149992D01*
X354124963Y-155500000D02*
G75*
G02*
X354925049Y-156309302I-62J-800200D01*
G01*
D12*
X116738763Y-192750000D02*
G75*
G02*
X117441619Y-193038493I-17J-1000471D01*
G01*
D10*
X301737463Y-117400000D02*
G75*
G02*
X302537549Y-118209302I-62J-800200D01*
G01*
X324056251Y-137249992D02*
G75*
G02*
X324861919Y-136449970I800050J-8D01*
G01*
X179599963Y-150650000D02*
G75*
G02*
X178800001Y-149850000I38J800000D01*
G01*
X220774963Y-155500000D02*
G75*
G02*
X221575001Y-156309301I-98J-800188D01*
G01*
D12*
X43449963Y-192750000D02*
G75*
G02*
X41450001Y-190750000I38J2000000D01*
G01*
D10*
X315255931Y-141250700D02*
X315681401Y-141250700D01*
X131087501Y-130799992D02*
G75*
G02*
X130287501Y-131600000I-800056J48D01*
G01*
X287450001Y-150650000D02*
X274849963Y-150650000D01*
X135850001Y-137259301D02*
X135850001Y-149849992D01*
X149188425Y-184149292D02*
X149188501Y-184149292D01*
D12*
X135305386Y-94057115D02*
G75*
G02*
X134598287Y-94350000I-707120J707166D01*
G01*
D10*
X212937463Y-131600000D02*
G75*
G02*
X212137501Y-130800000I38J800000D01*
G01*
X277924963Y-155500000D02*
G75*
G02*
X278725049Y-156309302I-62J-800200D01*
G01*
X332799551Y-169569492D02*
X332799551Y-170369792D01*
D12*
X167283663Y-92450000D02*
X186848263Y-92450000D01*
D10*
X254912501Y-99159301D02*
X254912501Y-111749992D01*
X154900001Y-149849992D02*
G75*
G02*
X154100001Y-150650000I-800056J48D01*
G01*
X49860646Y-166462500D02*
X55249863Y-166462500D01*
D12*
X263507452Y-196150000D02*
G75*
G02*
X258311300Y-196150000I-2598076J1500000D01*
G01*
D10*
X354925001Y-168899992D02*
G75*
G02*
X354125001Y-169700000I-800100J92D01*
G01*
X74025001Y-118200092D02*
G75*
G02*
X74835646Y-117400000I800161J0D01*
G01*
X246162501Y-174680392D02*
X246162501Y-174099192D01*
X326549963Y-160300700D02*
X327575251Y-160300700D01*
X131175001Y-168900000D02*
X131175001Y-156299992D01*
X323856263Y-145850600D02*
G75*
G02*
X324056301Y-146050592I38J-200000D01*
G01*
X310524763Y-157070500D02*
G75*
G02*
X310724801Y-157270492I38J-200000D01*
G01*
X251813463Y-181150470D02*
G75*
G02*
X252013485Y-181350492I0J-200022D01*
G01*
X104369001Y-162899492D02*
G75*
G02*
X104169001Y-163099500I-200058J50D01*
G01*
X135049963Y-174550000D02*
G75*
G02*
X135850001Y-175359301I-98J-800188D01*
G01*
X192887463Y-183949230D02*
X156138463Y-183949230D01*
X154012363Y-173899240D02*
G75*
G02*
X154212415Y-174099292I99J-199953D01*
G01*
X320905701Y-151319792D02*
G75*
G02*
X320705701Y-151519800I-200100J92D01*
G01*
X323856263Y-145850600D02*
X322825772Y-145850600D01*
X258875001Y-169700000D02*
X246274963Y-169700000D01*
X302537501Y-130799992D02*
G75*
G02*
X301737501Y-131600000I-800100J92D01*
G01*
X230300001Y-150650000D02*
X217699963Y-150650000D01*
X98717863Y-170569800D02*
G75*
G02*
X98517901Y-170369800I38J200000D01*
G01*
X305500463Y-169369500D02*
G75*
G02*
X305700488Y-169567211I38J-200000D01*
G01*
X164512501Y-99149992D02*
G75*
G02*
X165323146Y-98350000I800160J-99D01*
G01*
X360574963Y-131600000D02*
G75*
G02*
X359775001Y-130800000I38J800000D01*
G01*
X151024963Y-169700000D02*
G75*
G02*
X150225001Y-168900000I38J800000D01*
G01*
X278725001Y-168899992D02*
G75*
G02*
X277925001Y-169700000I-800060J52D01*
G01*
X311949963Y-164900600D02*
G75*
G02*
X312150046Y-165096086I-62J-200200D01*
G01*
X198649963Y-150650000D02*
G75*
G02*
X197850001Y-149850000I38J800000D01*
G01*
X72168455Y-162899492D02*
X72168431Y-162899492D01*
X265335646Y-155500000D02*
X277924963Y-155500000D01*
X252013501Y-183749192D02*
G75*
G02*
X251813463Y-183949230I-200039J1D01*
G01*
X373174963Y-174550000D02*
G75*
G02*
X373975049Y-175359302I-62J-800200D01*
G01*
X332799551Y-169569492D02*
G75*
G02*
X332996735Y-169369471I200050J-8D01*
G01*
D12*
X88857185Y-193042815D02*
X87542886Y-194357115D01*
D10*
X322431001Y-150319500D02*
X321100472Y-150319500D01*
X193087501Y-179149392D02*
X193087501Y-175349992D01*
X126325001Y-156309301D02*
X126325001Y-168899992D01*
X56050001Y-177006392D02*
G75*
G02*
X55238893Y-177806249I-800032J98D01*
G01*
X183562501Y-111750000D02*
X183562501Y-99149992D01*
X55249863Y-166462500D02*
G75*
G02*
X56050000Y-167271801I1J-800188D01*
G01*
X164425001Y-156309301D02*
X164425001Y-168899992D01*
X217710646Y-136450000D02*
X230299863Y-136450000D01*
X178800001Y-137249992D02*
G75*
G02*
X179610646Y-136450000I800160J-99D01*
G01*
D12*
X111358590Y-92746089D02*
X112674626Y-94062126D01*
X306755386Y-94057115D02*
X308069685Y-92742815D01*
D10*
X90606251Y-149849992D02*
G75*
G02*
X89806251Y-150650000I-800022J14D01*
G01*
X317606691Y-151319800D02*
X317606691Y-150514572D01*
X321587501Y-130799992D02*
G75*
G02*
X320787501Y-131600000I-800100J92D01*
G01*
X111237463Y-117400000D02*
G75*
G02*
X112037501Y-118209301I-98J-800188D01*
G01*
X72443763Y-188750000D02*
G75*
G02*
X71643751Y-187949992I3J800015D01*
G01*
X71643751Y-175349992D02*
G75*
G02*
X72449419Y-174550000I800012J0D01*
G01*
X159750001Y-137249992D02*
G75*
G02*
X160560646Y-136450000I800160J-99D01*
G01*
X168387501Y-131600000D02*
X155787463Y-131600000D01*
X251388463Y-181150470D02*
G75*
G02*
X251188501Y-180953021I0J199978D01*
G01*
X196962463Y-98350000D02*
G75*
G02*
X197762501Y-99159301I-98J-800188D01*
G01*
X251048146Y-117400000D02*
X263637463Y-117400000D01*
X122460646Y-174550000D02*
X135049963Y-174550000D01*
X89806263Y-136450000D02*
G75*
G02*
X90606251Y-137249992I4J-799984D01*
G01*
X236749963Y-150650000D02*
G75*
G02*
X235950001Y-149850000I38J800000D01*
G01*
X216812501Y-99159301D02*
X216812501Y-111749992D01*
X274050001Y-137249992D02*
G75*
G02*
X274860646Y-136449968I800200J-108D01*
G01*
X98637463Y-131600000D02*
G75*
G02*
X97837501Y-130800000I38J800000D01*
G01*
X327775251Y-169169492D02*
X327775251Y-165100592D01*
X59650001Y-111749992D02*
G75*
G02*
X58850001Y-112550000I-800056J48D01*
G01*
X303975151Y-160100692D02*
X303975151Y-157270492D01*
X221575001Y-156309301D02*
X221575001Y-168899992D01*
D12*
X336762955Y-91250000D02*
G75*
G02*
X334929863Y-92449962I-1833054J800100D01*
G01*
D10*
X207287501Y-130799992D02*
G75*
G02*
X206487501Y-131600000I-800056J48D01*
G01*
X203412463Y-112550000D02*
G75*
G02*
X202612501Y-111750000I38J800000D01*
G01*
X258874963Y-155500000D02*
G75*
G02*
X259674999Y-156309301I-102J-800190D01*
G01*
X121650001Y-187950000D02*
X121650001Y-175349992D01*
X288250001Y-137259301D02*
X288250001Y-149849992D01*
X308799451Y-170569800D02*
X305900463Y-170569800D01*
X155938501Y-184149192D02*
G75*
G02*
X156138463Y-183949230I199964J-2D01*
G01*
X193898146Y-174550000D02*
X206487463Y-174550000D01*
D12*
X280907663Y-194650000D02*
X266105463Y-194650000D01*
D10*
X183475001Y-168899992D02*
G75*
G02*
X182675001Y-169700000I-800056J48D01*
G01*
X192199963Y-136450000D02*
G75*
G02*
X193000001Y-137259301I-98J-800188D01*
G01*
X149393854Y-174880400D02*
X150712501Y-174880400D01*
X207287501Y-118209301D02*
X207287501Y-130799992D01*
X339681501Y-141050692D02*
X339681501Y-138220492D01*
X103543501Y-163299492D02*
X103543501Y-169169492D01*
D12*
X332589263Y-194650000D02*
G75*
G02*
X331876936Y-194351920I138J1000500D01*
G01*
X254739424Y-90950000D02*
G75*
G02*
X252141348Y-92450000I-2598106J1500052D01*
G01*
D10*
X76406251Y-149849992D02*
X76406251Y-137249992D01*
X327775251Y-157270492D02*
G75*
G02*
X327978091Y-157070469I200050J-8D01*
G01*
X94568751Y-169700000D02*
X81968763Y-169700000D01*
X154987501Y-118199992D02*
G75*
G02*
X155798146Y-117400000I800160J-99D01*
G01*
X95368751Y-168899992D02*
G75*
G02*
X94568751Y-169700000I-800022J14D01*
G01*
X96593963Y-164900600D02*
G75*
G02*
X96794001Y-165096087I-100J-200193D01*
G01*
D12*
X142063702Y-196150000D02*
G75*
G02*
X144661778Y-194650000I2598086J-1500017D01*
G01*
D10*
X101712463Y-98350000D02*
G75*
G02*
X102512501Y-99159301I-98J-800188D01*
G01*
X226337501Y-118209301D02*
X226337501Y-130799992D01*
X312150001Y-160100692D02*
G75*
G02*
X311950001Y-160300700I-200100J92D01*
G01*
D12*
X134269463Y-194650000D02*
G75*
G02*
X136867549Y-196150000I-14J-3000041D01*
G01*
D10*
X135050001Y-150650000D02*
X122449963Y-150650000D01*
X45450001Y-111750000D02*
X45450001Y-99149992D01*
D12*
X377975001Y-170065292D02*
X377975001Y-190749992D01*
D10*
X74719191Y-170369800D02*
X74719191Y-169564572D01*
X49849963Y-184150000D02*
G75*
G02*
X49050001Y-183350000I38J800000D01*
G01*
X72368463Y-163099500D02*
G75*
G02*
X72168455Y-162899492I0J200008D01*
G01*
X95368751Y-156299992D02*
X95368751Y-160100692D01*
X151035646Y-155500000D02*
X163624963Y-155500000D01*
X59650001Y-135562492D02*
G75*
G02*
X58850001Y-136362500I-800056J48D01*
G01*
D12*
X262533663Y-92450000D02*
G75*
G02*
X259935582Y-90949997I8J3000020D01*
G01*
D10*
X270087463Y-131600000D02*
G75*
G02*
X269287501Y-130800000I38J800000D01*
G01*
X235062501Y-112550000D02*
X222462463Y-112550000D01*
X304918751Y-187949992D02*
G75*
G02*
X304118751Y-188750050I-800050J-8D01*
G01*
X327575263Y-164900600D02*
X326544772Y-164900600D01*
X103743463Y-160300700D02*
G75*
G02*
X103543501Y-160100700I38J200000D01*
G01*
X102600001Y-149850000D02*
X102600001Y-137249992D01*
X274849963Y-150650000D02*
G75*
G02*
X274050001Y-149850000I38J800000D01*
G01*
X334724763Y-160300700D02*
G75*
G02*
X334524801Y-160100692I38J200000D01*
G01*
X338256251Y-137249992D02*
X338256251Y-141050692D01*
X249662463Y-174880400D02*
G75*
G02*
X249462501Y-174680400I38J200000D01*
G01*
X169187501Y-118209301D02*
X169187501Y-130799992D01*
X49849963Y-177806250D02*
G75*
G02*
X49050001Y-177006292I2J799964D01*
G01*
X135937501Y-118199992D02*
G75*
G02*
X136748146Y-117400000I800160J-99D01*
G01*
X117687463Y-131600000D02*
G75*
G02*
X116887501Y-130800000I38J800000D01*
G01*
X95456251Y-187949992D02*
X95456251Y-175349992D01*
X135850001Y-187949992D02*
G75*
G02*
X135050001Y-188750000I-800056J48D01*
G01*
D12*
X343409963Y-94350000D02*
G75*
G02*
X342435639Y-93125014I38J1000000D01*
G01*
D10*
X311262463Y-98350000D02*
G75*
G02*
X312062549Y-99159302I-62J-800200D01*
G01*
D12*
X189576863Y-94350000D02*
X229848287Y-94350000D01*
D10*
X292212463Y-98350000D02*
G75*
G02*
X293012549Y-99159302I-62J-800200D01*
G01*
D12*
X334929863Y-92449991D02*
X334929863Y-92450000D01*
D10*
X148988463Y-183949230D02*
G75*
G02*
X149188425Y-184149292I0J-199962D01*
G01*
X145462501Y-99149992D02*
G75*
G02*
X146273146Y-98350000I800160J-99D01*
G01*
X59650001Y-99159301D02*
X59650001Y-111749992D01*
X225537501Y-131600000D02*
X212937463Y-131600000D01*
X324056251Y-141050692D02*
G75*
G02*
X323856251Y-141250750I-200050J-8D01*
G01*
X169187501Y-130799992D02*
G75*
G02*
X168387501Y-131600000I-800056J48D01*
G01*
X72993901Y-160100692D02*
G75*
G02*
X72793901Y-160300700I-200058J50D01*
G01*
X141499963Y-150650000D02*
G75*
G02*
X140700001Y-149850000I38J800000D01*
G01*
X337456263Y-136450000D02*
G75*
G02*
X338256301Y-137249992I38J-800000D01*
G01*
X346630963Y-141250700D02*
X347056463Y-141250700D01*
X284385646Y-155500000D02*
X296974863Y-155500000D01*
X264525001Y-168900000D02*
X264525001Y-156299992D01*
X310724751Y-157270492D02*
X310724751Y-160100692D01*
X338456263Y-141250700D02*
X339481501Y-141250700D01*
X69262501Y-111750000D02*
X69262501Y-99149992D01*
X140700001Y-149850000D02*
X140700001Y-137249992D01*
X341524963Y-188750000D02*
G75*
G02*
X340725001Y-187950000I38J800000D01*
G01*
X72793863Y-163099500D02*
X72368463Y-163099500D01*
X154100001Y-150650000D02*
X141499963Y-150650000D01*
X270098146Y-117400000D02*
X282687463Y-117400000D01*
X326350001Y-165100592D02*
X326350001Y-168899992D01*
X169275001Y-168900000D02*
X169275001Y-156299992D01*
X45450001Y-135562500D02*
X45450001Y-122962492D01*
X244238463Y-183949230D02*
X207487463Y-183949230D01*
X311262501Y-112550000D02*
X298662463Y-112550000D01*
X144574963Y-155500000D02*
G75*
G02*
X145375001Y-156309301I-98J-800188D01*
G01*
X341205263Y-150319500D02*
X339881463Y-150319500D01*
X126412501Y-111750000D02*
X126412501Y-99149992D01*
X312949963Y-169700000D02*
G75*
G02*
X312150001Y-168900000I38J800000D01*
G01*
X193000001Y-137259301D02*
X193000001Y-149849992D01*
D12*
X187558590Y-92746089D02*
X188874626Y-94062126D01*
X118756449Y-194353324D02*
X117441619Y-193038493D01*
D10*
X141510646Y-136450000D02*
X154099963Y-136450000D01*
X329299163Y-169369500D02*
X327975263Y-169369500D01*
X250150001Y-137259301D02*
X250150001Y-149849992D01*
X373175001Y-188750000D02*
X360574963Y-188750000D01*
X304918751Y-175349992D02*
X304918751Y-187949992D01*
X320787463Y-117400000D02*
G75*
G02*
X321587549Y-118209302I-62J-800200D01*
G01*
X349362501Y-112550000D02*
X336762463Y-112550000D01*
X231187501Y-130800000D02*
X231187501Y-118199992D01*
X304175163Y-169369500D02*
G75*
G02*
X303975201Y-169169492I38J200000D01*
G01*
X240712501Y-111750000D02*
X240712501Y-99149992D01*
X303775163Y-163099500D02*
X303349663Y-163099500D01*
D12*
X76015063Y-94349992D02*
X76015063Y-94350000D01*
D10*
X49050001Y-177006292D02*
X49050001Y-173606392D01*
X56050001Y-173606292D02*
X56050001Y-177006392D01*
X254112501Y-112550000D02*
X241512463Y-112550000D01*
X131175001Y-156299992D02*
G75*
G02*
X131985646Y-155500000I800160J-99D01*
G01*
X244587463Y-117400000D02*
G75*
G02*
X245387501Y-118209301I-98J-800188D01*
G01*
X340725001Y-168900000D02*
X340725001Y-156299992D01*
X307300001Y-137259301D02*
X307300001Y-149849992D01*
D11*
X349325001Y-194650000D02*
G75*
G02*
X346325001Y-194650000I-1500000J0D01*
G01*
X346325001Y-194650000D02*
G75*
G02*
X349325001Y-194650000I1500000J0D01*
G01*
D10*
X58849863Y-98350000D02*
G75*
G02*
X59650000Y-99159301I1J-800188D01*
G01*
X120762501Y-112550000D02*
X108162463Y-112550000D01*
X184373146Y-98350000D02*
X196962463Y-98350000D01*
X156138463Y-179349360D02*
X192887501Y-179349360D01*
D12*
X84495063Y-92450000D02*
X110648263Y-92450000D01*
D10*
X303975151Y-157270492D02*
G75*
G02*
X304177991Y-157070469I200050J-8D01*
G01*
X96256263Y-188750000D02*
G75*
G02*
X95456251Y-187949992I3J800015D01*
G01*
X58849963Y-141212500D02*
G75*
G02*
X59650001Y-142021801I-98J-800188D01*
G01*
X317712463Y-112550000D02*
G75*
G02*
X316912501Y-111750000I38J800000D01*
G01*
X207487463Y-179349360D02*
G75*
G02*
X207287501Y-179150941I1J199969D01*
G01*
X373975001Y-99159301D02*
X373975001Y-111749992D01*
X56050001Y-167271801D02*
X56050001Y-170662492D01*
X297862501Y-99149992D02*
G75*
G02*
X298673146Y-98349968I800200J-108D01*
G01*
D12*
X375974963Y-94350000D02*
G75*
G02*
X377975049Y-96364652I-62J-2000200D01*
G01*
D10*
X259762501Y-111750000D02*
X259762501Y-99149992D01*
X59650001Y-122971801D02*
X59650001Y-135562492D01*
X135937501Y-130800000D02*
X135937501Y-118199992D01*
X183475001Y-156309301D02*
X183475001Y-168899992D01*
X49860646Y-179150000D02*
X55249963Y-179150000D01*
X308198146Y-117400000D02*
X320787463Y-117400000D01*
X158862501Y-112550000D02*
X146262463Y-112550000D01*
X269200001Y-149849992D02*
G75*
G02*
X268400001Y-150650000I-800060J52D01*
G01*
X104168863Y-160300700D02*
G75*
G02*
X104369001Y-160505397I2J-200187D01*
G01*
X135050001Y-188750000D02*
X122449963Y-188750000D01*
X58850001Y-155412500D02*
X46249963Y-155412500D01*
X291524419Y-174550000D02*
X304118763Y-174550000D01*
D12*
X375975001Y-192750000D02*
X365782093Y-192750000D01*
D10*
X73193863Y-169369500D02*
G75*
G02*
X72993901Y-169169500I38J200000D01*
G01*
X322631001Y-146050692D02*
G75*
G02*
X322825771Y-145850574I200200J-8D01*
G01*
X72168431Y-162899492D02*
X72168431Y-160500692D01*
X339481363Y-145850600D02*
X338453435Y-145850600D01*
X108173146Y-98350000D02*
X120762463Y-98350000D01*
X206487363Y-117400000D02*
G75*
G02*
X207287500Y-118209301I1J-800188D01*
G01*
X240625001Y-156309301D02*
X240625001Y-168899992D01*
X315055931Y-143849492D02*
X315055931Y-141450692D01*
X345400001Y-130799992D02*
G75*
G02*
X344600001Y-131600000I-800100J92D01*
G01*
X312062501Y-111749992D02*
G75*
G02*
X311262501Y-112550000I-800100J92D01*
G01*
X373175001Y-131600000D02*
X360574963Y-131600000D01*
X87424963Y-117400000D02*
G75*
G02*
X88225001Y-118209301I-98J-800188D01*
G01*
X79543501Y-169369500D02*
X78212972Y-169369500D01*
X220775001Y-169700000D02*
X208174963Y-169700000D01*
X315255963Y-144049500D02*
G75*
G02*
X315056001Y-143849492I38J200000D01*
G01*
X150225001Y-156299992D02*
G75*
G02*
X151035646Y-155500000I800160J-99D01*
G01*
X335150251Y-163099500D02*
X334721935Y-163099500D01*
D12*
X43450013Y-94350000D02*
X76015063Y-94350000D01*
D10*
X115999963Y-136450000D02*
G75*
G02*
X116800001Y-137259301I-98J-800188D01*
G01*
X174037501Y-118199992D02*
G75*
G02*
X174848146Y-117400000I800160J-99D01*
G01*
X316912501Y-99149992D02*
G75*
G02*
X317723146Y-98349968I800200J-108D01*
G01*
X235862501Y-99159301D02*
X235862501Y-111749992D01*
X316086754Y-138020500D02*
X322430963Y-138020500D01*
X49050001Y-179949992D02*
G75*
G02*
X49860646Y-179150000I800160J-99D01*
G01*
X337456251Y-150650000D02*
X324856263Y-150650000D01*
D12*
X376941177Y-169065845D02*
G75*
G02*
X376941177Y-137084155I-541176J15990845D01*
G01*
D10*
X268400001Y-150650000D02*
X255799963Y-150650000D01*
X296975001Y-169700000D02*
X284374963Y-169700000D01*
X207287501Y-187949992D02*
G75*
G02*
X206487501Y-188750000I-800056J48D01*
G01*
X310724751Y-165100592D02*
X310724751Y-169169492D01*
X88225001Y-130799992D02*
G75*
G02*
X87425001Y-131600000I-800056J48D01*
G01*
X208174963Y-169700000D02*
G75*
G02*
X207375001Y-168900000I38J800000D01*
G01*
X139812501Y-112550000D02*
X127212463Y-112550000D01*
X71643751Y-187949992D02*
X71643751Y-175349992D01*
X373975001Y-130799992D02*
G75*
G02*
X373175001Y-131600000I-800100J92D01*
G01*
X79943463Y-160300700D02*
X80968751Y-160300700D01*
X252013485Y-181350492D02*
X252013501Y-181350492D01*
X170085646Y-155500000D02*
X182674963Y-155500000D01*
X96794001Y-160100692D02*
X96794001Y-157270592D01*
D12*
X53635763Y-192750000D02*
X43449963Y-192750000D01*
D10*
X46260646Y-122162500D02*
X58849963Y-122162500D01*
X334524751Y-163299492D02*
G75*
G02*
X334721935Y-163099471I200050J-8D01*
G01*
X189135646Y-155500000D02*
X201724963Y-155500000D01*
X149188501Y-175080392D02*
G75*
G02*
X149393854Y-174880399I200158J-98D01*
G01*
X201725001Y-169700000D02*
X189124963Y-169700000D01*
D12*
X86835787Y-194650000D02*
X76787678Y-194650000D01*
D10*
X85043751Y-188750000D02*
X72443763Y-188750000D01*
X56050001Y-179959301D02*
X56050001Y-183349992D01*
X282687463Y-117400000D02*
G75*
G02*
X283487549Y-118209302I-62J-800200D01*
G01*
X297775001Y-168899992D02*
G75*
G02*
X296975001Y-169700000I-800100J92D01*
G01*
X207287501Y-184149192D02*
X207287501Y-187949992D01*
X289148146Y-117400000D02*
X301737463Y-117400000D01*
X150912501Y-174680392D02*
G75*
G02*
X150712501Y-174880400I-200058J50D01*
G01*
D12*
X282928973Y-193042902D02*
X281614774Y-194357102D01*
D10*
X303975151Y-160100692D02*
G75*
G02*
X303775151Y-160300750I-200050J-8D01*
G01*
X151114462Y-173899240D02*
X154012363Y-173899240D01*
X360585646Y-174550000D02*
X373174963Y-174550000D01*
X154412463Y-174880400D02*
X155738463Y-174880400D01*
X334524751Y-163299492D02*
X334524751Y-169169492D01*
X221662501Y-99149992D02*
G75*
G02*
X222473146Y-98350000I800160J-99D01*
G01*
X149388363Y-187179430D02*
G75*
G02*
X149188500Y-186973980I97J200033D01*
G01*
X336762463Y-112550000D02*
G75*
G02*
X335962501Y-111750000I38J800000D01*
G01*
X81968763Y-169700000D02*
G75*
G02*
X81168751Y-168899992I3J800015D01*
G01*
D12*
X377975001Y-136084692D02*
G75*
G02*
X376941178Y-137084128I-1000000J-8D01*
G01*
X377975001Y-96364652D02*
X377975001Y-136084692D01*
D10*
X87425001Y-131600000D02*
X74824963Y-131600000D01*
X155798146Y-117400000D02*
X168387463Y-117400000D01*
X310724751Y-165100592D02*
G75*
G02*
X310921935Y-164900571I200050J-8D01*
G01*
X339681501Y-138220492D02*
G75*
G02*
X339886855Y-138020466I200200J-108D01*
G01*
X359775001Y-175349992D02*
G75*
G02*
X360585646Y-174549968I800200J-108D01*
G01*
X292212501Y-112550000D02*
X279612463Y-112550000D01*
D12*
X263507452Y-196150000D02*
G75*
G02*
X266105463Y-194650000I2598019J-1499900D01*
G01*
D10*
X291518763Y-188750000D02*
G75*
G02*
X290718801Y-187949992I38J800000D01*
G01*
X111237501Y-131600000D02*
X98637463Y-131600000D01*
X121650001Y-149850000D02*
X121650001Y-137249992D01*
X278812501Y-99150092D02*
G75*
G02*
X279623146Y-98349968I800200J-8D01*
G01*
X72168431Y-160500692D02*
G75*
G02*
X72368431Y-160300700I200035J-43D01*
G01*
X239825001Y-169700000D02*
X227224963Y-169700000D01*
X249662463Y-174880400D02*
X250988463Y-174880400D01*
X193087425Y-184149292D02*
X193087501Y-184149292D01*
X164512501Y-111750000D02*
X164512501Y-99149992D01*
X339886854Y-138020500D02*
X346230963Y-138020500D01*
X103543501Y-169169492D02*
G75*
G02*
X103343501Y-169369500I-200058J50D01*
G01*
X354925001Y-156309301D02*
X354925001Y-168899992D01*
D12*
X159489424Y-90950000D02*
G75*
G02*
X164685578Y-90950000I2598077J-1500000D01*
G01*
D10*
X240625001Y-168899992D02*
G75*
G02*
X239825001Y-169700000I-800056J48D01*
G01*
X193887463Y-131600000D02*
G75*
G02*
X193087501Y-130800000I38J800000D01*
G01*
X246162501Y-174680392D02*
G75*
G02*
X245962501Y-174880400I-200058J50D01*
G01*
X126325001Y-168899992D02*
G75*
G02*
X125525001Y-169700000I-800056J48D01*
G01*
X96261919Y-174550000D02*
X108856263Y-174550000D01*
X72368431Y-160300700D02*
X72793901Y-160300700D01*
X174037501Y-130800000D02*
X174037501Y-118199992D01*
X216900001Y-149850000D02*
X216900001Y-137249992D01*
X112924963Y-169700000D02*
G75*
G02*
X112125001Y-168900000I38J800000D01*
G01*
X359775001Y-111750000D02*
X359775001Y-99150092D01*
X312150001Y-156300092D02*
G75*
G02*
X312960646Y-155499968I800200J-8D01*
G01*
X96794001Y-157270592D02*
G75*
G02*
X96999354Y-157070499I200158J2D01*
G01*
X250988463Y-187179430D02*
X244638363Y-187179430D01*
X103410646Y-136450000D02*
X115999963Y-136450000D01*
X312960646Y-155500000D02*
X325549863Y-155500000D01*
X373975001Y-187949992D02*
G75*
G02*
X373175001Y-188750000I-800100J92D01*
G01*
X201724963Y-155500000D02*
G75*
G02*
X202525001Y-156309301I-98J-800188D01*
G01*
X121650001Y-137249992D02*
G75*
G02*
X122460646Y-136450000I800160J-99D01*
G01*
X125524863Y-155500000D02*
G75*
G02*
X126325000Y-156309301I1J-800188D01*
G01*
X206487501Y-188750000D02*
X193887463Y-188750000D01*
X45450001Y-154612500D02*
X45450001Y-142012492D01*
D12*
X376941177Y-169065845D02*
G75*
G02*
X377975028Y-170065292I33824J-999455D01*
G01*
D10*
X246364462Y-173899240D02*
X249262363Y-173899240D01*
X303349681Y-160300700D02*
X303775151Y-160300700D01*
X338456263Y-141250700D02*
G75*
G02*
X338256301Y-141050692I38J200000D01*
G01*
X150912501Y-174099192D02*
G75*
G02*
X151114462Y-173899240I199963J-1D01*
G01*
X307300001Y-149849992D02*
G75*
G02*
X306500001Y-150650000I-800100J92D01*
G01*
X174837463Y-131600000D02*
G75*
G02*
X174037501Y-130800000I38J800000D01*
G01*
X315681263Y-144049500D02*
X315255963Y-144049500D01*
X251388463Y-181150470D02*
X251813463Y-181150470D01*
X303149681Y-160500692D02*
G75*
G02*
X303349681Y-160300680I200020J-8D01*
G01*
D12*
X229848263Y-192750000D02*
X170519593Y-192750000D01*
D10*
X193087501Y-118199992D02*
G75*
G02*
X193898146Y-117400000I800160J-99D01*
G01*
X373175001Y-112550000D02*
X360574963Y-112550000D01*
X80968763Y-164900600D02*
X79938272Y-164900600D01*
X274050001Y-149850000D02*
X274050001Y-137249992D01*
X178712501Y-111749992D02*
G75*
G02*
X177912501Y-112550000I-800056J48D01*
G01*
X163624963Y-155500000D02*
G75*
G02*
X164425001Y-156309301I-98J-800188D01*
G01*
X80968763Y-164900600D02*
G75*
G02*
X81168751Y-165100592I4J-199984D01*
G01*
X70062463Y-112550000D02*
G75*
G02*
X69262501Y-111750000I38J800000D01*
G01*
X282687501Y-131600000D02*
X270087463Y-131600000D01*
X260573146Y-98350000D02*
X273162463Y-98350000D01*
D12*
X284826863Y-94350000D02*
G75*
G02*
X284124635Y-94062117I38J1000500D01*
G01*
D10*
X373975001Y-111749992D02*
G75*
G02*
X373175001Y-112550000I-800100J92D01*
G01*
X95568763Y-160300700D02*
G75*
G02*
X95368751Y-160100692I3J200015D01*
G01*
X98517901Y-170369800D02*
X98517901Y-169564987D01*
X98648146Y-117400000D02*
X111237463Y-117400000D01*
X325549863Y-155500000D02*
G75*
G02*
X326350049Y-156309302I38J-800200D01*
G01*
X350162501Y-99159301D02*
X350162501Y-111749992D01*
X354125001Y-188750000D02*
X341524963Y-188750000D01*
X303349663Y-163099500D02*
G75*
G02*
X303149726Y-162896331I38J200000D01*
G01*
X208185646Y-155500000D02*
X220774963Y-155500000D01*
X183562501Y-99149992D02*
G75*
G02*
X184373146Y-98350000I800160J-99D01*
G01*
X202525001Y-156309301D02*
X202525001Y-168899992D01*
X305900463Y-170569800D02*
G75*
G02*
X305700501Y-170369792I38J200000D01*
G01*
X81168751Y-160100692D02*
X81168751Y-156299992D01*
X165312463Y-112550000D02*
G75*
G02*
X164512501Y-111750000I38J800000D01*
G01*
X327978091Y-157070500D02*
X334324763Y-157070500D01*
X192200001Y-150650000D02*
X179599963Y-150650000D01*
X317723146Y-98350000D02*
X330312463Y-98350000D01*
X250237501Y-118200092D02*
G75*
G02*
X251048146Y-117400000I800161J0D01*
G01*
X251813463Y-183949230D02*
X251388463Y-183949230D01*
D12*
X55651928Y-194351928D02*
X54339766Y-193039765D01*
D10*
X317406563Y-150319500D02*
X316081363Y-150319500D01*
D12*
X119467363Y-194650000D02*
G75*
G02*
X118756449Y-194353324I-40J1000011D01*
G01*
D10*
X316081363Y-150319500D02*
G75*
G02*
X315881401Y-150119500I38J200000D01*
G01*
X193087501Y-175349992D02*
G75*
G02*
X193898146Y-174550000I800160J-99D01*
G01*
X154412463Y-174880400D02*
G75*
G02*
X154212501Y-174680400I38J200000D01*
G01*
X265324963Y-169700000D02*
G75*
G02*
X264525001Y-168900000I38J800000D01*
G01*
D11*
X341012501Y-92450000D02*
G75*
G02*
X338012501Y-92450000I-1500000J0D01*
G01*
X338012501Y-92450000D02*
G75*
G02*
X341012501Y-92450000I1500000J0D01*
G01*
D10*
X81168751Y-156299992D02*
G75*
G02*
X81974419Y-155500000I800012J0D01*
G01*
X341524963Y-169700000D02*
G75*
G02*
X340725001Y-168900000I38J800000D01*
G01*
X81168751Y-160100692D02*
G75*
G02*
X80968751Y-160300700I-200022J14D01*
G01*
X265335646Y-174550000D02*
X277924963Y-174550000D01*
X56050001Y-183349992D02*
G75*
G02*
X55250001Y-184150000I-800056J48D01*
G01*
X231100001Y-137259301D02*
X231100001Y-149849992D01*
X322631001Y-146050692D02*
X322631001Y-150119492D01*
X245387501Y-130799992D02*
G75*
G02*
X244587501Y-131600000I-800056J48D01*
G01*
X327575263Y-164900600D02*
G75*
G02*
X327775301Y-165100592I38J-200000D01*
G01*
D12*
X186848263Y-92450000D02*
G75*
G02*
X187558590Y-92746089I40J-999997D01*
G01*
D10*
X193087501Y-187950000D02*
X193087501Y-184149292D01*
X264437501Y-130799992D02*
G75*
G02*
X263637501Y-131600000I-800060J52D01*
G01*
X315681263Y-144049500D02*
G75*
G02*
X315881445Y-144244986I38J-200200D01*
G01*
D12*
X282808590Y-92746089D02*
X284124626Y-94062126D01*
X66403863Y-194650000D02*
G75*
G02*
X69001924Y-196150000I8J-2999959D01*
G01*
D10*
X373174963Y-117400000D02*
G75*
G02*
X373975049Y-118209302I-62J-800200D01*
G01*
X170074963Y-169700000D02*
G75*
G02*
X169275001Y-168900000I38J800000D01*
G01*
X341605363Y-151519800D02*
G75*
G02*
X341405401Y-151319800I38J200000D01*
G01*
X252013501Y-181350492D02*
X252013501Y-183749192D01*
X359775001Y-118199992D02*
G75*
G02*
X360585646Y-117399968I800200J-108D01*
G01*
D12*
X329860763Y-192750000D02*
X283628952Y-192750000D01*
D10*
X140700001Y-137249992D02*
G75*
G02*
X141510646Y-136450000I800160J-99D01*
G01*
X85843751Y-175349992D02*
X85843751Y-187949992D01*
X315881401Y-141050692D02*
G75*
G02*
X315681401Y-141250700I-200100J92D01*
G01*
X182675001Y-169700000D02*
X170074963Y-169700000D01*
X340725001Y-187950000D02*
X340725001Y-175349992D01*
X359775001Y-187950000D02*
X359775001Y-175349992D01*
X216900001Y-137249992D02*
G75*
G02*
X217710646Y-136450000I800160J-99D01*
G01*
D12*
X53635763Y-192750000D02*
G75*
G02*
X54339766Y-193039765I40J-999996D01*
G01*
D10*
X148362501Y-181350492D02*
G75*
G02*
X148566563Y-181150470I200158J-98D01*
G01*
X335962501Y-111750000D02*
X335962501Y-99149992D01*
X312150001Y-168900000D02*
X312150001Y-165096087D01*
X279612463Y-112550000D02*
G75*
G02*
X278812501Y-111750000I38J800000D01*
G01*
X121650001Y-175349992D02*
G75*
G02*
X122460646Y-174550000I800160J-99D01*
G01*
X335074963Y-174550000D02*
G75*
G02*
X335875049Y-175359302I-62J-800200D01*
G01*
X188237501Y-130799992D02*
G75*
G02*
X187437501Y-131600000I-800056J48D01*
G01*
X344705801Y-151319792D02*
G75*
G02*
X344505801Y-151519800I-200100J92D01*
G01*
X373174963Y-98350000D02*
G75*
G02*
X373975049Y-99159302I-62J-800200D01*
G01*
X332599551Y-170569800D02*
X329699163Y-170569800D01*
X244643854Y-174880400D02*
X245962501Y-174880400D01*
X326350001Y-168899992D02*
G75*
G02*
X325550001Y-169700000I-800100J92D01*
G01*
X344705801Y-150519592D02*
X344705801Y-151319792D01*
X350162501Y-111749992D02*
G75*
G02*
X349362501Y-112550000I-800100J92D01*
G01*
M02*
