%TF.GenerationSoftware,KiCad,Pcbnew,9.0.2*%
%TF.CreationDate,2025-09-12T12:40:56+09:00*%
%TF.ProjectId,CL70_Plate_6u,434c3730-5f50-46c6-9174-655f36752e6b,rev?*%
%TF.SameCoordinates,Original*%
%TF.FileFunction,Profile,NP*%
%FSLAX46Y46*%
G04 Gerber Fmt 4.6, Leading zero omitted, Abs format (unit mm)*
G04 Created by KiCad (PCBNEW 9.0.2) date 2025-09-12 12:40:56*
%MOMM*%
%LPD*%
G01*
G04 APERTURE LIST*
%TA.AperFunction,Profile*%
%ADD10C,0.300000*%
%TD*%
G04 APERTURE END LIST*
D10*
X230555385Y-94007115D02*
G75*
G02*
X229848286Y-94299961I-707085J707215D01*
G01*
X345400000Y-118159301D02*
X345400000Y-130749992D01*
X163624962Y-155450000D02*
G75*
G02*
X164425048Y-156259302I-62J-800200D01*
G01*
X206487500Y-131550000D02*
X193887462Y-131550000D01*
X246162500Y-174630392D02*
X246162500Y-174049192D01*
X193898145Y-174500000D02*
X206487462Y-174500000D01*
X329860762Y-192700000D02*
G75*
G02*
X330564765Y-192989765I38J-1000000D01*
G01*
X202612500Y-99099992D02*
G75*
G02*
X203423145Y-98299968I800200J-108D01*
G01*
X344599962Y-117350000D02*
G75*
G02*
X345400048Y-118159302I-62J-800200D01*
G01*
X273162462Y-98300000D02*
G75*
G02*
X273962548Y-99109302I-62J-800200D01*
G01*
X316086753Y-137970500D02*
X322430862Y-137970500D01*
X363767885Y-194307115D02*
G75*
G02*
X363060786Y-194599961I-707085J707215D01*
G01*
X278812500Y-111700000D02*
X278812500Y-99099992D01*
X103543500Y-157225197D02*
X103543500Y-160050700D01*
X164512500Y-99099992D02*
G75*
G02*
X165323145Y-98299968I800200J-108D01*
G01*
X341205262Y-150269500D02*
X339881462Y-150269500D01*
X59650000Y-122921801D02*
X59650000Y-135512492D01*
X103399962Y-150600000D02*
G75*
G02*
X102600000Y-149800000I38J800000D01*
G01*
X148988462Y-183899230D02*
X148562362Y-183899230D01*
X72793862Y-163049500D02*
X72368462Y-163049500D01*
X346431000Y-150069492D02*
G75*
G02*
X346231000Y-150269500I-200100J92D01*
G01*
X251188500Y-186929392D02*
G75*
G02*
X250988462Y-187129400I-200000J-8D01*
G01*
X226337500Y-118159301D02*
X226337500Y-130749992D01*
X332599550Y-170519800D02*
X329699162Y-170519800D01*
X207287500Y-130749992D02*
G75*
G02*
X206487500Y-131550000I-800100J92D01*
G01*
X335962500Y-111700000D02*
X335962500Y-99099992D01*
X236760645Y-136400000D02*
X249349962Y-136400000D01*
X111358589Y-92696089D02*
X112674625Y-94012126D01*
X303975150Y-160050692D02*
G75*
G02*
X303775150Y-160250750I-200050J-8D01*
G01*
X377974979Y-170015292D02*
X377975000Y-170015292D01*
X192199962Y-136400000D02*
G75*
G02*
X193000048Y-137209302I-62J-800200D01*
G01*
X111237462Y-117350000D02*
G75*
G02*
X112037548Y-118159302I-62J-800200D01*
G01*
X321675000Y-187900000D02*
X321675000Y-175299992D01*
X85843750Y-187899992D02*
G75*
G02*
X85043750Y-188700050I-800050J-8D01*
G01*
X302537500Y-130749992D02*
G75*
G02*
X301737500Y-131550000I-800100J92D01*
G01*
X312150000Y-160050692D02*
G75*
G02*
X311950000Y-160250700I-200100J92D01*
G01*
X49050000Y-179899992D02*
G75*
G02*
X49860645Y-179099968I800200J-108D01*
G01*
X76989423Y-93075000D02*
G75*
G02*
X82662046Y-91200000I2923077J675000D01*
G01*
X103543500Y-163249492D02*
G75*
G02*
X103738270Y-163049474I200200J-108D01*
G01*
X78018200Y-169519492D02*
G75*
G02*
X78212970Y-169319474I200200J-108D01*
G01*
X89806250Y-150600000D02*
X77206262Y-150600000D01*
X159489423Y-90900000D02*
G75*
G02*
X164685577Y-90900000I2598077J-1500000D01*
G01*
X340725000Y-156249992D02*
G75*
G02*
X341535645Y-155449968I800200J-108D01*
G01*
X251188500Y-175035097D02*
X251188500Y-180903021D01*
X334929862Y-92399991D02*
X334929862Y-92400000D01*
X235862500Y-111699992D02*
G75*
G02*
X235062500Y-112500000I-800100J92D01*
G01*
X192887462Y-183899230D02*
G75*
G02*
X193087470Y-184099292I38J-199970D01*
G01*
X167798286Y-194600000D02*
X144661777Y-194600000D01*
X331200000Y-118149992D02*
G75*
G02*
X332010645Y-117349968I800200J-108D01*
G01*
X246162500Y-174049192D02*
G75*
G02*
X246364461Y-173849210I200000J-8D01*
G01*
X207375000Y-156250092D02*
G75*
G02*
X208185645Y-155449968I800200J-8D01*
G01*
X197850000Y-137200092D02*
G75*
G02*
X198660645Y-136399968I800200J-8D01*
G01*
X96593962Y-164850600D02*
X95565934Y-164850600D01*
X350423076Y-196100000D02*
G75*
G02*
X345226924Y-196100000I-2598076J1500000D01*
G01*
X192200000Y-150600000D02*
X179599962Y-150600000D01*
X231998145Y-117350000D02*
X244587462Y-117350000D01*
X112037500Y-130749992D02*
G75*
G02*
X111237500Y-131550000I-800100J92D01*
G01*
X338456262Y-141200700D02*
X339481500Y-141200700D01*
X136737462Y-131550000D02*
G75*
G02*
X135937500Y-130750000I38J800000D01*
G01*
X343409962Y-94300000D02*
G75*
G02*
X342435638Y-93075014I38J1000000D01*
G01*
X112924962Y-169650000D02*
G75*
G02*
X112125000Y-168850000I38J800000D01*
G01*
X45450000Y-111700000D02*
X45450000Y-99099992D01*
X264525000Y-175299992D02*
G75*
G02*
X265335645Y-174499968I800200J-108D01*
G01*
X239824962Y-155450000D02*
G75*
G02*
X240625048Y-156259302I-62J-800200D01*
G01*
X262533662Y-92400000D02*
X282098262Y-92400000D01*
X289137462Y-131550000D02*
G75*
G02*
X288337500Y-130750000I38J800000D01*
G01*
X226425000Y-156249992D02*
G75*
G02*
X227235645Y-155449968I800200J-108D01*
G01*
X249662462Y-174830400D02*
X250988462Y-174830400D01*
X334524750Y-169119492D02*
G75*
G02*
X334324750Y-169319550I-200050J-8D01*
G01*
X246274962Y-169650000D02*
G75*
G02*
X245475000Y-168850000I38J800000D01*
G01*
X81412500Y-92400000D02*
G75*
G02*
X78412500Y-92400000I-1500000J0D01*
G01*
X78412500Y-92400000D02*
G75*
G02*
X81412500Y-92400000I1500000J0D01*
G01*
X312062500Y-99109301D02*
X312062500Y-111699992D01*
X329299162Y-169319500D02*
G75*
G02*
X329499200Y-169519492I38J-200000D01*
G01*
X258874962Y-155450000D02*
G75*
G02*
X259675048Y-156259302I-62J-800200D01*
G01*
X320905700Y-150469592D02*
X320905700Y-151269792D01*
X211249962Y-136400000D02*
G75*
G02*
X212050048Y-137209302I-62J-800200D01*
G01*
X183475000Y-168849992D02*
G75*
G02*
X182675000Y-169650000I-800100J92D01*
G01*
X163587500Y-92400000D02*
G75*
G02*
X160587500Y-92400000I-1500000J0D01*
G01*
X160587500Y-92400000D02*
G75*
G02*
X163587500Y-92400000I1500000J0D01*
G01*
X235950000Y-137199992D02*
G75*
G02*
X236760645Y-136399968I800200J-108D01*
G01*
X347256500Y-143799492D02*
G75*
G02*
X347056500Y-143999500I-200100J92D01*
G01*
X303775162Y-163049500D02*
G75*
G02*
X303975200Y-163249492I38J-200000D01*
G01*
X249462500Y-174049292D02*
X249462500Y-174630400D01*
X354125000Y-169650000D02*
X341524962Y-169650000D01*
X216812500Y-99109301D02*
X216812500Y-111699992D01*
X212137500Y-118150092D02*
G75*
G02*
X212948145Y-117349968I800200J-8D01*
G01*
X120762362Y-98300000D02*
G75*
G02*
X121562548Y-99109302I38J-800200D01*
G01*
X229848262Y-192700000D02*
X170519592Y-192700000D01*
X154987500Y-130750000D02*
X154987500Y-118149992D01*
X308783732Y-92400000D02*
X334929862Y-92400000D01*
X324056250Y-149799992D02*
X324056250Y-146000592D01*
X43450012Y-94300000D02*
X76015062Y-94300000D01*
X69262500Y-99099992D02*
G75*
G02*
X70073145Y-98299968I800200J-108D01*
G01*
X108173145Y-98300000D02*
X120762362Y-98300000D01*
X203423145Y-98300000D02*
X216012462Y-98300000D01*
X251188500Y-184099192D02*
X251188500Y-186929392D01*
X346231000Y-150269500D02*
X344900571Y-150269500D01*
X327975262Y-169319500D02*
G75*
G02*
X327775300Y-169119492I38J200000D01*
G01*
X303149680Y-160450692D02*
G75*
G02*
X303349680Y-160250680I200020J-8D01*
G01*
X108856262Y-174500000D02*
G75*
G02*
X109656300Y-175299992I38J-800000D01*
G01*
X131175000Y-168850000D02*
X131175000Y-156249992D01*
X151024962Y-169650000D02*
G75*
G02*
X150225000Y-168850000I38J800000D01*
G01*
X151035645Y-155450000D02*
X163624962Y-155450000D01*
X167283662Y-92400000D02*
G75*
G02*
X164685612Y-90899979I38J3000000D01*
G01*
X377975000Y-190699992D02*
G75*
G02*
X375975000Y-192700000I-2000100J92D01*
G01*
X308799450Y-170519800D02*
X305900462Y-170519800D01*
X149188424Y-184099292D02*
X149188500Y-184099292D01*
X327575262Y-164850600D02*
X326544771Y-164850600D01*
X277925000Y-169650000D02*
X265324962Y-169650000D01*
X203412462Y-112500000D02*
G75*
G02*
X202612500Y-111700000I38J800000D01*
G01*
X227235645Y-155450000D02*
X239824962Y-155450000D01*
X196962500Y-112500000D02*
X184362462Y-112500000D01*
X46249962Y-112500000D02*
G75*
G02*
X45450000Y-111700000I38J800000D01*
G01*
X283575000Y-156249992D02*
G75*
G02*
X284385645Y-155449968I800200J-108D01*
G01*
X56050000Y-167221801D02*
X56050000Y-170612492D01*
X339881462Y-150269500D02*
G75*
G02*
X339681500Y-150069500I38J200000D01*
G01*
X311262362Y-98300000D02*
G75*
G02*
X312062548Y-99109302I38J-800200D01*
G01*
X148988462Y-183899230D02*
G75*
G02*
X149188470Y-184099292I38J-199970D01*
G01*
X341405400Y-151269800D02*
X341405400Y-150464987D01*
X288250000Y-137209301D02*
X288250000Y-149799992D01*
X345400000Y-130749992D02*
G75*
G02*
X344600000Y-131550000I-800100J92D01*
G01*
X249262362Y-173849240D02*
G75*
G02*
X249462460Y-174049292I138J-199960D01*
G01*
X317406562Y-150269500D02*
X316081362Y-150269500D01*
X174848145Y-117350000D02*
X187437462Y-117350000D01*
X77211918Y-136400000D02*
X89806262Y-136400000D01*
X96794000Y-169119500D02*
X96794000Y-165046087D01*
X330312462Y-98300000D02*
G75*
G02*
X331112548Y-99109302I-62J-800200D01*
G01*
X76406250Y-149799992D02*
X76406250Y-137199992D01*
X146262462Y-112500000D02*
G75*
G02*
X145462500Y-111700000I38J800000D01*
G01*
X118756448Y-194303324D02*
X117441507Y-192988382D01*
X116887500Y-130750000D02*
X116887500Y-118149992D01*
X274050000Y-149800000D02*
X274050000Y-137199992D01*
X135049962Y-136400000D02*
G75*
G02*
X135850048Y-137209302I-62J-800200D01*
G01*
X78018200Y-170319792D02*
G75*
G02*
X77818200Y-170519800I-200100J92D01*
G01*
X122449962Y-188700000D02*
G75*
G02*
X121650000Y-187900000I38J800000D01*
G01*
X116738862Y-192700000D02*
G75*
G02*
X117441490Y-192988400I-162J-1000500D01*
G01*
X134269462Y-194600000D02*
G75*
G02*
X136867494Y-196100031I-62J-3000000D01*
G01*
X98637462Y-131550000D02*
G75*
G02*
X97837500Y-130750000I38J800000D01*
G01*
X182674962Y-155450000D02*
G75*
G02*
X183475048Y-156259302I-62J-800200D01*
G01*
X315881400Y-150069500D02*
X315881400Y-144194987D01*
X251188500Y-184099192D02*
G75*
G02*
X251388462Y-183899200I200000J-8D01*
G01*
X373975000Y-130749992D02*
G75*
G02*
X373175000Y-131550000I-800100J92D01*
G01*
X58850000Y-136312500D02*
X46249962Y-136312500D01*
X89112462Y-112500000D02*
G75*
G02*
X88312500Y-111700000I38J800000D01*
G01*
X46260645Y-141162500D02*
X58849962Y-141162500D01*
X306755385Y-94007115D02*
X308069684Y-92692815D01*
X335150262Y-160250700D02*
G75*
G02*
X335350300Y-160450692I38J-200000D01*
G01*
X373175000Y-112500000D02*
X360574962Y-112500000D01*
X49050000Y-176956292D02*
X49050000Y-173556392D01*
X74835645Y-117350000D02*
X87424962Y-117350000D01*
X159489423Y-90900000D02*
G75*
G02*
X156891347Y-92399991I-2598123J1500100D01*
G01*
X102512500Y-111699992D02*
G75*
G02*
X101712500Y-112500000I-800100J92D01*
G01*
X305700440Y-170319792D02*
X305700440Y-169517212D01*
X55250000Y-171412500D02*
X49849962Y-171412500D01*
X85043762Y-174500000D02*
G75*
G02*
X85843800Y-175299992I38J-800000D01*
G01*
X131974962Y-169650000D02*
G75*
G02*
X131175000Y-168850000I38J800000D01*
G01*
X341524962Y-169650000D02*
G75*
G02*
X340725000Y-168850000I38J800000D01*
G01*
X45450000Y-141962492D02*
G75*
G02*
X46260645Y-141162468I800200J-108D01*
G01*
X265324962Y-188700000D02*
G75*
G02*
X264525000Y-187900000I38J800000D01*
G01*
X268399962Y-136400000D02*
G75*
G02*
X269200048Y-137209302I-62J-800200D01*
G01*
X338256250Y-149799992D02*
G75*
G02*
X337456250Y-150600050I-800050J-8D01*
G01*
X43449962Y-192700000D02*
G75*
G02*
X41450000Y-190700000I38J2000000D01*
G01*
X158862462Y-98300000D02*
G75*
G02*
X159662548Y-99109302I-62J-800200D01*
G01*
X259762500Y-111700000D02*
X259762500Y-99099992D01*
X254912500Y-99109301D02*
X254912500Y-111699992D01*
X297862500Y-111700000D02*
X297862500Y-99099992D01*
X339481362Y-145800600D02*
G75*
G02*
X339681544Y-145996086I38J-200200D01*
G01*
X287449962Y-136400000D02*
G75*
G02*
X288250048Y-137209302I-62J-800200D01*
G01*
X316912500Y-99099992D02*
G75*
G02*
X317723145Y-98299968I800200J-108D01*
G01*
X154900000Y-137209301D02*
X154900000Y-149799992D01*
X72993900Y-160050692D02*
X72993900Y-157220592D01*
X140700000Y-149800000D02*
X140700000Y-137199992D01*
X193887462Y-188700000D02*
G75*
G02*
X193087500Y-187900000I38J800000D01*
G01*
X145375000Y-168849992D02*
G75*
G02*
X144575000Y-169650000I-800100J92D01*
G01*
X249462414Y-174049292D02*
X249462500Y-174049292D01*
X320905700Y-150469592D02*
G75*
G02*
X321100470Y-150269474I200200J-8D01*
G01*
X335350250Y-160450692D02*
X335350250Y-162849492D01*
X332010645Y-117350000D02*
X344599962Y-117350000D01*
X255810645Y-136400000D02*
X268399962Y-136400000D01*
X283487500Y-118159301D02*
X283487500Y-130749992D01*
X149188500Y-180900492D02*
G75*
G02*
X148988500Y-181100500I-200000J-8D01*
G01*
X85043750Y-188700000D02*
X72443762Y-188700000D01*
X174037500Y-130750000D02*
X174037500Y-118149992D01*
X278725000Y-187899992D02*
G75*
G02*
X277925000Y-188700000I-800100J92D01*
G01*
X287450000Y-150600000D02*
X274849962Y-150600000D01*
X277924962Y-174500000D02*
G75*
G02*
X278725048Y-175309302I-62J-800200D01*
G01*
X339886853Y-137970500D02*
X346230962Y-137970500D01*
X86835786Y-194600000D02*
X76787677Y-194600000D01*
X88225000Y-118159301D02*
X88225000Y-130749992D01*
X264437500Y-118159301D02*
X264437500Y-130749992D01*
X130287500Y-131550000D02*
X117687462Y-131550000D01*
X235062500Y-112500000D02*
X222462462Y-112500000D01*
X376941176Y-169015845D02*
G75*
G02*
X376941176Y-137034155I-541176J15990845D01*
G01*
X184362462Y-112500000D02*
G75*
G02*
X183562500Y-111700000I38J800000D01*
G01*
X79543500Y-169319500D02*
X78212971Y-169319500D01*
X55250000Y-184100000D02*
X49849962Y-184100000D01*
X322631000Y-138175197D02*
X322631000Y-141000700D01*
X334524750Y-157220492D02*
X334524750Y-160050692D01*
X346431000Y-144199592D02*
X346431000Y-150069492D01*
X103743462Y-160250700D02*
X104168862Y-160250700D01*
X96256262Y-188700000D02*
G75*
G02*
X95456300Y-187899992I38J800000D01*
G01*
X58849962Y-122112500D02*
G75*
G02*
X59650048Y-122921802I-62J-800200D01*
G01*
X254112462Y-98300000D02*
G75*
G02*
X254912548Y-99109302I-62J-800200D01*
G01*
X95456250Y-187899992D02*
X95456250Y-175299992D01*
X341012500Y-92400000D02*
G75*
G02*
X338012500Y-92400000I-1500000J0D01*
G01*
X338012500Y-92400000D02*
G75*
G02*
X341012500Y-92400000I1500000J0D01*
G01*
X311949962Y-164850600D02*
G75*
G02*
X312150045Y-165046086I-62J-200200D01*
G01*
X177912362Y-98300000D02*
G75*
G02*
X178712548Y-99109302I38J-800200D01*
G01*
X121650000Y-175299992D02*
G75*
G02*
X122460645Y-174499968I800200J-108D01*
G01*
X208174962Y-169650000D02*
G75*
G02*
X207375000Y-168850000I38J800000D01*
G01*
X84495062Y-92400000D02*
X110648262Y-92400000D01*
X135850000Y-149799992D02*
G75*
G02*
X135050000Y-150600000I-800100J92D01*
G01*
X72993900Y-169119500D02*
X72993900Y-163244987D01*
X373975000Y-111699992D02*
G75*
G02*
X373175000Y-112500000I-800100J92D01*
G01*
X305900462Y-170519800D02*
G75*
G02*
X305700500Y-170319792I38J200000D01*
G01*
X193087500Y-118149992D02*
G75*
G02*
X193898145Y-117349968I800200J-108D01*
G01*
X323856262Y-145800600D02*
G75*
G02*
X324056300Y-146000592I38J-200000D01*
G01*
X103343362Y-157020500D02*
G75*
G02*
X103543549Y-157225198I38J-200200D01*
G01*
X101818300Y-169519492D02*
G75*
G02*
X102013070Y-169319474I200200J-108D01*
G01*
X273962500Y-111699992D02*
G75*
G02*
X273162500Y-112500000I-800100J92D01*
G01*
X46249962Y-155362500D02*
G75*
G02*
X45450000Y-154562500I38J800000D01*
G01*
X121562500Y-99109301D02*
X121562500Y-111699992D01*
X72993900Y-157220592D02*
G75*
G02*
X73199254Y-157020466I200200J-8D01*
G01*
X136748145Y-117350000D02*
X149337462Y-117350000D01*
X373174862Y-98300000D02*
G75*
G02*
X373975048Y-99109302I38J-800200D01*
G01*
X255000000Y-137199992D02*
G75*
G02*
X255810645Y-136399968I800200J-108D01*
G01*
X196962362Y-98300000D02*
G75*
G02*
X197762548Y-99109302I38J-800200D01*
G01*
X127223145Y-98300000D02*
X139812462Y-98300000D01*
X322430862Y-137970500D02*
G75*
G02*
X322631049Y-138175198I38J-200200D01*
G01*
X325549862Y-155450000D02*
G75*
G02*
X326350048Y-156259302I38J-800200D01*
G01*
X298673145Y-98300000D02*
X311262362Y-98300000D01*
X343409962Y-94300000D02*
X375974862Y-94300000D01*
X216900000Y-149800000D02*
X216900000Y-137199992D01*
X284385645Y-155450000D02*
X296974962Y-155450000D01*
X112037500Y-118159301D02*
X112037500Y-130749992D01*
X326350000Y-165050592D02*
G75*
G02*
X326544770Y-164850574I200200J-108D01*
G01*
X324056250Y-137199992D02*
G75*
G02*
X324861918Y-136399970I800050J-8D01*
G01*
X169275000Y-156249992D02*
G75*
G02*
X170085645Y-155449968I800200J-108D01*
G01*
X197762500Y-99109301D02*
X197762500Y-111699992D01*
X303975150Y-169119492D02*
X303975150Y-163249492D01*
X87424962Y-117350000D02*
G75*
G02*
X88225048Y-118159302I-62J-800200D01*
G01*
X217699962Y-150600000D02*
G75*
G02*
X216900000Y-149800000I38J800000D01*
G01*
X160560645Y-136400000D02*
X173149962Y-136400000D01*
X336762462Y-112500000D02*
G75*
G02*
X335962500Y-111700000I38J800000D01*
G01*
X231100000Y-137209301D02*
X231100000Y-149799992D01*
X251388462Y-181100470D02*
X251813462Y-181100470D01*
X122460645Y-136400000D02*
X135049962Y-136400000D01*
X95568762Y-160250700D02*
X96594000Y-160250700D01*
X354925000Y-168849992D02*
G75*
G02*
X354125000Y-169650000I-800100J92D01*
G01*
X274050000Y-137199992D02*
G75*
G02*
X274860645Y-136399968I800200J-108D01*
G01*
X235062362Y-98300000D02*
G75*
G02*
X235862548Y-99109302I38J-800200D01*
G01*
X240712500Y-99099992D02*
G75*
G02*
X241523145Y-98299968I800200J-108D01*
G01*
X74198076Y-196100000D02*
G75*
G02*
X69001924Y-196100000I-2598076J1500000D01*
G01*
X245387500Y-130749992D02*
G75*
G02*
X244587500Y-131550000I-800100J92D01*
G01*
X231187500Y-130750000D02*
X231187500Y-118149992D01*
X246162500Y-174630392D02*
G75*
G02*
X245962500Y-174830400I-200100J92D01*
G01*
X278725000Y-156259301D02*
X278725000Y-168849992D01*
X310924762Y-160250700D02*
G75*
G02*
X310724800Y-160050692I38J200000D01*
G01*
X159662500Y-111699992D02*
G75*
G02*
X158862500Y-112500000I-800100J92D01*
G01*
X59650000Y-141971801D02*
X59650000Y-154562492D01*
X58850000Y-155362500D02*
X46249962Y-155362500D01*
X312960645Y-155450000D02*
X325549862Y-155450000D01*
X135850000Y-187899992D02*
G75*
G02*
X135050000Y-188700000I-800100J92D01*
G01*
X56050000Y-176956392D02*
G75*
G02*
X55238892Y-177756223I-800000J92D01*
G01*
X81974418Y-155450000D02*
X94568762Y-155450000D01*
X56050000Y-173556292D02*
X56050000Y-176956392D01*
X46260645Y-122112500D02*
X58849962Y-122112500D01*
X88225000Y-130749992D02*
G75*
G02*
X87425000Y-131550000I-800100J92D01*
G01*
X269200000Y-137209301D02*
X269200000Y-149799992D01*
X193887462Y-131550000D02*
G75*
G02*
X193087500Y-130750000I38J800000D01*
G01*
X149337462Y-117350000D02*
G75*
G02*
X150137548Y-118159302I-62J-800200D01*
G01*
X72368430Y-160250700D02*
X72793900Y-160250700D01*
X274849962Y-150600000D02*
G75*
G02*
X274050000Y-149800000I38J800000D01*
G01*
X73193862Y-169319500D02*
G75*
G02*
X72993900Y-169119500I38J200000D01*
G01*
X154212414Y-174049292D02*
X154212500Y-174049292D01*
X220775000Y-169650000D02*
X208174962Y-169650000D01*
X95368750Y-165050592D02*
X95368750Y-168849992D01*
X373975000Y-175309301D02*
X373975000Y-187899992D01*
X311949962Y-164850600D02*
X310921934Y-164850600D01*
X72168430Y-162849492D02*
X72168430Y-160450692D01*
X360574962Y-131550000D02*
G75*
G02*
X359775000Y-130750000I38J800000D01*
G01*
X373174962Y-174500000D02*
G75*
G02*
X373975048Y-175309302I-62J-800200D01*
G01*
X58850000Y-112500000D02*
X46249962Y-112500000D01*
X84495062Y-92400000D02*
G75*
G02*
X82662066Y-91199991I38J2000000D01*
G01*
X188237500Y-118159301D02*
X188237500Y-130749992D01*
X125525000Y-169650000D02*
X112924962Y-169650000D01*
X315055930Y-143799492D02*
X315055930Y-141400692D01*
X141510645Y-136400000D02*
X154099862Y-136400000D01*
X226425000Y-168850000D02*
X226425000Y-156249992D01*
X338256250Y-146000592D02*
G75*
G02*
X338453434Y-145800571I200050J-8D01*
G01*
X317723145Y-98300000D02*
X330312462Y-98300000D01*
X360585645Y-174500000D02*
X373174962Y-174500000D01*
X327775250Y-157220492D02*
G75*
G02*
X327978090Y-157020469I200050J-8D01*
G01*
X207287500Y-175309301D02*
X207287500Y-179100941D01*
X278725000Y-175309301D02*
X278725000Y-187899992D01*
X308069684Y-92692815D02*
G75*
G02*
X308783732Y-92400017I706916J-706885D01*
G01*
X74519062Y-169319500D02*
X73193862Y-169319500D01*
X193000000Y-137209301D02*
X193000000Y-149799992D01*
X297775000Y-168849992D02*
G75*
G02*
X296975000Y-169650000I-800100J92D01*
G01*
X303775162Y-163049500D02*
X303349662Y-163049500D01*
X72443762Y-188700000D02*
G75*
G02*
X71643800Y-187899992I38J800000D01*
G01*
X244438500Y-179099392D02*
X244438500Y-175030392D01*
X244438500Y-175030392D02*
G75*
G02*
X244643854Y-174830366I200200J-108D01*
G01*
X207287500Y-187899992D02*
G75*
G02*
X206487500Y-188700000I-800100J92D01*
G01*
X322431000Y-150269500D02*
X321100471Y-150269500D01*
X164425000Y-156259301D02*
X164425000Y-168849992D01*
X293100000Y-137199992D02*
G75*
G02*
X293910645Y-136399968I800200J-108D01*
G01*
X315055930Y-141400692D02*
G75*
G02*
X315255930Y-141200630I200070J-8D01*
G01*
X79743500Y-165050592D02*
X79743500Y-169119492D01*
X212937462Y-131550000D02*
G75*
G02*
X212137500Y-130750000I38J800000D01*
G01*
X174037500Y-118149992D02*
G75*
G02*
X174848145Y-117349968I800200J-108D01*
G01*
X282928972Y-192992902D02*
X281614773Y-194307102D01*
X350162500Y-99109301D02*
X350162500Y-111699992D01*
X173950000Y-137209301D02*
X173950000Y-149799992D01*
X80968762Y-164850600D02*
G75*
G02*
X81168800Y-165050592I38J-200000D01*
G01*
X282928972Y-192992902D02*
G75*
G02*
X283629091Y-192700016I707128J-707098D01*
G01*
X244238462Y-183899230D02*
G75*
G02*
X244438470Y-184099292I38J-199970D01*
G01*
X97837500Y-118149992D02*
G75*
G02*
X98648145Y-117349968I800200J-108D01*
G01*
X135850000Y-175309301D02*
X135850000Y-187899992D01*
X102512500Y-99109301D02*
X102512500Y-111699992D01*
X263637500Y-131550000D02*
X251037462Y-131550000D01*
X95568762Y-160250700D02*
G75*
G02*
X95368800Y-160050692I38J200000D01*
G01*
X188237500Y-130749992D02*
G75*
G02*
X187437500Y-131550000I-800100J92D01*
G01*
X96993962Y-169319500D02*
G75*
G02*
X96794000Y-169119500I38J200000D01*
G01*
X344705800Y-150469592D02*
X344705800Y-151269792D01*
X150137500Y-130749992D02*
G75*
G02*
X149337500Y-131550000I-800100J92D01*
G01*
X260573145Y-98300000D02*
X273162462Y-98300000D01*
X192887462Y-183899230D02*
X156138462Y-183899230D01*
X85843750Y-175299992D02*
X85843750Y-187899992D01*
X96261918Y-174500000D02*
X108856262Y-174500000D01*
X201724962Y-155450000D02*
G75*
G02*
X202525048Y-156259302I-62J-800200D01*
G01*
X304918750Y-187899992D02*
G75*
G02*
X304118750Y-188700050I-800050J-8D01*
G01*
X177912500Y-112500000D02*
X165312462Y-112500000D01*
X104169000Y-163049500D02*
X103738271Y-163049500D01*
X327775250Y-160050692D02*
X327775250Y-157220492D01*
X58849962Y-141162500D02*
G75*
G02*
X59650048Y-141971802I-62J-800200D01*
G01*
X263637462Y-117350000D02*
G75*
G02*
X264437548Y-118159302I-62J-800200D01*
G01*
X244438500Y-186923980D02*
X244438500Y-184099292D01*
X76015062Y-94299992D02*
X76015062Y-94300000D01*
X154987500Y-118149992D02*
G75*
G02*
X155798145Y-117349968I800200J-108D01*
G01*
X154100000Y-150600000D02*
X141499962Y-150600000D01*
X277925000Y-188700000D02*
X265324962Y-188700000D01*
X293899962Y-150600000D02*
G75*
G02*
X293100000Y-149800000I38J800000D01*
G01*
X101712500Y-112500000D02*
X89112462Y-112500000D01*
X207287500Y-184099192D02*
X207287500Y-187899992D01*
X126412500Y-111700000D02*
X126412500Y-99099992D01*
X89806262Y-136400000D02*
G75*
G02*
X90606300Y-137199992I38J-800000D01*
G01*
X241523145Y-98300000D02*
X254112462Y-98300000D01*
X221575000Y-156259301D02*
X221575000Y-168849992D01*
X347056462Y-141200700D02*
G75*
G02*
X347256549Y-141405398I-62J-200200D01*
G01*
X373975000Y-187899992D02*
G75*
G02*
X373175000Y-188700000I-800100J92D01*
G01*
X326350000Y-156259301D02*
X326350000Y-160050700D01*
X344505800Y-151469800D02*
X341605362Y-151469800D01*
X322631000Y-146000692D02*
X322631000Y-150069492D01*
X315255930Y-141200700D02*
X315681400Y-141200700D01*
X303975150Y-157220492D02*
G75*
G02*
X304177990Y-157020469I200050J-8D01*
G01*
X231187500Y-118149992D02*
G75*
G02*
X231998145Y-117349968I800200J-108D01*
G01*
X46249962Y-136312500D02*
G75*
G02*
X45450000Y-135512500I38J800000D01*
G01*
X251388462Y-181100470D02*
G75*
G02*
X251188546Y-180903020I38J199970D01*
G01*
X154412462Y-174830400D02*
G75*
G02*
X154212500Y-174630400I38J200000D01*
G01*
X155938500Y-175035097D02*
X155938500Y-179100941D01*
X312150000Y-168850000D02*
X312150000Y-165046087D01*
X315681262Y-143999500D02*
G75*
G02*
X315881444Y-144194986I38J-200200D01*
G01*
X221662500Y-99099992D02*
G75*
G02*
X222473145Y-98299968I800200J-108D01*
G01*
X349325000Y-194600000D02*
G75*
G02*
X346325000Y-194600000I-1500000J0D01*
G01*
X346325000Y-194600000D02*
G75*
G02*
X349325000Y-194600000I1500000J0D01*
G01*
X301737500Y-131550000D02*
X289137462Y-131550000D01*
X281614773Y-194307102D02*
G75*
G02*
X280907662Y-194599973I-707073J707102D01*
G01*
X72168430Y-160450692D02*
G75*
G02*
X72368430Y-160250630I200070J-8D01*
G01*
X81168750Y-156249992D02*
G75*
G02*
X81974418Y-155449970I800050J-8D01*
G01*
X323856262Y-145800600D02*
X322825771Y-145800600D01*
X111237500Y-131550000D02*
X98637462Y-131550000D01*
X259675000Y-156259301D02*
X259675000Y-168849992D01*
X249350000Y-150600000D02*
X236749962Y-150600000D01*
X344705800Y-151269792D02*
G75*
G02*
X344505800Y-151469800I-200100J92D01*
G01*
X341524962Y-188700000D02*
G75*
G02*
X340725000Y-187900000I38J800000D01*
G01*
X322830962Y-141200700D02*
G75*
G02*
X322631000Y-141000700I38J200000D01*
G01*
X69262500Y-111700000D02*
X69262500Y-99099992D01*
X174837462Y-131550000D02*
G75*
G02*
X174037500Y-130750000I38J800000D01*
G01*
X329499150Y-170319792D02*
X329499150Y-169519492D01*
X95368750Y-168849992D02*
G75*
G02*
X94568750Y-169650050I-800050J-8D01*
G01*
X269287500Y-118150092D02*
G75*
G02*
X270098145Y-117349968I800200J-8D01*
G01*
X329299162Y-169319500D02*
X327975262Y-169319500D01*
X283487500Y-130749992D02*
G75*
G02*
X282687500Y-131550000I-800100J92D01*
G01*
X229848262Y-192700000D02*
G75*
G02*
X230552265Y-192989765I38J-1000000D01*
G01*
X354124962Y-155450000D02*
G75*
G02*
X354925048Y-156259302I-62J-800200D01*
G01*
X303349662Y-163049500D02*
G75*
G02*
X303149725Y-162846331I38J200000D01*
G01*
X327775250Y-169119492D02*
X327775250Y-165050592D01*
X339681500Y-138170492D02*
G75*
G02*
X339886854Y-137970466I200200J-108D01*
G01*
X117687462Y-131550000D02*
G75*
G02*
X116887500Y-130750000I38J800000D01*
G01*
X329860762Y-192700000D02*
X283629091Y-192700000D01*
X244438424Y-184099292D02*
X244438500Y-184099292D01*
X244587500Y-131550000D02*
X231987462Y-131550000D01*
X288337500Y-118149992D02*
G75*
G02*
X289148145Y-117349968I800200J-108D01*
G01*
X81168750Y-160050692D02*
G75*
G02*
X80968750Y-160250750I-200050J-8D01*
G01*
X317606690Y-151269800D02*
X317606690Y-150464572D01*
X346630962Y-141200700D02*
G75*
G02*
X346431000Y-141000700I38J200000D01*
G01*
X245387500Y-118159301D02*
X245387500Y-130749992D01*
X303349680Y-160250700D02*
X303775150Y-160250700D01*
X59650000Y-135512492D02*
G75*
G02*
X58850000Y-136312500I-800100J92D01*
G01*
X338256250Y-137199992D02*
X338256250Y-141000692D01*
X255713262Y-194600000D02*
G75*
G02*
X258311282Y-196100009I-62J-3000000D01*
G01*
X322485645Y-174500000D02*
X335074962Y-174500000D01*
X107362500Y-111700000D02*
X107362500Y-99099992D01*
X148362500Y-183693780D02*
X148362500Y-181300492D01*
X151114461Y-173849240D02*
X154012362Y-173849240D01*
X49849962Y-171412500D02*
G75*
G02*
X49050000Y-170612500I38J800000D01*
G01*
X79543362Y-157020500D02*
G75*
G02*
X79743549Y-157225198I38J-200200D01*
G01*
X335075000Y-188700000D02*
X322474962Y-188700000D01*
X316081362Y-150269500D02*
G75*
G02*
X315881400Y-150069500I38J200000D01*
G01*
X126412500Y-99099992D02*
G75*
G02*
X127223145Y-98299968I800200J-108D01*
G01*
X155798145Y-117350000D02*
X168387462Y-117350000D01*
X282808589Y-92696089D02*
X284124625Y-94012126D01*
X308999450Y-169519492D02*
X308999450Y-170319792D01*
X241512462Y-112500000D02*
G75*
G02*
X240712500Y-111700000I38J800000D01*
G01*
X324856262Y-150600000D02*
G75*
G02*
X324056300Y-149799992I38J800000D01*
G01*
X142063701Y-196100000D02*
G75*
G02*
X144661777Y-194599980I2598099J-1500000D01*
G01*
X207375000Y-168850000D02*
X207375000Y-156250092D01*
X108162462Y-112500000D02*
G75*
G02*
X107362500Y-111700000I38J800000D01*
G01*
X290718750Y-187899992D02*
X290718750Y-175299992D01*
X55238892Y-177756250D02*
X49849962Y-177756250D01*
X76989423Y-93075000D02*
G75*
G02*
X76015062Y-94299965I-974323J-225000D01*
G01*
X169819684Y-192992815D02*
G75*
G02*
X170519592Y-192700016I706916J-706885D01*
G01*
X308198145Y-117350000D02*
X320787462Y-117350000D01*
X77206262Y-150600000D02*
G75*
G02*
X76406300Y-149799992I38J800000D01*
G01*
X82662462Y-98300000D02*
G75*
G02*
X83462548Y-99109302I-62J-800200D01*
G01*
X140612500Y-99109301D02*
X140612500Y-111699992D01*
X149188500Y-175030392D02*
G75*
G02*
X149393854Y-174830366I200200J-108D01*
G01*
X373174962Y-117350000D02*
G75*
G02*
X373975048Y-118159302I-62J-800200D01*
G01*
X95368750Y-165050592D02*
G75*
G02*
X95565934Y-164850571I200050J-8D01*
G01*
X98717862Y-170519800D02*
G75*
G02*
X98517900Y-170319800I38J200000D01*
G01*
X359775000Y-99099992D02*
G75*
G02*
X360585645Y-98299968I800200J-108D01*
G01*
X312062500Y-111699992D02*
G75*
G02*
X311262500Y-112500000I-800100J92D01*
G01*
X55249962Y-179100000D02*
G75*
G02*
X56050048Y-179909302I-62J-800200D01*
G01*
X146273145Y-98300000D02*
X158862462Y-98300000D01*
X321675000Y-175299992D02*
G75*
G02*
X322485645Y-174499968I800200J-108D01*
G01*
X265324962Y-169650000D02*
G75*
G02*
X264525000Y-168850000I38J800000D01*
G01*
X354124962Y-174500000D02*
G75*
G02*
X354925048Y-175309302I-62J-800200D01*
G01*
X103743462Y-160250700D02*
G75*
G02*
X103543500Y-160050700I38J200000D01*
G01*
X354925000Y-156259301D02*
X354925000Y-168849992D01*
X90606250Y-149799992D02*
G75*
G02*
X89806250Y-150600050I-800050J-8D01*
G01*
X346431000Y-144199592D02*
G75*
G02*
X346625770Y-143999474I200200J-8D01*
G01*
X45450000Y-135512500D02*
X45450000Y-122912492D01*
X140612500Y-111699992D02*
G75*
G02*
X139812500Y-112500000I-800100J92D01*
G01*
X55651927Y-194301928D02*
X54339765Y-192989765D01*
X320705700Y-151469800D02*
X317806662Y-151469800D01*
X103343500Y-169319500D02*
X102013071Y-169319500D01*
X332799550Y-169519492D02*
G75*
G02*
X332996734Y-169319471I200050J-8D01*
G01*
X170074962Y-169650000D02*
G75*
G02*
X169275000Y-168850000I38J800000D01*
G01*
X222462462Y-112500000D02*
G75*
G02*
X221662500Y-111700000I38J800000D01*
G01*
X212050000Y-137209301D02*
X212050000Y-149799992D01*
X45450000Y-122912492D02*
G75*
G02*
X46260645Y-122112468I800200J-108D01*
G01*
X269200000Y-149799992D02*
G75*
G02*
X268400000Y-150600000I-800100J92D01*
G01*
X149393853Y-174830400D02*
X150712500Y-174830400D01*
X135850000Y-137209301D02*
X135850000Y-149799992D01*
X207287500Y-184099192D02*
G75*
G02*
X207487462Y-183899200I200000J-8D01*
G01*
X49860645Y-166412500D02*
X55249962Y-166412500D01*
X135937500Y-118149992D02*
G75*
G02*
X136748145Y-117349968I800200J-108D01*
G01*
X135305385Y-94007115D02*
G75*
G02*
X134598286Y-94299961I-707085J707215D01*
G01*
X246285645Y-155450000D02*
X258874962Y-155450000D01*
X79743500Y-157225197D02*
X79743500Y-160050700D01*
X289148145Y-117350000D02*
X301737462Y-117350000D01*
X296975000Y-169650000D02*
X284374962Y-169650000D01*
X82662500Y-112500000D02*
X70062462Y-112500000D01*
X240625000Y-168849992D02*
G75*
G02*
X239825000Y-169650000I-800100J92D01*
G01*
X360585645Y-117350000D02*
X373174962Y-117350000D01*
X291524418Y-174500000D02*
X304118762Y-174500000D01*
X193000000Y-149799992D02*
G75*
G02*
X192200000Y-150600000I-800100J92D01*
G01*
X49050000Y-173556392D02*
G75*
G02*
X49850062Y-172756300I800000J92D01*
G01*
X359775000Y-175299992D02*
G75*
G02*
X360585645Y-174499968I800200J-108D01*
G01*
X226337500Y-130749992D02*
G75*
G02*
X225537500Y-131550000I-800100J92D01*
G01*
X324861918Y-136400000D02*
X337456262Y-136400000D01*
X264437500Y-130749992D02*
G75*
G02*
X263637500Y-131550000I-800100J92D01*
G01*
X251813462Y-181100470D02*
G75*
G02*
X252013530Y-181300492I38J-200030D01*
G01*
X341605362Y-151469800D02*
G75*
G02*
X341405400Y-151269800I38J200000D01*
G01*
X167283662Y-92400000D02*
X186848262Y-92400000D01*
X340725000Y-168850000D02*
X340725000Y-156249992D01*
X208185645Y-155450000D02*
X220774962Y-155450000D01*
X187437462Y-117350000D02*
G75*
G02*
X188237548Y-118159302I-62J-800200D01*
G01*
X71643750Y-175299992D02*
G75*
G02*
X72449418Y-174499970I800050J-8D01*
G01*
X250988462Y-187129430D02*
X244638362Y-187129430D01*
X288250000Y-149799992D02*
G75*
G02*
X287450000Y-150600000I-800100J92D01*
G01*
X94568750Y-169650000D02*
X81968762Y-169650000D01*
X96593962Y-164850600D02*
G75*
G02*
X96794045Y-165046086I-62J-200200D01*
G01*
X232576862Y-194600000D02*
G75*
G02*
X231864435Y-194301920I38J1000500D01*
G01*
X315881400Y-141000692D02*
G75*
G02*
X315681400Y-141200700I-200100J92D01*
G01*
X365082184Y-192992815D02*
G75*
G02*
X365782092Y-192700016I706916J-706885D01*
G01*
X66403862Y-194600000D02*
X56364362Y-194600000D01*
X155738462Y-187129430D02*
X149388362Y-187129430D01*
X131175000Y-156249992D02*
G75*
G02*
X131985645Y-155449968I800200J-108D01*
G01*
X336762954Y-91200000D02*
G75*
G02*
X342435577Y-93075000I2749546J-1200000D01*
G01*
X74719190Y-170319800D02*
X74719190Y-169514572D01*
X149188500Y-186923980D02*
X149188500Y-184099292D01*
X88312500Y-99099992D02*
G75*
G02*
X89123145Y-98299968I800200J-108D01*
G01*
X41450000Y-96300012D02*
G75*
G02*
X43450012Y-94300000I2000000J12D01*
G01*
X347256500Y-141405397D02*
X347256500Y-143799492D01*
X179610645Y-136400000D02*
X192199962Y-136400000D01*
X307387500Y-118149992D02*
G75*
G02*
X308198145Y-117349968I800200J-108D01*
G01*
X310724750Y-169119492D02*
G75*
G02*
X310524750Y-169319550I-200050J-8D01*
G01*
X155938500Y-184099192D02*
G75*
G02*
X156138462Y-183899200I200000J-8D01*
G01*
X216900000Y-137199992D02*
G75*
G02*
X217710645Y-136399968I800200J-108D01*
G01*
X193087500Y-179099392D02*
G75*
G02*
X192887500Y-179299400I-200000J-8D01*
G01*
X334524750Y-163249492D02*
G75*
G02*
X334721934Y-163049471I200050J-8D01*
G01*
X169275000Y-168850000D02*
X169275000Y-156249992D01*
X283575000Y-168850000D02*
X283575000Y-156249992D01*
X198649962Y-150600000D02*
G75*
G02*
X197850000Y-149800000I38J800000D01*
G01*
X346630962Y-141200700D02*
X347056462Y-141200700D01*
X98317862Y-169319500D02*
G75*
G02*
X98517945Y-169514986I-62J-200200D01*
G01*
X122460645Y-174500000D02*
X135049962Y-174500000D01*
X56050000Y-183299992D02*
G75*
G02*
X55250000Y-184100000I-800100J92D01*
G01*
X95368750Y-156249992D02*
X95368750Y-160050692D01*
X155938500Y-186929392D02*
G75*
G02*
X155738462Y-187129400I-200000J-8D01*
G01*
X155738462Y-174830400D02*
G75*
G02*
X155938549Y-175035098I-62J-200200D01*
G01*
X279623145Y-98300000D02*
X292212362Y-98300000D01*
X312949962Y-169650000D02*
G75*
G02*
X312150000Y-168850000I38J800000D01*
G01*
X193087424Y-184099292D02*
X193087500Y-184099292D01*
X350162500Y-111699992D02*
G75*
G02*
X349362500Y-112500000I-800100J92D01*
G01*
X245475000Y-156249992D02*
G75*
G02*
X246285645Y-155449968I800200J-108D01*
G01*
X316912500Y-111700000D02*
X316912500Y-99099992D01*
X154900000Y-149799992D02*
G75*
G02*
X154100000Y-150600000I-800100J92D01*
G01*
X332799550Y-169519492D02*
X332799550Y-170319792D01*
X104369000Y-160455397D02*
X104369000Y-162849492D01*
X216812500Y-111699992D02*
G75*
G02*
X216012500Y-112500000I-800100J92D01*
G01*
X206487462Y-174500000D02*
G75*
G02*
X207287548Y-175309302I-62J-800200D01*
G01*
X324056250Y-141000692D02*
G75*
G02*
X323856250Y-141200750I-200050J-8D01*
G01*
X59650000Y-99109301D02*
X59650000Y-111699992D01*
X337456250Y-150600000D02*
X324856262Y-150600000D01*
X188325000Y-168850000D02*
X188325000Y-156249992D01*
X246364461Y-173849240D02*
X249262362Y-173849240D01*
X265335645Y-155450000D02*
X277924962Y-155450000D01*
X310724750Y-157220492D02*
X310724750Y-160050692D01*
X46260645Y-98300000D02*
X58849862Y-98300000D01*
X230555385Y-94007115D02*
X231869684Y-92692815D01*
X322631000Y-146000692D02*
G75*
G02*
X322825770Y-145800574I200200J-8D01*
G01*
X250237500Y-130750000D02*
X250237500Y-118149992D01*
X284374962Y-169650000D02*
G75*
G02*
X283575000Y-168850000I38J800000D01*
G01*
X120762500Y-112500000D02*
X108162462Y-112500000D01*
X187437500Y-131550000D02*
X174837462Y-131550000D01*
X150225000Y-156249992D02*
G75*
G02*
X151035645Y-155449968I800200J-108D01*
G01*
X70073145Y-98300000D02*
X82662462Y-98300000D01*
X315255962Y-143999500D02*
G75*
G02*
X315056000Y-143799492I38J200000D01*
G01*
X303149680Y-162846330D02*
X303149680Y-160450692D01*
X258875000Y-169650000D02*
X246274962Y-169650000D01*
X58849862Y-98300000D02*
G75*
G02*
X59650048Y-99109302I38J-800200D01*
G01*
X148362500Y-181300492D02*
G75*
G02*
X148566563Y-181100437I200200J-108D01*
G01*
X131087500Y-118159301D02*
X131087500Y-130749992D01*
X263507451Y-196100000D02*
G75*
G02*
X266105462Y-194599974I2598049J-1499900D01*
G01*
X97837500Y-130750000D02*
X97837500Y-118149992D01*
X341535645Y-174500000D02*
X354124962Y-174500000D01*
X217710645Y-136400000D02*
X230299962Y-136400000D01*
X342628862Y-194600000D02*
G75*
G02*
X345226963Y-196099977I38J-3000000D01*
G01*
X336762954Y-91200000D02*
G75*
G02*
X334929862Y-92399962I-1833054J800100D01*
G01*
X134269462Y-194600000D02*
X119467362Y-194600000D01*
X109656250Y-175299992D02*
X109656250Y-187899992D01*
X73199253Y-157020500D02*
X79543362Y-157020500D01*
X88312500Y-111700000D02*
X88312500Y-99099992D01*
X189124962Y-169650000D02*
G75*
G02*
X188325000Y-168850000I38J800000D01*
G01*
X327575262Y-164850600D02*
G75*
G02*
X327775300Y-165050592I38J-200000D01*
G01*
X310524762Y-157020500D02*
G75*
G02*
X310724800Y-157220492I38J-200000D01*
G01*
X240625000Y-156259301D02*
X240625000Y-168849992D01*
X302537500Y-118159301D02*
X302537500Y-130749992D01*
X107362500Y-99099992D02*
G75*
G02*
X108173145Y-98299968I800200J-108D01*
G01*
X279612462Y-112500000D02*
G75*
G02*
X278812500Y-111700000I38J800000D01*
G01*
X260562462Y-112500000D02*
G75*
G02*
X259762500Y-111700000I38J800000D01*
G01*
X98317862Y-169319500D02*
X96993962Y-169319500D01*
X193087500Y-187900000D02*
X193087500Y-184099292D01*
X78018200Y-169519492D02*
X78018200Y-170319792D01*
X55249962Y-172756250D02*
G75*
G02*
X56050050Y-173556292I38J-800050D01*
G01*
X87542885Y-194307115D02*
G75*
G02*
X86835786Y-194599961I-707085J707215D01*
G01*
X297862500Y-99099992D02*
G75*
G02*
X298673145Y-98299968I800200J-108D01*
G01*
X150912500Y-174630392D02*
X150912500Y-174049192D01*
X207487462Y-179299360D02*
X244238500Y-179299360D01*
X252013484Y-181300492D02*
X252013500Y-181300492D01*
X360574962Y-188700000D02*
G75*
G02*
X359775000Y-187900000I38J800000D01*
G01*
X255713262Y-194600000D02*
X232576862Y-194600000D01*
X112935645Y-155450000D02*
X125524962Y-155450000D01*
X231987462Y-131550000D02*
G75*
G02*
X231187500Y-130750000I38J800000D01*
G01*
X156138462Y-179299360D02*
X192887500Y-179299360D01*
X320787500Y-131550000D02*
X308187462Y-131550000D01*
X117698145Y-117350000D02*
X130287462Y-117350000D01*
X95456250Y-175299992D02*
G75*
G02*
X96261918Y-174499970I800050J-8D01*
G01*
X254912500Y-111699992D02*
G75*
G02*
X254112500Y-112500000I-800100J92D01*
G01*
X188325000Y-156249992D02*
G75*
G02*
X189135645Y-155449968I800200J-108D01*
G01*
X96794000Y-160050692D02*
G75*
G02*
X96594000Y-160250700I-200100J92D01*
G01*
X301737462Y-117350000D02*
G75*
G02*
X302537548Y-118159302I-62J-800200D01*
G01*
X206487500Y-188700000D02*
X193887462Y-188700000D01*
X373175000Y-131550000D02*
X360574962Y-131550000D01*
X339681500Y-150069500D02*
X339681500Y-145996087D01*
X254739423Y-90900000D02*
G75*
G02*
X252141347Y-92399991I-2598123J1500100D01*
G01*
X49849962Y-177756250D02*
G75*
G02*
X49050050Y-176956292I38J799950D01*
G01*
X232583732Y-92400000D02*
X252141347Y-92400000D01*
X306500000Y-150600000D02*
X293899962Y-150600000D01*
X231869684Y-92692815D02*
G75*
G02*
X232583732Y-92400017I706916J-706885D01*
G01*
X339681500Y-141000692D02*
X339681500Y-138170492D01*
X322830962Y-141200700D02*
X323856250Y-141200700D01*
X145462500Y-99099992D02*
G75*
G02*
X146273145Y-98299968I800200J-108D01*
G01*
X145375000Y-156259301D02*
X145375000Y-168849992D01*
X259675000Y-168849992D02*
G75*
G02*
X258875000Y-169650000I-800100J92D01*
G01*
X189576762Y-94300000D02*
X229848286Y-94300000D01*
X193898145Y-117350000D02*
X206487462Y-117350000D01*
X259762500Y-99099992D02*
G75*
G02*
X260573145Y-98299968I800200J-108D01*
G01*
X154099862Y-136400000D02*
G75*
G02*
X154900048Y-137209302I38J-800200D01*
G01*
X193087500Y-175299992D02*
G75*
G02*
X193898145Y-174499968I800200J-108D01*
G01*
X155938500Y-184099192D02*
X155938500Y-186929392D01*
X365082184Y-192992815D02*
X363767885Y-194307115D01*
X278812500Y-99099992D02*
G75*
G02*
X279623145Y-98299968I800200J-108D01*
G01*
X354125000Y-188700000D02*
X341524962Y-188700000D01*
X325550000Y-169650000D02*
X312949962Y-169650000D01*
X293012500Y-111699992D02*
G75*
G02*
X292212500Y-112500000I-800100J92D01*
G01*
X322631000Y-150069492D02*
G75*
G02*
X322431000Y-150269500I-200100J92D01*
G01*
X322474962Y-188700000D02*
G75*
G02*
X321675000Y-187900000I38J800000D01*
G01*
X66403862Y-194600000D02*
G75*
G02*
X69001963Y-196099977I38J-3000000D01*
G01*
X334724762Y-160250700D02*
X335150262Y-160250700D01*
X77818200Y-170519800D02*
X74919162Y-170519800D01*
X150912500Y-174630392D02*
G75*
G02*
X150712500Y-174830400I-200100J92D01*
G01*
X334324750Y-169319500D02*
X332996734Y-169319500D01*
X79743500Y-165050592D02*
G75*
G02*
X79938270Y-164850574I200200J-108D01*
G01*
X338456262Y-141200700D02*
G75*
G02*
X338256300Y-141000692I38J200000D01*
G01*
X56050000Y-170612492D02*
G75*
G02*
X55250000Y-171412500I-800100J92D01*
G01*
X173150000Y-150600000D02*
X160549962Y-150600000D01*
X53635762Y-192700000D02*
X43449962Y-192700000D01*
X262533662Y-92400000D02*
G75*
G02*
X259935612Y-90899979I38J3000000D01*
G01*
X112125000Y-168850000D02*
X112125000Y-156249992D01*
X332589362Y-194600000D02*
G75*
G02*
X331876935Y-194301920I38J1000500D01*
G01*
X116800000Y-137209301D02*
X116800000Y-149799992D01*
X140700000Y-137199992D02*
G75*
G02*
X141510645Y-136399968I800200J-108D01*
G01*
X239825000Y-169650000D02*
X227224962Y-169650000D01*
X317712462Y-112500000D02*
G75*
G02*
X316912500Y-111700000I38J800000D01*
G01*
X304118750Y-188700000D02*
X291518762Y-188700000D01*
X189135645Y-155450000D02*
X201724962Y-155450000D01*
X331876927Y-194301928D02*
X330564765Y-192989765D01*
X168505385Y-194307115D02*
G75*
G02*
X167798286Y-194599961I-707085J707215D01*
G01*
X113376762Y-94300000D02*
G75*
G02*
X112674634Y-94012117I138J1000500D01*
G01*
X334324762Y-157020500D02*
G75*
G02*
X334524800Y-157220492I38J-200000D01*
G01*
X341205262Y-150269500D02*
G75*
G02*
X341405444Y-150464986I38J-200200D01*
G01*
X154412462Y-174830400D02*
X155738462Y-174830400D01*
X320905700Y-151269792D02*
G75*
G02*
X320705700Y-151469800I-200100J92D01*
G01*
X49050000Y-183300000D02*
X49050000Y-179899992D01*
X334724762Y-160250700D02*
G75*
G02*
X334524800Y-160050692I38J200000D01*
G01*
X251037462Y-131550000D02*
G75*
G02*
X250237500Y-130750000I38J800000D01*
G01*
X307387500Y-130750000D02*
X307387500Y-118149992D01*
X184373145Y-98300000D02*
X196962362Y-98300000D01*
X182675000Y-169650000D02*
X170074962Y-169650000D01*
X164425000Y-168849992D02*
G75*
G02*
X163625000Y-169650000I-800100J92D01*
G01*
X212948145Y-117350000D02*
X225537462Y-117350000D01*
X363060786Y-194600000D02*
X353012677Y-194600000D01*
X81968762Y-169650000D02*
G75*
G02*
X81168800Y-168849992I38J800000D01*
G01*
X282098262Y-92400000D02*
G75*
G02*
X282808589Y-92696089I38J-1000000D01*
G01*
X159662500Y-99109301D02*
X159662500Y-111699992D01*
X376941176Y-169015845D02*
G75*
G02*
X377975027Y-170015292I33824J-999455D01*
G01*
X329699162Y-170519800D02*
G75*
G02*
X329499200Y-170319792I38J200000D01*
G01*
X96794000Y-160050692D02*
X96794000Y-157220592D01*
X115999962Y-136400000D02*
G75*
G02*
X116800048Y-137209302I-62J-800200D01*
G01*
X101818300Y-170319792D02*
G75*
G02*
X101618300Y-170519800I-200100J92D01*
G01*
X269287500Y-130750000D02*
X269287500Y-118150092D01*
X101712462Y-98300000D02*
G75*
G02*
X102512548Y-99109302I-62J-800200D01*
G01*
X56364362Y-194600000D02*
G75*
G02*
X55651935Y-194301920I38J1000500D01*
G01*
X126325000Y-156259301D02*
X126325000Y-168849992D01*
X359775000Y-111700000D02*
X359775000Y-99099992D01*
X310924762Y-160250700D02*
X311950000Y-160250700D01*
X121562500Y-111699992D02*
G75*
G02*
X120762500Y-112500000I-800100J92D01*
G01*
X292212362Y-98300000D02*
G75*
G02*
X293012548Y-99109302I38J-800200D01*
G01*
X349362462Y-98300000D02*
G75*
G02*
X350162548Y-99109302I-62J-800200D01*
G01*
X130287462Y-117350000D02*
G75*
G02*
X131087548Y-118159302I-62J-800200D01*
G01*
X342628862Y-194600000D02*
X332589362Y-194600000D01*
X349362500Y-112500000D02*
X336762462Y-112500000D01*
X178800000Y-149800000D02*
X178800000Y-137199992D01*
X76406250Y-137199992D02*
G75*
G02*
X77211918Y-136399970I800050J-8D01*
G01*
X245475000Y-168850000D02*
X245475000Y-156249992D01*
X244587462Y-117350000D02*
G75*
G02*
X245387548Y-118159302I-62J-800200D01*
G01*
X282687500Y-131550000D02*
X270087462Y-131550000D01*
X304177990Y-157020500D02*
X310524762Y-157020500D01*
X307300000Y-137209301D02*
X307300000Y-149799992D01*
X377975000Y-170015292D02*
X377975000Y-190699992D01*
X326350000Y-168849992D02*
G75*
G02*
X325550000Y-169650000I-800100J92D01*
G01*
X139812500Y-112500000D02*
X127212462Y-112500000D01*
X98648145Y-117350000D02*
X111237462Y-117350000D01*
X101618300Y-170519800D02*
X98717862Y-170519800D01*
X150225000Y-168850000D02*
X150225000Y-156249992D01*
X155787462Y-131550000D02*
G75*
G02*
X154987500Y-130750000I38J800000D01*
G01*
X306499962Y-136400000D02*
G75*
G02*
X307300048Y-137209302I-62J-800200D01*
G01*
X250237500Y-118149992D02*
G75*
G02*
X251048145Y-117349968I800200J-108D01*
G01*
X79743500Y-169119492D02*
G75*
G02*
X79543500Y-169319500I-200100J92D01*
G01*
X59650000Y-111699992D02*
G75*
G02*
X58850000Y-112500000I-800100J92D01*
G01*
X135050000Y-150600000D02*
X122449962Y-150600000D01*
X373975000Y-118159301D02*
X373975000Y-130749992D01*
X293910645Y-136400000D02*
X306499962Y-136400000D01*
X335962500Y-99099992D02*
G75*
G02*
X336773145Y-98299968I800200J-108D01*
G01*
X377975000Y-96314652D02*
X377975000Y-136034692D01*
X88857184Y-192992815D02*
G75*
G02*
X89557092Y-192700016I706916J-706885D01*
G01*
X139812462Y-98300000D02*
G75*
G02*
X140612548Y-99109302I-62J-800200D01*
G01*
X310724750Y-165050592D02*
X310724750Y-169119492D01*
X49860645Y-179100000D02*
X55249962Y-179100000D01*
X265335645Y-174500000D02*
X277924962Y-174500000D01*
X235950000Y-149800000D02*
X235950000Y-137199992D01*
X49850062Y-172756330D02*
X49850062Y-172756250D01*
X359775000Y-130750000D02*
X359775000Y-118149992D01*
X360585645Y-98300000D02*
X373174862Y-98300000D01*
X159750000Y-149800000D02*
X159750000Y-137199992D01*
X221575000Y-168849992D02*
G75*
G02*
X220775000Y-169650000I-800100J92D01*
G01*
X312150000Y-160050692D02*
X312150000Y-156250092D01*
X216012462Y-98300000D02*
G75*
G02*
X216812548Y-99109302I-62J-800200D01*
G01*
X135049962Y-174500000D02*
G75*
G02*
X135850048Y-175309302I-62J-800200D01*
G01*
X250988462Y-174830400D02*
G75*
G02*
X251188549Y-175035098I-62J-200200D01*
G01*
X72368462Y-163049500D02*
G75*
G02*
X72168500Y-162849492I38J200000D01*
G01*
X258837500Y-92400000D02*
G75*
G02*
X255837500Y-92400000I-1500000J0D01*
G01*
X255837500Y-92400000D02*
G75*
G02*
X258837500Y-92400000I1500000J0D01*
G01*
X56050000Y-179909301D02*
X56050000Y-183299992D01*
X310724750Y-165050592D02*
G75*
G02*
X310921934Y-164850571I200050J-8D01*
G01*
X216012500Y-112500000D02*
X203412462Y-112500000D01*
X315055954Y-143799492D02*
X315055930Y-143799492D01*
X103543500Y-169119492D02*
G75*
G02*
X103343500Y-169319500I-200100J92D01*
G01*
X116887500Y-118149992D02*
G75*
G02*
X117698145Y-117349968I800200J-108D01*
G01*
X81168750Y-160050692D02*
X81168750Y-156249992D01*
X307300000Y-149799992D02*
G75*
G02*
X306500000Y-150600000I-800100J92D01*
G01*
X169819684Y-192992815D02*
X168505385Y-194307115D01*
X142063701Y-196100000D02*
G75*
G02*
X136867549Y-196100000I-2598076J1500000D01*
G01*
X264525000Y-168850000D02*
X264525000Y-156249992D01*
X288337500Y-130750000D02*
X288337500Y-118149992D01*
X49050000Y-170612500D02*
X49050000Y-167212492D01*
X350423076Y-196100000D02*
G75*
G02*
X353012677Y-194599971I2598124J-1500000D01*
G01*
X112125000Y-156249992D02*
G75*
G02*
X112935645Y-155449968I800200J-108D01*
G01*
X222473145Y-98300000D02*
X235062362Y-98300000D01*
X104168862Y-160250700D02*
G75*
G02*
X104369049Y-160455398I38J-200200D01*
G01*
X274860645Y-136400000D02*
X287449962Y-136400000D01*
X373175000Y-188700000D02*
X360574962Y-188700000D01*
X79943462Y-160250700D02*
X80968750Y-160250700D01*
X110648262Y-92400000D02*
G75*
G02*
X111358589Y-92696089I38J-1000000D01*
G01*
X173149962Y-136400000D02*
G75*
G02*
X173950048Y-137209302I-62J-800200D01*
G01*
X127212462Y-112500000D02*
G75*
G02*
X126412500Y-111700000I38J800000D01*
G01*
X291518762Y-188700000D02*
G75*
G02*
X290718800Y-187899992I38J800000D01*
G01*
X140965625Y-194600000D02*
G75*
G02*
X137965625Y-194600000I-1500000J0D01*
G01*
X137965625Y-194600000D02*
G75*
G02*
X140965625Y-194600000I1500000J0D01*
G01*
X109656250Y-187899992D02*
G75*
G02*
X108856250Y-188700050I-800050J-8D01*
G01*
X354925000Y-175309301D02*
X354925000Y-187899992D01*
X235862500Y-99109301D02*
X235862500Y-111699992D01*
X375975000Y-192700000D02*
X365782092Y-192700000D01*
X169187500Y-130749992D02*
G75*
G02*
X168387500Y-131550000I-800100J92D01*
G01*
X244638362Y-187129430D02*
G75*
G02*
X244438543Y-186923981I138J200030D01*
G01*
X154012362Y-173849240D02*
G75*
G02*
X154212460Y-174049292I138J-199960D01*
G01*
X49850062Y-172756250D02*
X55249962Y-172756250D01*
X102600000Y-149800000D02*
X102600000Y-137199992D01*
X131087500Y-130749992D02*
G75*
G02*
X130287500Y-131550000I-800100J92D01*
G01*
X315881400Y-138170492D02*
G75*
G02*
X316086754Y-137970466I200200J-108D01*
G01*
X231864427Y-194301928D02*
X230552265Y-192989765D01*
X331112500Y-99109301D02*
X331112500Y-111699992D01*
X149188500Y-180900492D02*
X149188500Y-175030392D01*
X193087500Y-130750000D02*
X193087500Y-118149992D01*
X160549962Y-150600000D02*
G75*
G02*
X159750000Y-149800000I38J800000D01*
G01*
X331112500Y-111699992D02*
G75*
G02*
X330312500Y-112500000I-800100J92D01*
G01*
X254739423Y-90900000D02*
G75*
G02*
X259935577Y-90900000I2598077J-1499998D01*
G01*
X221662500Y-111700000D02*
X221662500Y-99099992D01*
X340725000Y-187900000D02*
X340725000Y-175299992D01*
X164512500Y-111700000D02*
X164512500Y-99099992D01*
X96794000Y-157220592D02*
G75*
G02*
X96999354Y-157020466I200200J-8D01*
G01*
X150137500Y-118159301D02*
X150137500Y-130749992D01*
X72449418Y-174500000D02*
X85043762Y-174500000D01*
X135937500Y-130750000D02*
X135937500Y-118149992D01*
X321587500Y-130749992D02*
G75*
G02*
X320787500Y-131550000I-800100J92D01*
G01*
X186848262Y-92400000D02*
G75*
G02*
X187558589Y-92696089I38J-1000000D01*
G01*
X202525000Y-156259301D02*
X202525000Y-168849992D01*
X278725000Y-168849992D02*
G75*
G02*
X277925000Y-169650000I-800100J92D01*
G01*
X244643853Y-174830400D02*
X245962500Y-174830400D01*
X122449962Y-150600000D02*
G75*
G02*
X121650000Y-149800000I38J800000D01*
G01*
X149388362Y-187129430D02*
G75*
G02*
X149188543Y-186923981I138J200030D01*
G01*
X346230962Y-137970500D02*
G75*
G02*
X346431049Y-138175198I-62J-200200D01*
G01*
X305500462Y-169319500D02*
X304175162Y-169319500D01*
X263507451Y-196100000D02*
G75*
G02*
X258311297Y-196100000I-2598077J1500000D01*
G01*
X359775000Y-118149992D02*
G75*
G02*
X360585645Y-117349968I800200J-108D01*
G01*
X308187462Y-131550000D02*
G75*
G02*
X307387500Y-130750000I38J800000D01*
G01*
X116000000Y-150600000D02*
X103399962Y-150600000D01*
X72993900Y-160050692D02*
G75*
G02*
X72793900Y-160250700I-200100J92D01*
G01*
X244438500Y-179099392D02*
G75*
G02*
X244238500Y-179299400I-200000J-8D01*
G01*
X41450000Y-190700000D02*
X41450000Y-96300012D01*
X326549962Y-160250700D02*
G75*
G02*
X326350000Y-160050700I38J200000D01*
G01*
X326350000Y-165050592D02*
X326350000Y-168849992D01*
X74025000Y-130750000D02*
X74025000Y-118149992D01*
X284826762Y-94300000D02*
X306048286Y-94300000D01*
X141499962Y-150600000D02*
G75*
G02*
X140700000Y-149800000I38J800000D01*
G01*
X273162500Y-112500000D02*
X260562462Y-112500000D01*
X193087500Y-179099392D02*
X193087500Y-175299992D01*
X74025000Y-118149992D02*
G75*
G02*
X74835645Y-117349968I800200J-108D01*
G01*
X270098145Y-117350000D02*
X282687462Y-117350000D01*
X296974962Y-155450000D02*
G75*
G02*
X297775048Y-156259302I-62J-800200D01*
G01*
X251048145Y-117350000D02*
X263637462Y-117350000D01*
X304118762Y-174500000D02*
G75*
G02*
X304918800Y-175299992I38J-800000D01*
G01*
X121650000Y-137200092D02*
G75*
G02*
X122460645Y-136399968I800200J-8D01*
G01*
X230299962Y-136400000D02*
G75*
G02*
X231100048Y-137209302I-62J-800200D01*
G01*
X344705800Y-150469592D02*
G75*
G02*
X344900570Y-150269474I200200J-8D01*
G01*
X317806662Y-151469800D02*
G75*
G02*
X317606700Y-151269800I38J200000D01*
G01*
X207287500Y-118159301D02*
X207287500Y-130749992D01*
X311262500Y-112500000D02*
X298662462Y-112500000D01*
X74919162Y-170519800D02*
G75*
G02*
X74719200Y-170319800I38J200000D01*
G01*
X158862500Y-112500000D02*
X146262462Y-112500000D01*
X104369000Y-162849492D02*
G75*
G02*
X104169000Y-163049500I-200100J92D01*
G01*
X297775000Y-156259301D02*
X297775000Y-168849992D01*
X169187500Y-118159301D02*
X169187500Y-130749992D01*
X335875000Y-187899992D02*
G75*
G02*
X335075000Y-188700000I-800100J92D01*
G01*
X292212500Y-112500000D02*
X279612462Y-112500000D01*
X305700454Y-170319792D02*
X305700440Y-170319792D01*
X249349962Y-136400000D02*
G75*
G02*
X250150048Y-137209302I-62J-800200D01*
G01*
X126325000Y-168849992D02*
G75*
G02*
X125525000Y-169650000I-800100J92D01*
G01*
X335074962Y-174500000D02*
G75*
G02*
X335875048Y-175309302I-62J-800200D01*
G01*
X327978090Y-157020500D02*
X334324762Y-157020500D01*
X89123145Y-98300000D02*
X101712462Y-98300000D01*
X236749962Y-150600000D02*
G75*
G02*
X235950000Y-149800000I38J800000D01*
G01*
X290718750Y-175299992D02*
G75*
G02*
X291524418Y-174499970I800050J-8D01*
G01*
X360574962Y-112500000D02*
G75*
G02*
X359775000Y-111700000I38J800000D01*
G01*
X277924962Y-155450000D02*
G75*
G02*
X278725048Y-156259302I-62J-800200D01*
G01*
X80968762Y-164850600D02*
X79938271Y-164850600D01*
X334524750Y-163249492D02*
X334524750Y-169119492D01*
X81168750Y-168849992D02*
X81168750Y-165050592D01*
X373975000Y-99109301D02*
X373975000Y-111699992D01*
X198660645Y-136400000D02*
X211249962Y-136400000D01*
X336773145Y-98300000D02*
X349362462Y-98300000D01*
X202612500Y-111700000D02*
X202612500Y-99099992D01*
X231100000Y-149799992D02*
G75*
G02*
X230300000Y-150600000I-800100J92D01*
G01*
X327775250Y-160050692D02*
G75*
G02*
X327575250Y-160250750I-200050J-8D01*
G01*
X98517900Y-170319800D02*
X98517900Y-169514987D01*
X212137500Y-130750000D02*
X212137500Y-118150092D01*
X252013500Y-183699192D02*
G75*
G02*
X251813462Y-183899200I-200000J-8D01*
G01*
X148562362Y-183899230D02*
G75*
G02*
X148362543Y-183693781I138J200030D01*
G01*
X156138462Y-179299360D02*
G75*
G02*
X155938546Y-179100941I38J199960D01*
G01*
X324056250Y-141000692D02*
X324056250Y-137199992D01*
X337456262Y-136400000D02*
G75*
G02*
X338256300Y-137199992I38J-800000D01*
G01*
X135050000Y-188700000D02*
X122449962Y-188700000D01*
X308999450Y-169519492D02*
G75*
G02*
X309196634Y-169319471I200050J-8D01*
G01*
X227224962Y-169650000D02*
G75*
G02*
X226425000Y-168850000I38J800000D01*
G01*
X339481362Y-145800600D02*
X338453434Y-145800600D01*
X179599962Y-150600000D02*
G75*
G02*
X178800000Y-149800000I38J800000D01*
G01*
X306755385Y-94007115D02*
G75*
G02*
X306048286Y-94299961I-707085J707215D01*
G01*
X71643750Y-187899992D02*
X71643750Y-175299992D01*
X280907662Y-194600000D02*
X266105462Y-194600000D01*
X145462500Y-111700000D02*
X145462500Y-99099992D01*
X53635762Y-192700000D02*
G75*
G02*
X54339765Y-192989765I38J-1000000D01*
G01*
X102600000Y-137199992D02*
G75*
G02*
X103410645Y-136399968I800200J-108D01*
G01*
X347056500Y-143999500D02*
X346625771Y-143999500D01*
X244238462Y-183899230D02*
X207487462Y-183899230D01*
X149337500Y-131550000D02*
X136737462Y-131550000D01*
X154212500Y-174049292D02*
X154212500Y-174630400D01*
X83462500Y-111699992D02*
G75*
G02*
X82662500Y-112500000I-800100J92D01*
G01*
X270087462Y-131550000D02*
G75*
G02*
X269287500Y-130750000I38J800000D01*
G01*
X317406562Y-150269500D02*
G75*
G02*
X317606734Y-150464571I38J-200200D01*
G01*
X125524962Y-155450000D02*
G75*
G02*
X126325048Y-156259302I-62J-800200D01*
G01*
X165312462Y-112500000D02*
G75*
G02*
X164512500Y-111700000I38J800000D01*
G01*
X320787462Y-117350000D02*
G75*
G02*
X321587548Y-118159302I-62J-800200D01*
G01*
X45450000Y-99099992D02*
G75*
G02*
X46260645Y-98299968I800200J-108D01*
G01*
X178712500Y-111699992D02*
G75*
G02*
X177912500Y-112500000I-800100J92D01*
G01*
X70062462Y-112500000D02*
G75*
G02*
X69262500Y-111700000I38J800000D01*
G01*
X255000000Y-149800000D02*
X255000000Y-137199992D01*
X103543500Y-163249492D02*
X103543500Y-169119492D01*
X326549962Y-160250700D02*
X327575250Y-160250700D01*
X315881400Y-141000692D02*
X315881400Y-138170492D01*
X45450000Y-154562500D02*
X45450000Y-141962492D01*
X74824962Y-131550000D02*
G75*
G02*
X74025000Y-130750000I38J800000D01*
G01*
X74519062Y-169319500D02*
G75*
G02*
X74719234Y-169514571I38J-200200D01*
G01*
X375974862Y-94300000D02*
G75*
G02*
X377975048Y-96314652I38J-2000200D01*
G01*
X170085645Y-155450000D02*
X182674962Y-155450000D01*
X340725000Y-175299992D02*
G75*
G02*
X341535645Y-174499968I800200J-108D01*
G01*
X332799550Y-170319792D02*
G75*
G02*
X332599550Y-170519850I-200050J-8D01*
G01*
X103410645Y-136400000D02*
X115999962Y-136400000D01*
X121650000Y-187900000D02*
X121650000Y-175299992D01*
X206487462Y-117350000D02*
G75*
G02*
X207287548Y-118159302I-62J-800200D01*
G01*
X79943462Y-160250700D02*
G75*
G02*
X79743500Y-160050700I38J200000D01*
G01*
X359775000Y-187900000D02*
X359775000Y-175299992D01*
X284826762Y-94300000D02*
G75*
G02*
X284124634Y-94012117I138J1000500D01*
G01*
X148566562Y-181100470D02*
X148988500Y-181100470D01*
X187558589Y-92696089D02*
X188874625Y-94012126D01*
X220774962Y-155450000D02*
G75*
G02*
X221575048Y-156259302I-62J-800200D01*
G01*
X108856250Y-188700000D02*
X96256262Y-188700000D01*
X338256250Y-146000592D02*
X338256250Y-149799992D01*
X73100000Y-194600000D02*
G75*
G02*
X70100000Y-194600000I-1500000J0D01*
G01*
X70100000Y-194600000D02*
G75*
G02*
X73100000Y-194600000I1500000J0D01*
G01*
X144575000Y-169650000D02*
X131974962Y-169650000D01*
X121650000Y-149800000D02*
X121650000Y-137200092D01*
X264525000Y-187900000D02*
X264525000Y-175299992D01*
X344600000Y-131550000D02*
X331999962Y-131550000D01*
X137333732Y-92400000D02*
X156891347Y-92400000D01*
X305500462Y-169319500D02*
G75*
G02*
X305700487Y-169517211I38J-200000D01*
G01*
X207487462Y-179299360D02*
G75*
G02*
X207287546Y-179100941I38J199960D01*
G01*
X87425000Y-131550000D02*
X74824962Y-131550000D01*
X264525000Y-156249992D02*
G75*
G02*
X265335645Y-155449968I800200J-108D01*
G01*
X197850000Y-149800000D02*
X197850000Y-137200092D01*
X178800000Y-137199992D02*
G75*
G02*
X179610645Y-136399968I800200J-108D01*
G01*
X94568762Y-155450000D02*
G75*
G02*
X95368800Y-156249992I38J-800000D01*
G01*
X377975000Y-136034692D02*
G75*
G02*
X376941177Y-137034128I-1000000J-8D01*
G01*
X240712500Y-111700000D02*
X240712500Y-99099992D01*
X335875000Y-175309301D02*
X335875000Y-187899992D01*
X250150000Y-137209301D02*
X250150000Y-149799992D01*
X250150000Y-149799992D02*
G75*
G02*
X249350000Y-150600000I-800100J92D01*
G01*
X49849962Y-184100000D02*
G75*
G02*
X49050000Y-183300000I38J800000D01*
G01*
X251813462Y-183899230D02*
X251388462Y-183899230D01*
X83462500Y-99109301D02*
X83462500Y-111699992D01*
X201725000Y-169650000D02*
X189124962Y-169650000D01*
X321587500Y-118159301D02*
X321587500Y-130749992D01*
X249662462Y-174830400D02*
G75*
G02*
X249462500Y-174630400I38J200000D01*
G01*
X335350250Y-162849492D02*
G75*
G02*
X335150250Y-163049550I-200050J-8D01*
G01*
X293100000Y-149800000D02*
X293100000Y-137199992D01*
X116738862Y-192700000D02*
X89557092Y-192700000D01*
X189576762Y-94300000D02*
G75*
G02*
X188874634Y-94012117I138J1000500D01*
G01*
X116800000Y-149799992D02*
G75*
G02*
X116000000Y-150600000I-800100J92D01*
G01*
X202525000Y-168849992D02*
G75*
G02*
X201725000Y-169650000I-800100J92D01*
G01*
X183562500Y-99099992D02*
G75*
G02*
X184373145Y-98299968I800200J-108D01*
G01*
X225537462Y-117350000D02*
G75*
G02*
X226337548Y-118159302I-62J-800200D01*
G01*
X74198076Y-196100000D02*
G75*
G02*
X76787677Y-194599971I2598124J-1500000D01*
G01*
X72168454Y-162849492D02*
X72168430Y-162849492D01*
X168387462Y-117350000D02*
G75*
G02*
X169187548Y-118159302I-62J-800200D01*
G01*
X183475000Y-156259301D02*
X183475000Y-168849992D01*
X339681500Y-141000692D02*
G75*
G02*
X339481500Y-141200700I-200100J92D01*
G01*
X163625000Y-169650000D02*
X151024962Y-169650000D01*
X131985645Y-155450000D02*
X144574962Y-155450000D01*
X331999962Y-131550000D02*
G75*
G02*
X331200000Y-130750000I38J800000D01*
G01*
X331200000Y-130750000D02*
X331200000Y-118149992D01*
X308999450Y-170319792D02*
G75*
G02*
X308799450Y-170519850I-200050J-8D01*
G01*
X273962500Y-99109301D02*
X273962500Y-111699992D01*
X298662462Y-112500000D02*
G75*
G02*
X297862500Y-111700000I38J800000D01*
G01*
X354925000Y-187899992D02*
G75*
G02*
X354125000Y-188700000I-800100J92D01*
G01*
X254112500Y-112500000D02*
X241512462Y-112500000D01*
X173950000Y-149799992D02*
G75*
G02*
X173150000Y-150600000I-800100J92D01*
G01*
X55249962Y-166412500D02*
G75*
G02*
X56050048Y-167221802I-62J-800200D01*
G01*
X303975150Y-160050692D02*
X303975150Y-157220492D01*
X212050000Y-149799992D02*
G75*
G02*
X211250000Y-150600000I-800100J92D01*
G01*
X90606250Y-137199992D02*
X90606250Y-149799992D01*
X330312500Y-112500000D02*
X317712462Y-112500000D01*
X312150000Y-156250092D02*
G75*
G02*
X312960645Y-155449968I800200J-8D01*
G01*
X135305385Y-94007115D02*
X136619684Y-92692815D01*
X178712500Y-99109301D02*
X178712500Y-111699992D01*
X304175162Y-169319500D02*
G75*
G02*
X303975200Y-169119492I38J200000D01*
G01*
X293012500Y-99109301D02*
X293012500Y-111699992D01*
X255799962Y-150600000D02*
G75*
G02*
X255000000Y-149800000I38J800000D01*
G01*
X225537500Y-131550000D02*
X212937462Y-131550000D01*
X101818300Y-169519492D02*
X101818300Y-170319792D01*
X136619684Y-92692815D02*
G75*
G02*
X137333732Y-92400017I706916J-706885D01*
G01*
X262409375Y-194600000D02*
G75*
G02*
X259409375Y-194600000I-1500000J0D01*
G01*
X259409375Y-194600000D02*
G75*
G02*
X262409375Y-194600000I1500000J0D01*
G01*
X165323145Y-98300000D02*
X177912362Y-98300000D01*
X88857184Y-192992815D02*
X87542885Y-194307115D01*
X341535645Y-155450000D02*
X354124962Y-155450000D01*
X96999353Y-157020500D02*
X103343362Y-157020500D01*
X268400000Y-150600000D02*
X255799962Y-150600000D01*
X310524750Y-169319500D02*
X309196634Y-169319500D01*
X252013500Y-181300492D02*
X252013500Y-183699192D01*
X315681262Y-143999500D02*
X315255962Y-143999500D01*
X335150250Y-163049500D02*
X334721934Y-163049500D01*
X59650000Y-154562492D02*
G75*
G02*
X58850000Y-155362500I-800100J92D01*
G01*
X49050000Y-167212492D02*
G75*
G02*
X49860645Y-166412468I800200J-108D01*
G01*
X282687462Y-117350000D02*
G75*
G02*
X283487548Y-118159302I-62J-800200D01*
G01*
X168387500Y-131550000D02*
X155787462Y-131550000D01*
X159750000Y-137199992D02*
G75*
G02*
X160560645Y-136399968I800200J-108D01*
G01*
X144574962Y-155450000D02*
G75*
G02*
X145375048Y-156259302I-62J-800200D01*
G01*
X304918750Y-175299992D02*
X304918750Y-187899992D01*
X230300000Y-150600000D02*
X217699962Y-150600000D01*
X183562500Y-111700000D02*
X183562500Y-99099992D01*
X72793862Y-163049500D02*
G75*
G02*
X72993945Y-163244986I-62J-200200D01*
G01*
X150912500Y-174049192D02*
G75*
G02*
X151114461Y-173849210I200000J-8D01*
G01*
X119467362Y-194600000D02*
G75*
G02*
X118756439Y-194303333I-62J1000000D01*
G01*
X211250000Y-150600000D02*
X198649962Y-150600000D01*
X197762500Y-111699992D02*
G75*
G02*
X196962500Y-112500000I-800100J92D01*
G01*
X113376762Y-94300000D02*
X134598286Y-94300000D01*
X346431000Y-138175197D02*
X346431000Y-141000700D01*
M02*
