%TF.GenerationSoftware,KiCad,Pcbnew,9.0.2*%
%TF.CreationDate,2025-09-12T12:40:56+09:00*%
%TF.ProjectId,CL70_Plate_6u,434c3730-5f50-46c6-9174-655f36752e6b,rev?*%
%TF.SameCoordinates,Original*%
%TF.FileFunction,Soldermask,Top*%
%TF.FilePolarity,Negative*%
%FSLAX46Y46*%
G04 Gerber Fmt 4.6, Leading zero omitted, Abs format (unit mm)*
G04 Created by KiCad (PCBNEW 9.0.2) date 2025-09-12 12:40:56*
%MOMM*%
%LPD*%
G01*
G04 APERTURE LIST*
%ADD10C,2.500000*%
%ADD11C,2.000000*%
%ADD12C,1.800000*%
%ADD13C,0.000000*%
G04 APERTURE END LIST*
D10*
X341012500Y-92450000D02*
G75*
G02*
X338012500Y-92450000I-1500000J0D01*
G01*
X338012500Y-92450000D02*
G75*
G02*
X341012500Y-92450000I1500000J0D01*
G01*
X349325000Y-194650000D02*
G75*
G02*
X346325000Y-194650000I-1500000J0D01*
G01*
X346325000Y-194650000D02*
G75*
G02*
X349325000Y-194650000I1500000J0D01*
G01*
X258837500Y-92450000D02*
G75*
G02*
X255837500Y-92450000I-1500000J0D01*
G01*
X255837500Y-92450000D02*
G75*
G02*
X258837500Y-92450000I1500000J0D01*
G01*
X140965625Y-194650000D02*
G75*
G02*
X137965625Y-194650000I-1500000J0D01*
G01*
X137965625Y-194650000D02*
G75*
G02*
X140965625Y-194650000I1500000J0D01*
G01*
X262409375Y-194650000D02*
G75*
G02*
X259409375Y-194650000I-1500000J0D01*
G01*
X259409375Y-194650000D02*
G75*
G02*
X262409375Y-194650000I1500000J0D01*
G01*
X163587500Y-92450000D02*
G75*
G02*
X160587500Y-92450000I-1500000J0D01*
G01*
X160587500Y-92450000D02*
G75*
G02*
X163587500Y-92450000I1500000J0D01*
G01*
X73100000Y-194650000D02*
G75*
G02*
X70100000Y-194650000I-1500000J0D01*
G01*
X70100000Y-194650000D02*
G75*
G02*
X73100000Y-194650000I1500000J0D01*
G01*
X81412500Y-92450000D02*
G75*
G02*
X78412500Y-92450000I-1500000J0D01*
G01*
X78412500Y-92450000D02*
G75*
G02*
X81412500Y-92450000I1500000J0D01*
G01*
D11*
X74198076Y-196150000D02*
G75*
G02*
X69001924Y-196150000I-2598076J1500000D01*
G01*
X331876927Y-194351928D02*
X330564765Y-193039765D01*
X332589262Y-194650000D02*
G75*
G02*
X331876935Y-194351920I138J1000500D01*
G01*
X136619684Y-92742815D02*
G75*
G02*
X137333732Y-92450017I706916J-706885D01*
G01*
X255713262Y-194650000D02*
X232576762Y-194650000D01*
X88857184Y-193042815D02*
G75*
G02*
X89557092Y-192750016I706916J-706885D01*
G01*
X281614773Y-194357102D02*
G75*
G02*
X280907662Y-194649973I-707073J707102D01*
G01*
X308783732Y-92450000D02*
X334929862Y-92450000D01*
X167283662Y-92450000D02*
G75*
G02*
X164685612Y-90949979I38J3000000D01*
G01*
X232583732Y-92450000D02*
X252141347Y-92450000D01*
X41450000Y-190750000D02*
X41450000Y-96350012D01*
X343409962Y-94350000D02*
X375974962Y-94350000D01*
X134269462Y-194650000D02*
X119467362Y-194650000D01*
X230555385Y-94057115D02*
G75*
G02*
X229848286Y-94349961I-707085J707215D01*
G01*
X189576862Y-94350000D02*
G75*
G02*
X188874634Y-94062117I38J1000500D01*
G01*
X110648262Y-92450000D02*
G75*
G02*
X111358589Y-92746089I38J-1000000D01*
G01*
X229848262Y-192750000D02*
X170519592Y-192750000D01*
X342628862Y-194650000D02*
G75*
G02*
X345226963Y-196149977I38J-3000000D01*
G01*
X254739423Y-90950000D02*
G75*
G02*
X252141347Y-92449991I-2598123J1500100D01*
G01*
X263507451Y-196150000D02*
G75*
G02*
X258311297Y-196150000I-2598077J1500000D01*
G01*
X169819684Y-193042815D02*
G75*
G02*
X170519592Y-192750016I706916J-706885D01*
G01*
X230555385Y-94057115D02*
X231869684Y-92742815D01*
X231869684Y-92742815D02*
G75*
G02*
X232583732Y-92450017I706916J-706885D01*
G01*
X159489423Y-90950000D02*
G75*
G02*
X164685577Y-90950000I2598077J-1500000D01*
G01*
X329860762Y-192750000D02*
X283628951Y-192750000D01*
X116738762Y-192750000D02*
G75*
G02*
X117441601Y-193038510I-62J-1000500D01*
G01*
X282808589Y-92746089D02*
X284124625Y-94062126D01*
X186848262Y-92450000D02*
G75*
G02*
X187558589Y-92746089I38J-1000000D01*
G01*
X55651927Y-194351928D02*
X54339765Y-193039765D01*
X377975000Y-96364652D02*
X377975000Y-136084692D01*
X66403862Y-194650000D02*
G75*
G02*
X69001963Y-196149977I38J-3000000D01*
G01*
X86835786Y-194650000D02*
X76787677Y-194650000D01*
X375974962Y-94350000D02*
G75*
G02*
X377975048Y-96364652I-62J-2000200D01*
G01*
D12*
X76406250Y-137249992D02*
G75*
G02*
X77211918Y-136449970I800050J-8D01*
G01*
X327775250Y-157270492D02*
G75*
G02*
X327978090Y-157070469I200050J-8D01*
G01*
X250237500Y-130800000D02*
X250237500Y-118200092D01*
X169187500Y-130799992D02*
G75*
G02*
X168387500Y-131600000I-800100J92D01*
G01*
X188325000Y-168900000D02*
X188325000Y-156299992D01*
X49860645Y-179150000D02*
X55249962Y-179150000D01*
X277925000Y-188750000D02*
X265324962Y-188750000D01*
X226425000Y-156299992D02*
G75*
G02*
X227235645Y-155499968I800200J-108D01*
G01*
X322485645Y-174550000D02*
X335074962Y-174550000D01*
X311262500Y-112550000D02*
X298662462Y-112550000D01*
X244438424Y-184149292D02*
X244438500Y-184149292D01*
X334324750Y-169369500D02*
X332996734Y-169369500D01*
X196962500Y-112550000D02*
X184362462Y-112550000D01*
X277924962Y-174550000D02*
G75*
G02*
X278725048Y-175359302I-62J-800200D01*
G01*
X79543500Y-169369500D02*
X78212971Y-169369500D01*
X97837500Y-118199992D02*
G75*
G02*
X98648145Y-117399968I800200J-108D01*
G01*
X89123145Y-98350000D02*
X101712462Y-98350000D01*
X303149680Y-162896330D02*
X303149680Y-160500692D01*
X95368750Y-165100592D02*
X95368750Y-168899992D01*
X115999962Y-136450000D02*
G75*
G02*
X116800048Y-137259302I-62J-800200D01*
G01*
X46260645Y-141212500D02*
X58849962Y-141212500D01*
X192887462Y-183949230D02*
G75*
G02*
X193087470Y-184149292I38J-199970D01*
G01*
X335075000Y-188750000D02*
X322474962Y-188750000D01*
X85843750Y-175349992D02*
X85843750Y-187949992D01*
X79943462Y-160300700D02*
G75*
G02*
X79743500Y-160100700I38J200000D01*
G01*
X245475000Y-156299992D02*
G75*
G02*
X246285645Y-155499968I800200J-108D01*
G01*
X230299862Y-136450000D02*
G75*
G02*
X231100048Y-137259302I38J-800200D01*
G01*
X193087500Y-130800000D02*
X193087500Y-118199992D01*
X307300000Y-137259301D02*
X307300000Y-149849992D01*
X87424962Y-117400000D02*
G75*
G02*
X88225048Y-118209302I-62J-800200D01*
G01*
X255799962Y-150650000D02*
G75*
G02*
X255000000Y-149850000I38J800000D01*
G01*
X136748145Y-117400000D02*
X149337462Y-117400000D01*
X49850062Y-172806330D02*
X49850062Y-172806250D01*
X139812462Y-98350000D02*
G75*
G02*
X140612548Y-99159302I-62J-800200D01*
G01*
X307387500Y-130800000D02*
X307387500Y-118199992D01*
X274860645Y-136450000D02*
X287449962Y-136450000D01*
X136737462Y-131600000D02*
G75*
G02*
X135937500Y-130800000I38J800000D01*
G01*
X79743500Y-157275197D02*
X79743500Y-160100700D01*
X346431000Y-138225197D02*
X346431000Y-141050700D01*
X97837500Y-130800000D02*
X97837500Y-118199992D01*
X74919162Y-170569800D02*
G75*
G02*
X74719200Y-170369800I38J200000D01*
G01*
X49050000Y-170662500D02*
X49050000Y-167262492D01*
X347256500Y-143849492D02*
G75*
G02*
X347056500Y-144049500I-200100J92D01*
G01*
X211249962Y-136450000D02*
G75*
G02*
X212050048Y-137259302I-62J-800200D01*
G01*
X330312500Y-112550000D02*
X317712462Y-112550000D01*
X322830962Y-141250700D02*
G75*
G02*
X322631000Y-141050700I38J200000D01*
G01*
X59650000Y-154612492D02*
G75*
G02*
X58850000Y-155412500I-800100J92D01*
G01*
X95456250Y-175349992D02*
G75*
G02*
X96261918Y-174549970I800050J-8D01*
G01*
X112125000Y-156299992D02*
G75*
G02*
X112935645Y-155499968I800200J-108D01*
G01*
X346431000Y-144249592D02*
X346431000Y-150119492D01*
X79743500Y-169169492D02*
G75*
G02*
X79543500Y-169369500I-200100J92D01*
G01*
X207487462Y-179349360D02*
X244238500Y-179349360D01*
X59650000Y-142021801D02*
X59650000Y-154612492D01*
X346431000Y-150119492D02*
G75*
G02*
X346231000Y-150319500I-200100J92D01*
G01*
X278725000Y-187949992D02*
G75*
G02*
X277925000Y-188750000I-800100J92D01*
G01*
X278812500Y-111750000D02*
X278812500Y-99150092D01*
X127223145Y-98350000D02*
X139812462Y-98350000D01*
X321587500Y-118209301D02*
X321587500Y-130799992D01*
X216012462Y-98350000D02*
G75*
G02*
X216812548Y-99159302I-62J-800200D01*
G01*
X222462462Y-112550000D02*
G75*
G02*
X221662500Y-111750000I38J800000D01*
G01*
X354124962Y-155500000D02*
G75*
G02*
X354925048Y-156309302I-62J-800200D01*
G01*
X306500000Y-150650000D02*
X293899962Y-150650000D01*
X155938500Y-184149192D02*
X155938500Y-186979392D01*
D11*
X342628862Y-194650000D02*
X332589262Y-194650000D01*
D12*
X155787462Y-131600000D02*
G75*
G02*
X154987500Y-130800000I38J800000D01*
G01*
X116000000Y-150650000D02*
X103399962Y-150650000D01*
X339886853Y-138020500D02*
X346230962Y-138020500D01*
X246162500Y-174099192D02*
G75*
G02*
X246364461Y-173899210I200000J-8D01*
G01*
X289148145Y-117400000D02*
X301737462Y-117400000D01*
X259675000Y-156309301D02*
X259675000Y-168899992D01*
X339481362Y-145850600D02*
G75*
G02*
X339681544Y-146046086I38J-200200D01*
G01*
X354925000Y-175359301D02*
X354925000Y-187949992D01*
X116887500Y-118199992D02*
G75*
G02*
X117698145Y-117399968I800200J-108D01*
G01*
X241523145Y-98350000D02*
X254112462Y-98350000D01*
X249349962Y-136450000D02*
G75*
G02*
X250150048Y-137259302I-62J-800200D01*
G01*
X277925000Y-169700000D02*
X265324962Y-169700000D01*
X221575000Y-168899992D02*
G75*
G02*
X220775000Y-169700000I-800100J92D01*
G01*
X188325000Y-156299992D02*
G75*
G02*
X189135645Y-155499968I800200J-108D01*
G01*
X235950000Y-137249992D02*
G75*
G02*
X236760645Y-136449968I800200J-108D01*
G01*
X55249962Y-179150000D02*
G75*
G02*
X56050048Y-179959302I-62J-800200D01*
G01*
X49050000Y-167262492D02*
G75*
G02*
X49860645Y-166462468I800200J-108D01*
G01*
X326549962Y-160300700D02*
X327575250Y-160300700D01*
X335074962Y-174550000D02*
G75*
G02*
X335875048Y-175359302I-62J-800200D01*
G01*
X207287500Y-184149192D02*
X207287500Y-187949992D01*
X354125000Y-169700000D02*
X341524962Y-169700000D01*
D11*
X84495062Y-92450000D02*
G75*
G02*
X82662066Y-91249991I38J2000000D01*
G01*
D12*
X74025000Y-130800000D02*
X74025000Y-118200092D01*
X103399962Y-150650000D02*
G75*
G02*
X102600000Y-149850000I38J800000D01*
G01*
X307300000Y-149849992D02*
G75*
G02*
X306500000Y-150650000I-800100J92D01*
G01*
X49050000Y-179949992D02*
G75*
G02*
X49860645Y-179149968I800200J-108D01*
G01*
X339881462Y-150319500D02*
G75*
G02*
X339681500Y-150119500I38J200000D01*
G01*
X265335645Y-174550000D02*
X277924962Y-174550000D01*
X338456262Y-141250700D02*
X339481500Y-141250700D01*
X240625000Y-168899992D02*
G75*
G02*
X239825000Y-169700000I-800100J92D01*
G01*
X156138462Y-179349360D02*
X192887500Y-179349360D01*
X334524750Y-157270492D02*
X334524750Y-160100692D01*
X145462500Y-99149992D02*
G75*
G02*
X146273145Y-98349968I800200J-108D01*
G01*
X263637500Y-131600000D02*
X251037462Y-131600000D01*
X324056250Y-141050692D02*
X324056250Y-137249992D01*
X154412462Y-174880400D02*
G75*
G02*
X154212500Y-174680400I38J200000D01*
G01*
X244438500Y-179149392D02*
G75*
G02*
X244238500Y-179349400I-200000J-8D01*
G01*
X334324762Y-157070500D02*
G75*
G02*
X334524800Y-157270492I38J-200000D01*
G01*
X303775162Y-163099500D02*
X303349662Y-163099500D01*
X235062462Y-98350000D02*
G75*
G02*
X235862548Y-99159302I-62J-800200D01*
G01*
X308999450Y-169569492D02*
X308999450Y-170369792D01*
X179610645Y-136450000D02*
X192199962Y-136450000D01*
X196962462Y-98350000D02*
G75*
G02*
X197762548Y-99159302I-62J-800200D01*
G01*
X254112462Y-98350000D02*
G75*
G02*
X254912548Y-99159302I-62J-800200D01*
G01*
X304118762Y-174550000D02*
G75*
G02*
X304918800Y-175349992I38J-800000D01*
G01*
X155738462Y-187179430D02*
X149388362Y-187179430D01*
X341405400Y-151319800D02*
X341405400Y-150514987D01*
X317806662Y-151519800D02*
G75*
G02*
X317606700Y-151319800I38J200000D01*
G01*
X320705700Y-151519800D02*
X317806662Y-151519800D01*
X303975150Y-169169492D02*
X303975150Y-163299492D01*
X72793862Y-163099500D02*
X72368462Y-163099500D01*
X340725000Y-187950000D02*
X340725000Y-175349992D01*
X221662500Y-111750000D02*
X221662500Y-99149992D01*
X217699962Y-150650000D02*
G75*
G02*
X216900000Y-149850000I38J800000D01*
G01*
X116887500Y-130800000D02*
X116887500Y-118199992D01*
X95368750Y-156299992D02*
X95368750Y-160100692D01*
X338256250Y-146050592D02*
G75*
G02*
X338453434Y-145850571I200050J-8D01*
G01*
X193887462Y-188750000D02*
G75*
G02*
X193087500Y-187950000I38J800000D01*
G01*
X170085645Y-155500000D02*
X182674962Y-155500000D01*
D11*
X66403862Y-194650000D02*
X56364262Y-194650000D01*
D12*
X182675000Y-169700000D02*
X170074962Y-169700000D01*
X46249962Y-136362500D02*
G75*
G02*
X45450000Y-135562500I38J800000D01*
G01*
X305700440Y-170369792D02*
X305700440Y-169567212D01*
D11*
X377974979Y-170065292D02*
X377975000Y-170065292D01*
D12*
X83462500Y-99159301D02*
X83462500Y-111749992D01*
X83462500Y-111749992D02*
G75*
G02*
X82662500Y-112550000I-800100J92D01*
G01*
X111237500Y-131600000D02*
X98637462Y-131600000D01*
X74824962Y-131600000D02*
G75*
G02*
X74025000Y-130800000I38J800000D01*
G01*
X259675000Y-168899992D02*
G75*
G02*
X258875000Y-169700000I-800100J92D01*
G01*
X341205262Y-150319500D02*
G75*
G02*
X341405444Y-150514986I38J-200200D01*
G01*
X49850062Y-172806250D02*
X55249962Y-172806250D01*
X207487462Y-179349360D02*
G75*
G02*
X207287546Y-179150941I38J199960D01*
G01*
X259762500Y-99149992D02*
G75*
G02*
X260573145Y-98349968I800200J-108D01*
G01*
X96794000Y-160100692D02*
G75*
G02*
X96594000Y-160300700I-200100J92D01*
G01*
X130287500Y-131600000D02*
X117687462Y-131600000D01*
X327775250Y-160100692D02*
X327775250Y-157270492D01*
X177912462Y-98350000D02*
G75*
G02*
X178712548Y-99159302I-62J-800200D01*
G01*
X207287500Y-118209301D02*
X207287500Y-130799992D01*
X235062500Y-112550000D02*
X222462462Y-112550000D01*
X329699162Y-170569800D02*
G75*
G02*
X329499200Y-170369792I38J200000D01*
G01*
X322430962Y-138020500D02*
G75*
G02*
X322631049Y-138225198I-62J-200200D01*
G01*
X169275000Y-156299992D02*
G75*
G02*
X170085645Y-155499968I800200J-108D01*
G01*
X340725000Y-156299992D02*
G75*
G02*
X341535645Y-155499968I800200J-108D01*
G01*
X296975000Y-169700000D02*
X284374962Y-169700000D01*
X324056250Y-149849992D02*
X324056250Y-146050592D01*
D11*
X187558589Y-92746089D02*
X188874625Y-94062126D01*
D12*
X202612500Y-99149992D02*
G75*
G02*
X203423145Y-98349968I800200J-108D01*
G01*
X360574962Y-188750000D02*
G75*
G02*
X359775000Y-187950000I38J800000D01*
G01*
X45450000Y-122962492D02*
G75*
G02*
X46260645Y-122162468I800200J-108D01*
G01*
X108162462Y-112550000D02*
G75*
G02*
X107362500Y-111750000I38J800000D01*
G01*
X315055930Y-141450692D02*
G75*
G02*
X315255930Y-141250630I200070J-8D01*
G01*
X145375000Y-156309301D02*
X145375000Y-168899992D01*
D11*
X74198076Y-196150000D02*
G75*
G02*
X76787677Y-194649971I2598124J-1500000D01*
G01*
D12*
X78018200Y-169569492D02*
X78018200Y-170369792D01*
X78018200Y-169569492D02*
G75*
G02*
X78212970Y-169369474I200200J-108D01*
G01*
X251037462Y-131600000D02*
G75*
G02*
X250237500Y-130800000I38J800000D01*
G01*
X150225000Y-168900000D02*
X150225000Y-156299992D01*
X251188500Y-184149192D02*
G75*
G02*
X251388462Y-183949200I200000J-8D01*
G01*
D11*
X56364262Y-194650000D02*
G75*
G02*
X55651935Y-194351920I138J1000500D01*
G01*
D12*
X208185645Y-155500000D02*
X220774962Y-155500000D01*
X89806250Y-150650000D02*
X77206262Y-150650000D01*
X337456250Y-150650000D02*
X324856262Y-150650000D01*
X324861918Y-136450000D02*
X337456262Y-136450000D01*
X310724750Y-165100592D02*
G75*
G02*
X310921934Y-164900571I200050J-8D01*
G01*
X145462500Y-111750000D02*
X145462500Y-99149992D01*
X269200000Y-137259301D02*
X269200000Y-149849992D01*
X131985645Y-155500000D02*
X144574962Y-155500000D01*
X246274962Y-169700000D02*
G75*
G02*
X245475000Y-168900000I38J800000D01*
G01*
X241512462Y-112550000D02*
G75*
G02*
X240712500Y-111750000I38J800000D01*
G01*
X250988462Y-187179430D02*
X244638362Y-187179430D01*
X155798145Y-117400000D02*
X168387462Y-117400000D01*
X189124962Y-169700000D02*
G75*
G02*
X188325000Y-168900000I38J800000D01*
G01*
X116800000Y-137259301D02*
X116800000Y-149849992D01*
X72168430Y-162899492D02*
X72168430Y-160500692D01*
X278725000Y-156309301D02*
X278725000Y-168899992D01*
X154212500Y-174099292D02*
X154212500Y-174680400D01*
X139812500Y-112550000D02*
X127212462Y-112550000D01*
X74835645Y-117400000D02*
X87424962Y-117400000D01*
X255810645Y-136450000D02*
X268399962Y-136450000D01*
X331200000Y-118199992D02*
G75*
G02*
X332010645Y-117399968I800200J-108D01*
G01*
X148566562Y-181150470D02*
X148988500Y-181150470D01*
X95368750Y-165100592D02*
G75*
G02*
X95565934Y-164900571I200050J-8D01*
G01*
X89112462Y-112550000D02*
G75*
G02*
X88312500Y-111750000I38J800000D01*
G01*
X227235645Y-155500000D02*
X239824962Y-155500000D01*
X273962500Y-111749992D02*
G75*
G02*
X273162500Y-112550000I-800100J92D01*
G01*
X347256500Y-141455397D02*
X347256500Y-143849492D01*
X103543500Y-163299492D02*
G75*
G02*
X103738270Y-163099474I200200J-108D01*
G01*
X72993900Y-169169500D02*
X72993900Y-163294987D01*
X334724762Y-160300700D02*
X335150262Y-160300700D01*
X216812500Y-111749992D02*
G75*
G02*
X216012500Y-112550000I-800100J92D01*
G01*
X193087500Y-179149392D02*
G75*
G02*
X192887500Y-179349400I-200000J-8D01*
G01*
X198649962Y-150650000D02*
G75*
G02*
X197850000Y-149850000I38J800000D01*
G01*
X226337500Y-130799992D02*
G75*
G02*
X225537500Y-131600000I-800100J92D01*
G01*
X341535645Y-155500000D02*
X354124962Y-155500000D01*
X341524962Y-188750000D02*
G75*
G02*
X340725000Y-187950000I38J800000D01*
G01*
X187437462Y-117400000D02*
G75*
G02*
X188237548Y-118209302I-62J-800200D01*
G01*
X131974962Y-169700000D02*
G75*
G02*
X131175000Y-168900000I38J800000D01*
G01*
X283575000Y-156299992D02*
G75*
G02*
X284385645Y-155499968I800200J-108D01*
G01*
X148562362Y-183949230D02*
G75*
G02*
X148362543Y-183743781I138J200030D01*
G01*
X244587462Y-117400000D02*
G75*
G02*
X245387548Y-118209302I-62J-800200D01*
G01*
X268399962Y-136450000D02*
G75*
G02*
X269200048Y-137259302I-62J-800200D01*
G01*
D11*
X308069684Y-92742815D02*
G75*
G02*
X308783732Y-92450017I706916J-706885D01*
G01*
D12*
X283487500Y-118209301D02*
X283487500Y-130799992D01*
X168387462Y-117400000D02*
G75*
G02*
X169187548Y-118209302I-62J-800200D01*
G01*
X45450000Y-99149992D02*
G75*
G02*
X46260645Y-98349968I800200J-108D01*
G01*
X251188500Y-186979392D02*
G75*
G02*
X250988462Y-187179400I-200000J-8D01*
G01*
X244438500Y-186973980D02*
X244438500Y-184149292D01*
X165312462Y-112550000D02*
G75*
G02*
X164512500Y-111750000I38J800000D01*
G01*
X254912500Y-111749992D02*
G75*
G02*
X254112500Y-112550000I-800100J92D01*
G01*
X101712500Y-112550000D02*
X89112462Y-112550000D01*
X305900462Y-170569800D02*
G75*
G02*
X305700500Y-170369792I38J200000D01*
G01*
X154212414Y-174099292D02*
X154212500Y-174099292D01*
X320905700Y-150519592D02*
X320905700Y-151319792D01*
X304177990Y-157070500D02*
X310524762Y-157070500D01*
X146262462Y-112550000D02*
G75*
G02*
X145462500Y-111750000I38J800000D01*
G01*
D11*
X336762954Y-91250000D02*
G75*
G02*
X342435577Y-93125000I2749546J-1200000D01*
G01*
D12*
X278725000Y-175359301D02*
X278725000Y-187949992D01*
X169275000Y-168900000D02*
X169275000Y-156299992D01*
X178800000Y-137249992D02*
G75*
G02*
X179610645Y-136449968I800200J-108D01*
G01*
X49050000Y-183350000D02*
X49050000Y-179949992D01*
X373975000Y-118209301D02*
X373975000Y-130799992D01*
X255000000Y-137249992D02*
G75*
G02*
X255810645Y-136449968I800200J-108D01*
G01*
X150912500Y-174680392D02*
X150912500Y-174099192D01*
X177912500Y-112550000D02*
X165312462Y-112550000D01*
X226425000Y-168900000D02*
X226425000Y-156299992D01*
X327775250Y-160100692D02*
G75*
G02*
X327575250Y-160300750I-200050J-8D01*
G01*
X108856250Y-188750000D02*
X96256262Y-188750000D01*
X197762500Y-99159301D02*
X197762500Y-111749992D01*
X72993900Y-157270592D02*
G75*
G02*
X73199254Y-157070466I200200J-8D01*
G01*
X329499150Y-170369792D02*
X329499150Y-169569492D01*
X344505800Y-151519800D02*
X341605362Y-151519800D01*
X165323145Y-98350000D02*
X177912462Y-98350000D01*
X338456262Y-141250700D02*
G75*
G02*
X338256300Y-141050692I38J200000D01*
G01*
X72168430Y-160500692D02*
G75*
G02*
X72368430Y-160300630I200070J-8D01*
G01*
X324856262Y-150650000D02*
G75*
G02*
X324056300Y-149849992I38J800000D01*
G01*
X81974418Y-155500000D02*
X94568762Y-155500000D01*
X304175162Y-169369500D02*
G75*
G02*
X303975200Y-169169492I38J200000D01*
G01*
X159662500Y-99159301D02*
X159662500Y-111749992D01*
X192199962Y-136450000D02*
G75*
G02*
X193000048Y-137259302I-62J-800200D01*
G01*
X245387500Y-118209301D02*
X245387500Y-130799992D01*
X331200000Y-130800000D02*
X331200000Y-118199992D01*
D11*
X169819684Y-193042815D02*
X168505385Y-194357115D01*
D12*
X310724750Y-157270492D02*
X310724750Y-160100692D01*
X207375000Y-156299992D02*
G75*
G02*
X208185645Y-155499968I800200J-108D01*
G01*
X331112500Y-111749992D02*
G75*
G02*
X330312500Y-112550000I-800100J92D01*
G01*
X58849962Y-122162500D02*
G75*
G02*
X59650048Y-122971802I-62J-800200D01*
G01*
X155938500Y-184149192D02*
G75*
G02*
X156138462Y-183949200I200000J-8D01*
G01*
X206487500Y-131600000D02*
X193887462Y-131600000D01*
X273162500Y-112550000D02*
X260562462Y-112550000D01*
X117698145Y-117400000D02*
X130287462Y-117400000D01*
X312150000Y-156300092D02*
G75*
G02*
X312960645Y-155499968I800200J-8D01*
G01*
X227224962Y-169700000D02*
G75*
G02*
X226425000Y-168900000I38J800000D01*
G01*
X135937500Y-118199992D02*
G75*
G02*
X136748145Y-117399968I800200J-108D01*
G01*
X335350250Y-162899492D02*
G75*
G02*
X335150250Y-163099550I-200050J-8D01*
G01*
X321675000Y-187950000D02*
X321675000Y-175349992D01*
X73193862Y-169369500D02*
G75*
G02*
X72993900Y-169169500I38J200000D01*
G01*
X121562500Y-111749992D02*
G75*
G02*
X120762500Y-112550000I-800100J92D01*
G01*
X58849862Y-98350000D02*
G75*
G02*
X59650048Y-99159302I38J-800200D01*
G01*
X122460645Y-174550000D02*
X135049962Y-174550000D01*
X159750000Y-149850000D02*
X159750000Y-137249992D01*
X240712500Y-99149992D02*
G75*
G02*
X241523145Y-98349968I800200J-108D01*
G01*
X151114461Y-173899240D02*
X154012362Y-173899240D01*
D11*
X87542885Y-194357115D02*
G75*
G02*
X86835786Y-194649961I-707085J707215D01*
G01*
D12*
X231998145Y-117400000D02*
X244587462Y-117400000D01*
X373975000Y-175359301D02*
X373975000Y-187949992D01*
X88225000Y-118209301D02*
X88225000Y-130799992D01*
X302537500Y-130799992D02*
G75*
G02*
X301737500Y-131600000I-800100J92D01*
G01*
X252013500Y-181350492D02*
X252013500Y-183749192D01*
X340725000Y-175349992D02*
G75*
G02*
X341535645Y-174549968I800200J-108D01*
G01*
X72793862Y-163099500D02*
G75*
G02*
X72993945Y-163294986I-62J-200200D01*
G01*
X315881400Y-141050692D02*
X315881400Y-138220492D01*
X344705800Y-150519592D02*
X344705800Y-151319792D01*
D11*
X365082184Y-193042815D02*
X363767885Y-194357115D01*
D12*
X58850000Y-112550000D02*
X46249962Y-112550000D01*
X192200000Y-150650000D02*
X179599962Y-150650000D01*
X154412462Y-174880400D02*
X155738462Y-174880400D01*
X94568750Y-169700000D02*
X81968762Y-169700000D01*
X316912500Y-111750000D02*
X316912500Y-99149992D01*
X173150000Y-150650000D02*
X160549962Y-150650000D01*
X173149962Y-136450000D02*
G75*
G02*
X173950048Y-137259302I-62J-800200D01*
G01*
X108856262Y-174550000D02*
G75*
G02*
X109656300Y-175349992I38J-800000D01*
G01*
X230300000Y-150650000D02*
X217699962Y-150650000D01*
X135850000Y-137259301D02*
X135850000Y-149849992D01*
D11*
X41450000Y-96350012D02*
G75*
G02*
X43450012Y-94350000I2000000J12D01*
G01*
D12*
X46260645Y-98350000D02*
X58849862Y-98350000D01*
X151024962Y-169700000D02*
G75*
G02*
X150225000Y-168900000I38J800000D01*
G01*
X193000000Y-149849992D02*
G75*
G02*
X192200000Y-150650000I-800100J92D01*
G01*
D11*
X159489423Y-90950000D02*
G75*
G02*
X156891347Y-92449991I-2598123J1500100D01*
G01*
X377975000Y-190749992D02*
G75*
G02*
X375975000Y-192750000I-2000100J92D01*
G01*
D12*
X291524418Y-174550000D02*
X304118762Y-174550000D01*
X174848145Y-117400000D02*
X187437462Y-117400000D01*
X81168750Y-160100692D02*
G75*
G02*
X80968750Y-160300750I-200050J-8D01*
G01*
X104169000Y-163099500D02*
X103738271Y-163099500D01*
X145375000Y-168899992D02*
G75*
G02*
X144575000Y-169700000I-800100J92D01*
G01*
X354125000Y-188750000D02*
X341524962Y-188750000D01*
X231987462Y-131600000D02*
G75*
G02*
X231187500Y-130800000I38J800000D01*
G01*
X335350250Y-160500692D02*
X335350250Y-162899492D01*
X293100000Y-137250092D02*
G75*
G02*
X293910645Y-136449968I800200J-8D01*
G01*
X103343500Y-169369500D02*
X102013071Y-169369500D01*
X131175000Y-168900000D02*
X131175000Y-156299992D01*
X101712462Y-98350000D02*
G75*
G02*
X102512548Y-99159302I-62J-800200D01*
G01*
D11*
X284826862Y-94350000D02*
X306048286Y-94350000D01*
D12*
X59650000Y-99159301D02*
X59650000Y-111749992D01*
X55238892Y-177806250D02*
X49849962Y-177806250D01*
X150912500Y-174680392D02*
G75*
G02*
X150712500Y-174880400I-200100J92D01*
G01*
X178712500Y-111749992D02*
G75*
G02*
X177912500Y-112550000I-800100J92D01*
G01*
X96794000Y-169169500D02*
X96794000Y-165096087D01*
X72449418Y-174550000D02*
X85043762Y-174550000D01*
X321675000Y-175349992D02*
G75*
G02*
X322485645Y-174549968I800200J-108D01*
G01*
X269287500Y-118199992D02*
G75*
G02*
X270098145Y-117399968I800200J-108D01*
G01*
X130287462Y-117400000D02*
G75*
G02*
X131087548Y-118209302I-62J-800200D01*
G01*
X45450000Y-154612500D02*
X45450000Y-142012492D01*
X70073145Y-98350000D02*
X82662362Y-98350000D01*
X207287500Y-184149192D02*
G75*
G02*
X207487462Y-183949200I200000J-8D01*
G01*
X312062500Y-99159301D02*
X312062500Y-111749992D01*
X310724750Y-169169492D02*
G75*
G02*
X310524750Y-169369550I-200050J-8D01*
G01*
X104369000Y-160505397D02*
X104369000Y-162899492D01*
X149188424Y-184149292D02*
X149188500Y-184149292D01*
D11*
X334929862Y-92449991D02*
X334929862Y-92450000D01*
D12*
X208174962Y-169700000D02*
G75*
G02*
X207375000Y-168900000I38J800000D01*
G01*
X269287500Y-130800000D02*
X269287500Y-118199992D01*
X245387500Y-130799992D02*
G75*
G02*
X244587500Y-131600000I-800100J92D01*
G01*
X322474962Y-188750000D02*
G75*
G02*
X321675000Y-187950000I38J800000D01*
G01*
X373975000Y-130799992D02*
G75*
G02*
X373175000Y-131600000I-800100J92D01*
G01*
X317606690Y-151319800D02*
X317606690Y-150514572D01*
X301737500Y-131600000D02*
X289137462Y-131600000D01*
D11*
X229848262Y-192750000D02*
G75*
G02*
X230552265Y-193039765I38J-1000000D01*
G01*
D12*
X197850000Y-149850000D02*
X197850000Y-137249992D01*
X158862462Y-98350000D02*
G75*
G02*
X159662548Y-99159302I-62J-800200D01*
G01*
X184362462Y-112550000D02*
G75*
G02*
X183562500Y-111750000I38J800000D01*
G01*
X101818300Y-169569492D02*
G75*
G02*
X102013070Y-169369474I200200J-108D01*
G01*
X344599962Y-117400000D02*
G75*
G02*
X345400048Y-118209302I-62J-800200D01*
G01*
X332799550Y-170369792D02*
G75*
G02*
X332599550Y-170569850I-200050J-8D01*
G01*
X173950000Y-149849992D02*
G75*
G02*
X173150000Y-150650000I-800100J92D01*
G01*
X197850000Y-137249992D02*
G75*
G02*
X198660645Y-136449968I800200J-108D01*
G01*
X122449962Y-188750000D02*
G75*
G02*
X121650000Y-187950000I38J800000D01*
G01*
X112935645Y-155500000D02*
X125524862Y-155500000D01*
X96993962Y-169369500D02*
G75*
G02*
X96794000Y-169169500I38J200000D01*
G01*
X212137500Y-130800000D02*
X212137500Y-118199992D01*
X126325000Y-156309301D02*
X126325000Y-168899992D01*
X102600000Y-137249992D02*
G75*
G02*
X103410645Y-136449968I800200J-108D01*
G01*
X90606250Y-137249992D02*
X90606250Y-149849992D01*
X244438500Y-179149392D02*
X244438500Y-175080392D01*
X178800000Y-149850000D02*
X178800000Y-137249992D01*
X187437500Y-131600000D02*
X174837462Y-131600000D01*
X109656250Y-187949992D02*
G75*
G02*
X108856250Y-188750050I-800050J-8D01*
G01*
X112125000Y-168900000D02*
X112125000Y-156299992D01*
X59650000Y-111749992D02*
G75*
G02*
X58850000Y-112550000I-800100J92D01*
G01*
X102600000Y-149850000D02*
X102600000Y-137249992D01*
X339681500Y-150119500D02*
X339681500Y-146046087D01*
X344705800Y-150519592D02*
G75*
G02*
X344900570Y-150319474I200200J-8D01*
G01*
X72993900Y-160100692D02*
X72993900Y-157270592D01*
D11*
X113376862Y-94350000D02*
G75*
G02*
X112674634Y-94062117I38J1000500D01*
G01*
D12*
X265324962Y-169700000D02*
G75*
G02*
X264525000Y-168900000I38J800000D01*
G01*
X131087500Y-118209301D02*
X131087500Y-130799992D01*
X82662362Y-98350000D02*
G75*
G02*
X83462548Y-99159302I38J-800200D01*
G01*
X231187500Y-118199992D02*
G75*
G02*
X231998145Y-117399968I800200J-108D01*
G01*
X125525000Y-169700000D02*
X112924962Y-169700000D01*
X98317862Y-169369500D02*
G75*
G02*
X98517945Y-169564986I-62J-200200D01*
G01*
X120762462Y-98350000D02*
G75*
G02*
X121562548Y-99159302I-62J-800200D01*
G01*
X344600000Y-131600000D02*
X331999962Y-131600000D01*
X305700454Y-170369792D02*
X305700440Y-170369792D01*
X293012500Y-111749992D02*
G75*
G02*
X292212500Y-112550000I-800100J92D01*
G01*
X55250000Y-184150000D02*
X49849962Y-184150000D01*
X198660645Y-136450000D02*
X211249962Y-136450000D01*
X289137462Y-131600000D02*
G75*
G02*
X288337500Y-130800000I38J800000D01*
G01*
X151035645Y-155500000D02*
X163624962Y-155500000D01*
D11*
X43449962Y-192750000D02*
G75*
G02*
X41450000Y-190750000I38J2000000D01*
G01*
D12*
X111237462Y-117400000D02*
G75*
G02*
X112037548Y-118209302I-62J-800200D01*
G01*
X148988462Y-183949230D02*
X148562362Y-183949230D01*
X317406562Y-150319500D02*
X316081362Y-150319500D01*
X55249962Y-172806250D02*
G75*
G02*
X56050050Y-173606292I38J-800050D01*
G01*
X217710645Y-136450000D02*
X230299862Y-136450000D01*
X293910645Y-136450000D02*
X306499962Y-136450000D01*
X131087500Y-130799992D02*
G75*
G02*
X130287500Y-131600000I-800100J92D01*
G01*
X174037500Y-130800000D02*
X174037500Y-118199992D01*
X82662500Y-112550000D02*
X70062462Y-112550000D01*
X216812500Y-99159301D02*
X216812500Y-111749992D01*
X94568762Y-155500000D02*
G75*
G02*
X95368800Y-156299992I38J-800000D01*
G01*
D11*
X88857184Y-193042815D02*
X87542885Y-194357115D01*
D12*
X46249962Y-112550000D02*
G75*
G02*
X45450000Y-111750000I38J800000D01*
G01*
X360585645Y-117400000D02*
X373174962Y-117400000D01*
D11*
X263507451Y-196150000D02*
G75*
G02*
X266105462Y-194649974I2598049J-1499900D01*
G01*
D12*
X216012500Y-112550000D02*
X203412462Y-112550000D01*
X101818300Y-170369792D02*
G75*
G02*
X101618300Y-170569800I-200100J92D01*
G01*
X211250000Y-150650000D02*
X198649962Y-150650000D01*
X320787462Y-117400000D02*
G75*
G02*
X321587548Y-118209302I-62J-800200D01*
G01*
X287449962Y-136450000D02*
G75*
G02*
X288250048Y-137259302I-62J-800200D01*
G01*
X345400000Y-118209301D02*
X345400000Y-130799992D01*
X56050000Y-170662492D02*
G75*
G02*
X55250000Y-171462500I-800100J92D01*
G01*
X85843750Y-187949992D02*
G75*
G02*
X85043750Y-188750050I-800050J-8D01*
G01*
X317723145Y-98350000D02*
X330312462Y-98350000D01*
X109656250Y-175349992D02*
X109656250Y-187949992D01*
D11*
X282098262Y-92450000D02*
G75*
G02*
X282808589Y-92746089I38J-1000000D01*
G01*
D12*
X149393853Y-174880400D02*
X150712500Y-174880400D01*
D11*
X365082184Y-193042815D02*
G75*
G02*
X365782092Y-192750016I706916J-706885D01*
G01*
D12*
X251813462Y-181150470D02*
G75*
G02*
X252013530Y-181350492I38J-200030D01*
G01*
X326350000Y-165100592D02*
G75*
G02*
X326544770Y-164900574I200200J-108D01*
G01*
X278812500Y-99150092D02*
G75*
G02*
X279623145Y-98349968I800200J-8D01*
G01*
X95568762Y-160300700D02*
G75*
G02*
X95368800Y-160100692I38J200000D01*
G01*
X292212500Y-112550000D02*
X279612462Y-112550000D01*
X88225000Y-130799992D02*
G75*
G02*
X87425000Y-131600000I-800100J92D01*
G01*
X293100000Y-149850000D02*
X293100000Y-137250092D01*
D11*
X134269462Y-194650000D02*
G75*
G02*
X136867494Y-196150031I-62J-3000000D01*
G01*
D12*
X98317862Y-169369500D02*
X96993962Y-169369500D01*
D11*
X118756448Y-194353324D02*
X117441618Y-193038493D01*
D12*
X144575000Y-169700000D02*
X131974962Y-169700000D01*
X322631000Y-150119492D02*
G75*
G02*
X322431000Y-150319500I-200100J92D01*
G01*
X274050000Y-137249992D02*
G75*
G02*
X274860645Y-136449968I800200J-108D01*
G01*
X288337500Y-130800000D02*
X288337500Y-118199992D01*
D11*
X167798286Y-194650000D02*
X144661777Y-194650000D01*
D12*
X322631000Y-138225197D02*
X322631000Y-141050700D01*
X335875000Y-175359301D02*
X335875000Y-187949992D01*
X341524962Y-169700000D02*
G75*
G02*
X340725000Y-168900000I38J800000D01*
G01*
X207375000Y-168900000D02*
X207375000Y-156299992D01*
X311949962Y-164900600D02*
X310921934Y-164900600D01*
X225537462Y-117400000D02*
G75*
G02*
X226337548Y-118209302I-62J-800200D01*
G01*
X49050000Y-177006292D02*
X49050000Y-173606392D01*
X244638362Y-187179430D02*
G75*
G02*
X244438543Y-186973981I138J200030D01*
G01*
X298673145Y-98350000D02*
X311262462Y-98350000D01*
X101618300Y-170569800D02*
X98717862Y-170569800D01*
X323856262Y-145850600D02*
X322825771Y-145850600D01*
X310924762Y-160300700D02*
X311950000Y-160300700D01*
X188237500Y-118209301D02*
X188237500Y-130799992D01*
X332799550Y-169569492D02*
X332799550Y-170369792D01*
X249262362Y-173899240D02*
G75*
G02*
X249462460Y-174099292I138J-199960D01*
G01*
X297775000Y-156309301D02*
X297775000Y-168899992D01*
X155938500Y-175085097D02*
X155938500Y-179150941D01*
X103543500Y-157275197D02*
X103543500Y-160100700D01*
X146273145Y-98350000D02*
X158862462Y-98350000D01*
X202612500Y-111750000D02*
X202612500Y-99149992D01*
X49050000Y-173606392D02*
G75*
G02*
X49850062Y-172806300I800000J92D01*
G01*
X354124962Y-174550000D02*
G75*
G02*
X354925048Y-175359302I-62J-800200D01*
G01*
X81168750Y-168899992D02*
X81168750Y-165100592D01*
X164425000Y-168899992D02*
G75*
G02*
X163625000Y-169700000I-800100J92D01*
G01*
D11*
X254739423Y-90950000D02*
G75*
G02*
X259935577Y-90950000I2598077J-1499998D01*
G01*
D12*
X96999353Y-157070500D02*
X103343362Y-157070500D01*
X310524750Y-169369500D02*
X309196634Y-169369500D01*
X126412500Y-99149992D02*
G75*
G02*
X127223145Y-98349968I800200J-108D01*
G01*
D11*
X350423076Y-196150000D02*
G75*
G02*
X345226924Y-196150000I-2598076J1500000D01*
G01*
D12*
X359775000Y-130800000D02*
X359775000Y-118199992D01*
X341535645Y-174550000D02*
X354124962Y-174550000D01*
X71643750Y-175349992D02*
G75*
G02*
X72449418Y-174549970I800050J-8D01*
G01*
X206487362Y-117400000D02*
G75*
G02*
X207287548Y-118209302I38J-800200D01*
G01*
X127212462Y-112550000D02*
G75*
G02*
X126412500Y-111750000I38J800000D01*
G01*
X148362500Y-183743780D02*
X148362500Y-181350492D01*
X332010645Y-117400000D02*
X344599962Y-117400000D01*
X373175000Y-131600000D02*
X360574962Y-131600000D01*
X334524750Y-169169492D02*
G75*
G02*
X334324750Y-169369550I-200050J-8D01*
G01*
X320905700Y-151319792D02*
G75*
G02*
X320705700Y-151519800I-200100J92D01*
G01*
X305500462Y-169369500D02*
X304175162Y-169369500D01*
D11*
X255713262Y-194650000D02*
G75*
G02*
X258311282Y-196150009I-62J-3000000D01*
G01*
D12*
X304918750Y-175349992D02*
X304918750Y-187949992D01*
X250237500Y-118200092D02*
G75*
G02*
X251048145Y-117399968I800200J-8D01*
G01*
X46249962Y-155412500D02*
G75*
G02*
X45450000Y-154612500I38J800000D01*
G01*
X307387500Y-118199992D02*
G75*
G02*
X308198145Y-117399968I800200J-108D01*
G01*
X293899962Y-150650000D02*
G75*
G02*
X293100000Y-149850000I38J800000D01*
G01*
X335962500Y-99149992D02*
G75*
G02*
X336773145Y-98349968I800200J-108D01*
G01*
X212050000Y-137259301D02*
X212050000Y-149849992D01*
X154987500Y-130800000D02*
X154987500Y-118199992D01*
X250988462Y-174880400D02*
G75*
G02*
X251188549Y-175085098I-62J-200200D01*
G01*
X192887462Y-183949230D02*
X156138462Y-183949230D01*
X288337500Y-118199992D02*
G75*
G02*
X289148145Y-117399968I800200J-108D01*
G01*
X359775000Y-187950000D02*
X359775000Y-175349992D01*
X264525000Y-175349992D02*
G75*
G02*
X265335645Y-174549968I800200J-108D01*
G01*
D11*
X350423076Y-196150000D02*
G75*
G02*
X353012677Y-194649971I2598124J-1500000D01*
G01*
D12*
X154900000Y-137259301D02*
X154900000Y-149849992D01*
X156138462Y-179349360D02*
G75*
G02*
X155938546Y-179150941I38J199960D01*
G01*
X135937500Y-130800000D02*
X135937500Y-118199992D01*
X148988462Y-183949230D02*
G75*
G02*
X149188470Y-184149292I38J-199970D01*
G01*
X70062462Y-112550000D02*
G75*
G02*
X69262500Y-111750000I38J800000D01*
G01*
X326549962Y-160300700D02*
G75*
G02*
X326350000Y-160100700I38J200000D01*
G01*
X335150262Y-160300700D02*
G75*
G02*
X335350300Y-160500692I38J-200000D01*
G01*
X335875000Y-187949992D02*
G75*
G02*
X335075000Y-188750000I-800100J92D01*
G01*
X163625000Y-169700000D02*
X151024962Y-169700000D01*
X303775162Y-163099500D02*
G75*
G02*
X303975200Y-163299492I38J-200000D01*
G01*
X96593962Y-164900600D02*
X95565934Y-164900600D01*
X96256262Y-188750000D02*
G75*
G02*
X95456300Y-187949992I38J800000D01*
G01*
D11*
X232576762Y-194650000D02*
G75*
G02*
X231864435Y-194351920I138J1000500D01*
G01*
D12*
X108173145Y-98350000D02*
X120762462Y-98350000D01*
X154900000Y-149849992D02*
G75*
G02*
X154100000Y-150650000I-800100J92D01*
G01*
X107362500Y-111750000D02*
X107362500Y-99149992D01*
X240625000Y-156309301D02*
X240625000Y-168899992D01*
X121650000Y-187950000D02*
X121650000Y-175349992D01*
X245475000Y-168900000D02*
X245475000Y-156299992D01*
X69262500Y-111750000D02*
X69262500Y-99149992D01*
X226337500Y-118209301D02*
X226337500Y-130799992D01*
X346230962Y-138020500D02*
G75*
G02*
X346431049Y-138225198I-62J-200200D01*
G01*
X283575000Y-168900000D02*
X283575000Y-156299992D01*
D11*
X142063701Y-196150000D02*
G75*
G02*
X144661777Y-194649980I2598099J-1500000D01*
G01*
D12*
X160560645Y-136450000D02*
X173149962Y-136450000D01*
X95456250Y-187949992D02*
X95456250Y-175349992D01*
X74519062Y-169369500D02*
G75*
G02*
X74719234Y-169564571I38J-200200D01*
G01*
X288250000Y-149849992D02*
G75*
G02*
X287450000Y-150650000I-800100J92D01*
G01*
X236760645Y-136450000D02*
X249349962Y-136450000D01*
D11*
X231864427Y-194351928D02*
X230552265Y-193039765D01*
D12*
X302537500Y-118209301D02*
X302537500Y-130799992D01*
X249350000Y-150650000D02*
X236749962Y-150650000D01*
X259762500Y-111750000D02*
X259762500Y-99149992D01*
X344705800Y-151319792D02*
G75*
G02*
X344505800Y-151519800I-200100J92D01*
G01*
D11*
X189576862Y-94350000D02*
X229848286Y-94350000D01*
D12*
X163624962Y-155500000D02*
G75*
G02*
X164425048Y-156309302I-62J-800200D01*
G01*
X290718750Y-175349992D02*
G75*
G02*
X291524418Y-174549970I800050J-8D01*
G01*
X212137500Y-118199992D02*
G75*
G02*
X212948145Y-117399968I800200J-108D01*
G01*
X263637462Y-117400000D02*
G75*
G02*
X264437548Y-118209302I-62J-800200D01*
G01*
X373175000Y-112550000D02*
X360574962Y-112550000D01*
X325550000Y-169700000D02*
X312949962Y-169700000D01*
X150137500Y-130799992D02*
G75*
G02*
X149337500Y-131600000I-800100J92D01*
G01*
X301737462Y-117400000D02*
G75*
G02*
X302537548Y-118209302I-62J-800200D01*
G01*
X324056250Y-137249992D02*
G75*
G02*
X324861918Y-136449970I800050J-8D01*
G01*
X315255930Y-141250700D02*
X315681400Y-141250700D01*
X74519062Y-169369500D02*
X73193862Y-169369500D01*
X95568762Y-160300700D02*
X96594000Y-160300700D01*
X287450000Y-150650000D02*
X274849962Y-150650000D01*
X277924962Y-155500000D02*
G75*
G02*
X278725048Y-156309302I-62J-800200D01*
G01*
X283487500Y-130799992D02*
G75*
G02*
X282687500Y-131600000I-800100J92D01*
G01*
X135049962Y-136450000D02*
G75*
G02*
X135850048Y-137259302I-62J-800200D01*
G01*
X203412462Y-112550000D02*
G75*
G02*
X202612500Y-111750000I38J800000D01*
G01*
X338256250Y-146050592D02*
X338256250Y-149849992D01*
X112037500Y-118209301D02*
X112037500Y-130799992D01*
D11*
X137333732Y-92450000D02*
X156891347Y-92450000D01*
X116738762Y-192750000D02*
X89557092Y-192750000D01*
D12*
X312150000Y-160100692D02*
G75*
G02*
X311950000Y-160300700I-200100J92D01*
G01*
X164512500Y-99149992D02*
G75*
G02*
X165323145Y-98349968I800200J-108D01*
G01*
X323856262Y-145850600D02*
G75*
G02*
X324056300Y-146050592I38J-200000D01*
G01*
X212937462Y-131600000D02*
G75*
G02*
X212137500Y-130800000I38J800000D01*
G01*
D11*
X167283662Y-92450000D02*
X186848262Y-92450000D01*
D12*
X279623145Y-98350000D02*
X292212462Y-98350000D01*
D11*
X363060786Y-194650000D02*
X353012677Y-194650000D01*
D12*
X254912500Y-99159301D02*
X254912500Y-111749992D01*
D11*
X306755385Y-94057115D02*
G75*
G02*
X306048286Y-94349961I-707085J707215D01*
G01*
D12*
X312960645Y-155500000D02*
X325549862Y-155500000D01*
X140612500Y-99159301D02*
X140612500Y-111749992D01*
X46260645Y-122162500D02*
X58849962Y-122162500D01*
X74025000Y-118200092D02*
G75*
G02*
X74835645Y-117399968I800200J-8D01*
G01*
X315881400Y-138220492D02*
G75*
G02*
X316086754Y-138020466I200200J-108D01*
G01*
X346431000Y-144249592D02*
G75*
G02*
X346625770Y-144049474I200200J-8D01*
G01*
X246162500Y-174680392D02*
X246162500Y-174099192D01*
X354925000Y-168899992D02*
G75*
G02*
X354125000Y-169700000I-800100J92D01*
G01*
X104369000Y-162899492D02*
G75*
G02*
X104169000Y-163099500I-200100J92D01*
G01*
X183562500Y-111750000D02*
X183562500Y-99149992D01*
X354925000Y-187949992D02*
G75*
G02*
X354125000Y-188750000I-800100J92D01*
G01*
X182674962Y-155500000D02*
G75*
G02*
X183475048Y-156309302I-62J-800200D01*
G01*
X154012362Y-173899240D02*
G75*
G02*
X154212460Y-174099292I138J-199960D01*
G01*
X305500462Y-169369500D02*
G75*
G02*
X305700487Y-169567211I38J-200000D01*
G01*
X79743500Y-165100592D02*
X79743500Y-169169492D01*
X360574962Y-131600000D02*
G75*
G02*
X359775000Y-130800000I38J800000D01*
G01*
X311949962Y-164900600D02*
G75*
G02*
X312150045Y-165096086I-62J-200200D01*
G01*
X251188500Y-175085097D02*
X251188500Y-180953021D01*
X315681262Y-144049500D02*
X315255962Y-144049500D01*
X220774962Y-155500000D02*
G75*
G02*
X221575048Y-156309302I-62J-800200D01*
G01*
X332799550Y-169569492D02*
G75*
G02*
X332996734Y-169369471I200050J-8D01*
G01*
X337456262Y-136450000D02*
G75*
G02*
X338256300Y-137249992I38J-800000D01*
G01*
X135850000Y-149849992D02*
G75*
G02*
X135050000Y-150650000I-800100J92D01*
G01*
X322431000Y-150319500D02*
X321100471Y-150319500D01*
X121650000Y-137249992D02*
G75*
G02*
X122460645Y-136449968I800200J-108D01*
G01*
X160549962Y-150650000D02*
G75*
G02*
X159750000Y-149850000I38J800000D01*
G01*
X201725000Y-169700000D02*
X189124962Y-169700000D01*
X173950000Y-137259301D02*
X173950000Y-149849992D01*
X193087500Y-179149392D02*
X193087500Y-175349992D01*
X55249862Y-166462500D02*
G75*
G02*
X56050048Y-167271802I38J-800200D01*
G01*
X116800000Y-149849992D02*
G75*
G02*
X116000000Y-150650000I-800100J92D01*
G01*
X164425000Y-156309301D02*
X164425000Y-168899992D01*
X315055954Y-143849492D02*
X315055930Y-143849492D01*
X258874962Y-155500000D02*
G75*
G02*
X259675048Y-156309302I-62J-800200D01*
G01*
D11*
X343409962Y-94350000D02*
G75*
G02*
X342435638Y-93125014I38J1000000D01*
G01*
D12*
X284385645Y-155500000D02*
X296974862Y-155500000D01*
X360585645Y-98350000D02*
X373174962Y-98350000D01*
X168387500Y-131600000D02*
X155787462Y-131600000D01*
X251048145Y-117400000D02*
X263637462Y-117400000D01*
X122449962Y-150650000D02*
G75*
G02*
X121650000Y-149850000I38J800000D01*
G01*
X179599962Y-150650000D02*
G75*
G02*
X178800000Y-149850000I38J800000D01*
G01*
X260562462Y-112550000D02*
G75*
G02*
X259762500Y-111750000I38J800000D01*
G01*
X236749962Y-150650000D02*
G75*
G02*
X235950000Y-149850000I38J800000D01*
G01*
X207287500Y-130799992D02*
G75*
G02*
X206487500Y-131600000I-800100J92D01*
G01*
X98637462Y-131600000D02*
G75*
G02*
X97837500Y-130800000I38J800000D01*
G01*
X159750000Y-137249992D02*
G75*
G02*
X160560645Y-136449968I800200J-108D01*
G01*
X303975150Y-160100692D02*
X303975150Y-157270492D01*
X279612462Y-112550000D02*
G75*
G02*
X278812500Y-111750000I38J800000D01*
G01*
X221575000Y-156309301D02*
X221575000Y-168899992D01*
X339681500Y-141050692D02*
G75*
G02*
X339481500Y-141250700I-200100J92D01*
G01*
X304918750Y-187949992D02*
G75*
G02*
X304118750Y-188750050I-800050J-8D01*
G01*
X154987500Y-118199992D02*
G75*
G02*
X155798145Y-117399968I800200J-108D01*
G01*
D11*
X336762954Y-91250000D02*
G75*
G02*
X334929862Y-92449962I-1833054J800100D01*
G01*
D12*
X288250000Y-137259301D02*
X288250000Y-149849992D01*
X193087500Y-187950000D02*
X193087500Y-184149292D01*
X117687462Y-131600000D02*
G75*
G02*
X116887500Y-130800000I38J800000D01*
G01*
X308799450Y-170569800D02*
X305900462Y-170569800D01*
X278725000Y-168899992D02*
G75*
G02*
X277925000Y-169700000I-800100J92D01*
G01*
D11*
X376941176Y-169065845D02*
G75*
G02*
X376941176Y-137084155I-541176J15990845D01*
G01*
D12*
X154099962Y-136450000D02*
G75*
G02*
X154900048Y-137259302I-62J-800200D01*
G01*
X249662462Y-174880400D02*
G75*
G02*
X249462500Y-174680400I38J200000D01*
G01*
X174837462Y-131600000D02*
G75*
G02*
X174037500Y-130800000I38J800000D01*
G01*
X207287500Y-175359301D02*
X207287500Y-179150941D01*
X72443762Y-188750000D02*
G75*
G02*
X71643800Y-187949992I38J800000D01*
G01*
X322830962Y-141250700D02*
X323856250Y-141250700D01*
X193898145Y-174550000D02*
X206487462Y-174550000D01*
X107362500Y-99149992D02*
G75*
G02*
X108173145Y-98349968I800200J-108D01*
G01*
X339681500Y-141050692D02*
X339681500Y-138220492D01*
X308198145Y-117400000D02*
X320787462Y-117400000D01*
D11*
X76989423Y-93125000D02*
G75*
G02*
X76015062Y-94349965I-974323J-225000D01*
G01*
D12*
X148362500Y-181350492D02*
G75*
G02*
X148566563Y-181150437I200200J-108D01*
G01*
X96593962Y-164900600D02*
G75*
G02*
X96794045Y-165096086I-62J-200200D01*
G01*
X76406250Y-149849992D02*
X76406250Y-137249992D01*
X315681262Y-144049500D02*
G75*
G02*
X315881444Y-144244986I38J-200200D01*
G01*
X359775000Y-118199992D02*
G75*
G02*
X360585645Y-117399968I800200J-108D01*
G01*
X331999962Y-131600000D02*
G75*
G02*
X331200000Y-130800000I38J800000D01*
G01*
X103543500Y-163299492D02*
X103543500Y-169169492D01*
X102512500Y-99159301D02*
X102512500Y-111749992D01*
X90606250Y-149849992D02*
G75*
G02*
X89806250Y-150650050I-800050J-8D01*
G01*
X45450000Y-111750000D02*
X45450000Y-99149992D01*
X312150000Y-168900000D02*
X312150000Y-165096087D01*
X74719190Y-170369800D02*
X74719190Y-169564572D01*
X59650000Y-135562492D02*
G75*
G02*
X58850000Y-136362500I-800100J92D01*
G01*
X89806262Y-136450000D02*
G75*
G02*
X90606300Y-137249992I38J-800000D01*
G01*
X330312462Y-98350000D02*
G75*
G02*
X331112548Y-99159302I-62J-800200D01*
G01*
X327775250Y-169169492D02*
X327775250Y-165100592D01*
X103543500Y-169169492D02*
G75*
G02*
X103343500Y-169369500I-200100J92D01*
G01*
X251188500Y-184149192D02*
X251188500Y-186979392D01*
X251388462Y-181150470D02*
G75*
G02*
X251188546Y-180953020I38J199970D01*
G01*
X193887462Y-131600000D02*
G75*
G02*
X193087500Y-130800000I38J800000D01*
G01*
X265335645Y-155500000D02*
X277924962Y-155500000D01*
X270087462Y-131600000D02*
G75*
G02*
X269287500Y-130800000I38J800000D01*
G01*
X327975262Y-169369500D02*
G75*
G02*
X327775300Y-169169492I38J200000D01*
G01*
D11*
X113376862Y-94350000D02*
X134598286Y-94350000D01*
D12*
X334724762Y-160300700D02*
G75*
G02*
X334524800Y-160100692I38J200000D01*
G01*
X121562500Y-99159301D02*
X121562500Y-111749992D01*
X336773145Y-98350000D02*
X349362462Y-98350000D01*
X49849962Y-177806250D02*
G75*
G02*
X49050050Y-177006292I38J799950D01*
G01*
X203423145Y-98350000D02*
X216012462Y-98350000D01*
X149188500Y-186973980D02*
X149188500Y-184149292D01*
D11*
X377975000Y-170065292D02*
X377975000Y-190749992D01*
D12*
X341205262Y-150319500D02*
X339881462Y-150319500D01*
X135850000Y-187949992D02*
G75*
G02*
X135050000Y-188750000I-800100J92D01*
G01*
X45450000Y-142012492D02*
G75*
G02*
X46260645Y-141212468I800200J-108D01*
G01*
X310924762Y-160300700D02*
G75*
G02*
X310724800Y-160100692I38J200000D01*
G01*
X77206262Y-150650000D02*
G75*
G02*
X76406300Y-149849992I38J800000D01*
G01*
X298662462Y-112550000D02*
G75*
G02*
X297862500Y-111750000I38J800000D01*
G01*
X273162462Y-98350000D02*
G75*
G02*
X273962548Y-99159302I-62J-800200D01*
G01*
X71643750Y-187949992D02*
X71643750Y-175349992D01*
X311262462Y-98350000D02*
G75*
G02*
X312062548Y-99159302I-62J-800200D01*
G01*
X312150000Y-160100692D02*
X312150000Y-156300092D01*
X251388462Y-181150470D02*
X251813462Y-181150470D01*
X324056250Y-141050692D02*
G75*
G02*
X323856250Y-141250750I-200050J-8D01*
G01*
X141499962Y-150650000D02*
G75*
G02*
X140700000Y-149850000I38J800000D01*
G01*
X169187500Y-118209301D02*
X169187500Y-130799992D01*
X340725000Y-168900000D02*
X340725000Y-156299992D01*
X284374962Y-169700000D02*
G75*
G02*
X283575000Y-168900000I38J800000D01*
G01*
X274050000Y-149850000D02*
X274050000Y-137249992D01*
X98717862Y-170569800D02*
G75*
G02*
X98517900Y-170369800I38J200000D01*
G01*
X264525000Y-168900000D02*
X264525000Y-156299992D01*
X155938500Y-186979392D02*
G75*
G02*
X155738462Y-187179400I-200000J-8D01*
G01*
X140700000Y-149850000D02*
X140700000Y-137249992D01*
X56050000Y-183349992D02*
G75*
G02*
X55250000Y-184150000I-800100J92D01*
G01*
X244238462Y-183949230D02*
X207487462Y-183949230D01*
D11*
X135305385Y-94057115D02*
X136619684Y-92742815D01*
D12*
X327575262Y-164900600D02*
X326544771Y-164900600D01*
X154100000Y-150650000D02*
X141499962Y-150650000D01*
X326350000Y-165100592D02*
X326350000Y-168899992D01*
X144574962Y-155500000D02*
G75*
G02*
X145375048Y-156309302I-62J-800200D01*
G01*
X255000000Y-149850000D02*
X255000000Y-137249992D01*
X72993900Y-160100692D02*
G75*
G02*
X72793900Y-160300700I-200100J92D01*
G01*
D11*
X168505385Y-194357115D02*
G75*
G02*
X167798286Y-194649961I-707085J707215D01*
G01*
D12*
X126412500Y-111750000D02*
X126412500Y-99149992D01*
X225537500Y-131600000D02*
X212937462Y-131600000D01*
X312949962Y-169700000D02*
G75*
G02*
X312150000Y-168900000I38J800000D01*
G01*
X329299162Y-169369500D02*
X327975262Y-169369500D01*
X335150250Y-163099500D02*
X334721934Y-163099500D01*
X88312500Y-111750000D02*
X88312500Y-99149992D01*
X250150000Y-137259301D02*
X250150000Y-149849992D01*
X304118750Y-188750000D02*
X291518762Y-188750000D01*
X317406562Y-150319500D02*
G75*
G02*
X317606734Y-150514571I38J-200200D01*
G01*
X332599550Y-170569800D02*
X329699162Y-170569800D01*
X296974862Y-155500000D02*
G75*
G02*
X297775048Y-156309302I38J-800200D01*
G01*
X72368462Y-163099500D02*
G75*
G02*
X72168500Y-162899492I38J200000D01*
G01*
X349362500Y-112550000D02*
X336762462Y-112550000D01*
X308187462Y-131600000D02*
G75*
G02*
X307387500Y-130800000I38J800000D01*
G01*
X297862500Y-99149992D02*
G75*
G02*
X298673145Y-98349968I800200J-108D01*
G01*
X246162500Y-174680392D02*
G75*
G02*
X245962500Y-174880400I-200100J92D01*
G01*
X103343362Y-157070500D02*
G75*
G02*
X103543549Y-157275198I38J-200200D01*
G01*
X231187500Y-130800000D02*
X231187500Y-118199992D01*
X240712500Y-111750000D02*
X240712500Y-99149992D01*
X56050000Y-177006392D02*
G75*
G02*
X55238892Y-177806223I-800000J92D01*
G01*
D11*
X76015062Y-94349992D02*
X76015062Y-94350000D01*
D12*
X334524750Y-163299492D02*
G75*
G02*
X334721934Y-163099471I200050J-8D01*
G01*
X346630962Y-141250700D02*
G75*
G02*
X346431000Y-141050700I38J200000D01*
G01*
X56050000Y-173606292D02*
X56050000Y-177006392D01*
X58850000Y-136362500D02*
X46249962Y-136362500D01*
X254112500Y-112550000D02*
X241512462Y-112550000D01*
X112037500Y-130799992D02*
G75*
G02*
X111237500Y-131600000I-800100J92D01*
G01*
X131175000Y-156299992D02*
G75*
G02*
X131985645Y-155499968I800200J-108D01*
G01*
X96261918Y-174550000D02*
X108856262Y-174550000D01*
X79943462Y-160300700D02*
X80968750Y-160300700D01*
X206487462Y-174550000D02*
G75*
G02*
X207287548Y-175359302I-62J-800200D01*
G01*
X103743462Y-160300700D02*
X104168862Y-160300700D01*
X135049962Y-174550000D02*
G75*
G02*
X135850048Y-175359302I-62J-800200D01*
G01*
X79543362Y-157070500D02*
G75*
G02*
X79743549Y-157275198I38J-200200D01*
G01*
X45450000Y-135562500D02*
X45450000Y-122962492D01*
X120762500Y-112550000D02*
X108162462Y-112550000D01*
X178712500Y-99159301D02*
X178712500Y-111749992D01*
X274849962Y-150650000D02*
G75*
G02*
X274050000Y-149850000I38J800000D01*
G01*
X78018200Y-170369792D02*
G75*
G02*
X77818200Y-170569800I-200100J92D01*
G01*
D11*
X84495062Y-92450000D02*
X110648262Y-92450000D01*
D12*
X58849962Y-141212500D02*
G75*
G02*
X59650048Y-142021802I-62J-800200D01*
G01*
X149188500Y-180950492D02*
G75*
G02*
X148988500Y-181150500I-200000J-8D01*
G01*
X317712462Y-112550000D02*
G75*
G02*
X316912500Y-111750000I38J800000D01*
G01*
X56050000Y-167271801D02*
X56050000Y-170662492D01*
X373975000Y-99159301D02*
X373975000Y-111749992D01*
X98648145Y-117400000D02*
X111237462Y-117400000D01*
X310524762Y-157070500D02*
G75*
G02*
X310724800Y-157270492I38J-200000D01*
G01*
X297862500Y-111750000D02*
X297862500Y-99149992D01*
X158862500Y-112550000D02*
X146262462Y-112550000D01*
X135850000Y-175359301D02*
X135850000Y-187949992D01*
X258875000Y-169700000D02*
X246274962Y-169700000D01*
X269200000Y-149849992D02*
G75*
G02*
X268400000Y-150650000I-800100J92D01*
G01*
X135050000Y-188750000D02*
X122449962Y-188750000D01*
X58850000Y-155412500D02*
X46249962Y-155412500D01*
X103743462Y-160300700D02*
G75*
G02*
X103543500Y-160100700I38J200000D01*
G01*
X346231000Y-150319500D02*
X344900571Y-150319500D01*
D11*
X375975000Y-192750000D02*
X365782092Y-192750000D01*
D12*
X322631000Y-146050692D02*
G75*
G02*
X322825770Y-145850574I200200J-8D01*
G01*
X320905700Y-150519592D02*
G75*
G02*
X321100470Y-150319474I200200J-8D01*
G01*
X339481362Y-145850600D02*
X338453434Y-145850600D01*
X327978090Y-157070500D02*
X334324762Y-157070500D01*
X264525000Y-187950000D02*
X264525000Y-175349992D01*
X270098145Y-117400000D02*
X282687462Y-117400000D01*
X104168862Y-160300700D02*
G75*
G02*
X104369049Y-160505398I38J-200200D01*
G01*
X338256250Y-149849992D02*
G75*
G02*
X337456250Y-150650050I-800050J-8D01*
G01*
X308999450Y-170369792D02*
G75*
G02*
X308799450Y-170569850I-200050J-8D01*
G01*
X315055930Y-143849492D02*
X315055930Y-141450692D01*
X193087424Y-184149292D02*
X193087500Y-184149292D01*
X312062500Y-111749992D02*
G75*
G02*
X311262500Y-112550000I-800100J92D01*
G01*
X292212462Y-98350000D02*
G75*
G02*
X293012548Y-99159302I-62J-800200D01*
G01*
X336762462Y-112550000D02*
G75*
G02*
X335962500Y-111750000I38J800000D01*
G01*
X315255962Y-144049500D02*
G75*
G02*
X315056000Y-143849492I38J200000D01*
G01*
X77211918Y-136450000D02*
X89806262Y-136450000D01*
X306499962Y-136450000D02*
G75*
G02*
X307300048Y-137259302I-62J-800200D01*
G01*
X59650000Y-122971801D02*
X59650000Y-135562492D01*
X125524862Y-155500000D02*
G75*
G02*
X126325048Y-156309302I38J-800200D01*
G01*
X183475000Y-156309301D02*
X183475000Y-168899992D01*
D11*
X43450012Y-94350000D02*
X76015062Y-94350000D01*
D12*
X81968762Y-169700000D02*
G75*
G02*
X81168800Y-168899992I38J800000D01*
G01*
X197762500Y-111749992D02*
G75*
G02*
X196962500Y-112550000I-800100J92D01*
G01*
X316912500Y-99149992D02*
G75*
G02*
X317723145Y-98349968I800200J-108D01*
G01*
X373174962Y-174550000D02*
G75*
G02*
X373975048Y-175359302I-62J-800200D01*
G01*
X268400000Y-150650000D02*
X255799962Y-150650000D01*
X202525000Y-168899992D02*
G75*
G02*
X201725000Y-169700000I-800100J92D01*
G01*
X273962500Y-99159301D02*
X273962500Y-111749992D01*
X207287500Y-187949992D02*
G75*
G02*
X206487500Y-188750000I-800100J92D01*
G01*
D11*
X329860762Y-192750000D02*
G75*
G02*
X330564765Y-193039765I38J-1000000D01*
G01*
D12*
X49860645Y-166462500D02*
X55249862Y-166462500D01*
D11*
X262533662Y-92450000D02*
G75*
G02*
X259935612Y-90949979I38J3000000D01*
G01*
D12*
X373975000Y-187949992D02*
G75*
G02*
X373175000Y-188750000I-800100J92D01*
G01*
X249462414Y-174099292D02*
X249462500Y-174099292D01*
X252013500Y-183749192D02*
G75*
G02*
X251813462Y-183949200I-200000J-8D01*
G01*
X249462500Y-174099292D02*
X249462500Y-174680400D01*
X56050000Y-179959301D02*
X56050000Y-183349992D01*
X338256250Y-137249992D02*
X338256250Y-141050692D01*
X310724750Y-165100592D02*
X310724750Y-169169492D01*
X87425000Y-131600000D02*
X74824962Y-131600000D01*
X290718750Y-187949992D02*
X290718750Y-175349992D01*
X326350000Y-156309301D02*
X326350000Y-160100700D01*
X101818300Y-169569492D02*
X101818300Y-170369792D01*
X189135645Y-155500000D02*
X201724962Y-155500000D01*
X216900000Y-149850000D02*
X216900000Y-137249992D01*
X345400000Y-130799992D02*
G75*
G02*
X344600000Y-131600000I-800100J92D01*
G01*
X252013484Y-181350492D02*
X252013500Y-181350492D01*
X201724962Y-155500000D02*
G75*
G02*
X202525048Y-156309302I-62J-800200D01*
G01*
X239824962Y-155500000D02*
G75*
G02*
X240625048Y-156309302I-62J-800200D01*
G01*
X373975000Y-111749992D02*
G75*
G02*
X373175000Y-112550000I-800100J92D01*
G01*
X282687462Y-117400000D02*
G75*
G02*
X283487548Y-118209302I-62J-800200D01*
G01*
X150225000Y-156299992D02*
G75*
G02*
X151035645Y-155499968I800200J-108D01*
G01*
X85043750Y-188750000D02*
X72443762Y-188750000D01*
X55250000Y-171462500D02*
X49849962Y-171462500D01*
X297775000Y-168899992D02*
G75*
G02*
X296975000Y-169700000I-800100J92D01*
G01*
X329299162Y-169369500D02*
G75*
G02*
X329499200Y-169569492I38J-200000D01*
G01*
X293012500Y-99159301D02*
X293012500Y-111749992D01*
X149337462Y-117400000D02*
G75*
G02*
X150137548Y-118209302I-62J-800200D01*
G01*
X303975150Y-160100692D02*
G75*
G02*
X303775150Y-160300750I-200050J-8D01*
G01*
X249662462Y-174880400D02*
X250988462Y-174880400D01*
X303975150Y-157270492D02*
G75*
G02*
X304177990Y-157070469I200050J-8D01*
G01*
D11*
X377975000Y-136084692D02*
G75*
G02*
X376941177Y-137084128I-1000000J-8D01*
G01*
D12*
X231100000Y-149849992D02*
G75*
G02*
X230300000Y-150650000I-800100J92D01*
G01*
X103410645Y-136450000D02*
X115999962Y-136450000D01*
X244438500Y-175080392D02*
G75*
G02*
X244643854Y-174880366I200200J-108D01*
G01*
X212948145Y-117400000D02*
X225537462Y-117400000D01*
X96794000Y-160100692D02*
X96794000Y-157270592D01*
X316086753Y-138020500D02*
X322430962Y-138020500D01*
X239825000Y-169700000D02*
X227224962Y-169700000D01*
X221662500Y-99149992D02*
G75*
G02*
X222473145Y-98349968I800200J-108D01*
G01*
X149388362Y-187179430D02*
G75*
G02*
X149188543Y-186973981I138J200030D01*
G01*
D11*
X53635762Y-192750000D02*
X43449962Y-192750000D01*
D12*
X308999450Y-169569492D02*
G75*
G02*
X309196634Y-169369471I200050J-8D01*
G01*
X222473145Y-98350000D02*
X235062462Y-98350000D01*
X359775000Y-175349992D02*
G75*
G02*
X360585645Y-174549968I800200J-108D01*
G01*
X291518762Y-188750000D02*
G75*
G02*
X290718800Y-187949992I38J800000D01*
G01*
X360585645Y-174550000D02*
X373174962Y-174550000D01*
X79743500Y-165100592D02*
G75*
G02*
X79938270Y-164900574I200200J-108D01*
G01*
X231100000Y-137259301D02*
X231100000Y-149849992D01*
X193898145Y-117400000D02*
X206487362Y-117400000D01*
X331112500Y-99159301D02*
X331112500Y-111749992D01*
D11*
X282928972Y-193042902D02*
X281614773Y-194357102D01*
X142063701Y-196150000D02*
G75*
G02*
X136867549Y-196150000I-2598076J1500000D01*
G01*
D12*
X121650000Y-149850000D02*
X121650000Y-137249992D01*
X265324962Y-188750000D02*
G75*
G02*
X264525000Y-187950000I38J800000D01*
G01*
X264525000Y-156299992D02*
G75*
G02*
X265335645Y-155499968I800200J-108D01*
G01*
D11*
X119467362Y-194650000D02*
G75*
G02*
X118756439Y-194353333I-62J1000000D01*
G01*
D12*
X325549862Y-155500000D02*
G75*
G02*
X326350048Y-156309302I38J-800200D01*
G01*
X122460645Y-136450000D02*
X135049962Y-136450000D01*
X164512500Y-111750000D02*
X164512500Y-99149992D01*
X193087500Y-175349992D02*
G75*
G02*
X193898145Y-174549968I800200J-108D01*
G01*
X80968762Y-164900600D02*
G75*
G02*
X81168800Y-165100592I38J-200000D01*
G01*
X260573145Y-98350000D02*
X273162462Y-98350000D01*
X141510645Y-136450000D02*
X154099962Y-136450000D01*
X95368750Y-168899992D02*
G75*
G02*
X94568750Y-169700050I-800050J-8D01*
G01*
X373175000Y-188750000D02*
X360574962Y-188750000D01*
X235862500Y-99159301D02*
X235862500Y-111749992D01*
X235950000Y-149850000D02*
X235950000Y-137249992D01*
X354925000Y-156309301D02*
X354925000Y-168899992D01*
X85043762Y-174550000D02*
G75*
G02*
X85843800Y-175349992I38J-800000D01*
G01*
X80968762Y-164900600D02*
X79938271Y-164900600D01*
X360574962Y-112550000D02*
G75*
G02*
X359775000Y-111750000I38J800000D01*
G01*
X334524750Y-163299492D02*
X334524750Y-169169492D01*
X347056500Y-144049500D02*
X346625771Y-144049500D01*
X126325000Y-168899992D02*
G75*
G02*
X125525000Y-169700000I-800100J92D01*
G01*
X174037500Y-118199992D02*
G75*
G02*
X174848145Y-117399968I800200J-108D01*
G01*
X72168454Y-162899492D02*
X72168430Y-162899492D01*
X77818200Y-170569800D02*
X74919162Y-170569800D01*
X72368430Y-160300700D02*
X72793900Y-160300700D01*
X73199253Y-157070500D02*
X79543362Y-157070500D01*
X81168750Y-156299992D02*
G75*
G02*
X81974418Y-155499970I800050J-8D01*
G01*
X264437500Y-118209301D02*
X264437500Y-130799992D01*
X149188500Y-175080392D02*
G75*
G02*
X149393854Y-174880366I200200J-108D01*
G01*
D11*
X363767885Y-194357115D02*
G75*
G02*
X363060786Y-194649961I-707085J707215D01*
G01*
D12*
X69262500Y-99149992D02*
G75*
G02*
X70073145Y-98349968I800200J-108D01*
G01*
X339681500Y-138220492D02*
G75*
G02*
X339886854Y-138020466I200200J-108D01*
G01*
X149188500Y-180950492D02*
X149188500Y-175080392D01*
X244643853Y-174880400D02*
X245962500Y-174880400D01*
D11*
X111358589Y-92746089D02*
X112674625Y-94062126D01*
X306755385Y-94057115D02*
X308069684Y-92742815D01*
D12*
X96794000Y-157270592D02*
G75*
G02*
X96999354Y-157070466I200200J-8D01*
G01*
X193000000Y-137259301D02*
X193000000Y-149849992D01*
X184373145Y-98350000D02*
X196962462Y-98350000D01*
D11*
X376941176Y-169065845D02*
G75*
G02*
X377975027Y-170065292I33824J-999455D01*
G01*
D12*
X121650000Y-175349992D02*
G75*
G02*
X122460645Y-174549968I800200J-108D01*
G01*
X359775000Y-99150092D02*
G75*
G02*
X360585645Y-98349968I800200J-8D01*
G01*
X303349680Y-160300700D02*
X303775150Y-160300700D01*
X88312500Y-99149992D02*
G75*
G02*
X89123145Y-98349968I800200J-108D01*
G01*
X193087500Y-118199992D02*
G75*
G02*
X193898145Y-117399968I800200J-108D01*
G01*
X49849962Y-184150000D02*
G75*
G02*
X49050000Y-183350000I38J800000D01*
G01*
X140612500Y-111749992D02*
G75*
G02*
X139812500Y-112550000I-800100J92D01*
G01*
X150137500Y-118209301D02*
X150137500Y-130799992D01*
X282687500Y-131600000D02*
X270087462Y-131600000D01*
X244238462Y-183949230D02*
G75*
G02*
X244438470Y-184149292I38J-199970D01*
G01*
D11*
X135305385Y-94057115D02*
G75*
G02*
X134598286Y-94349961I-707085J707215D01*
G01*
D12*
X244587500Y-131600000D02*
X231987462Y-131600000D01*
D11*
X284826862Y-94350000D02*
G75*
G02*
X284124634Y-94062117I38J1000500D01*
G01*
X76989423Y-93125000D02*
G75*
G02*
X82662046Y-91250000I2923077J675000D01*
G01*
D12*
X373174962Y-98350000D02*
G75*
G02*
X373975048Y-99159302I-62J-800200D01*
G01*
X235862500Y-111749992D02*
G75*
G02*
X235062500Y-112550000I-800100J92D01*
G01*
X251813462Y-183949230D02*
X251388462Y-183949230D01*
X303349662Y-163099500D02*
G75*
G02*
X303149725Y-162896331I38J200000D01*
G01*
X135050000Y-150650000D02*
X122449962Y-150650000D01*
X183562500Y-99149992D02*
G75*
G02*
X184373145Y-98349968I800200J-108D01*
G01*
X150912500Y-174099192D02*
G75*
G02*
X151114461Y-173899210I200000J-8D01*
G01*
X155738462Y-174880400D02*
G75*
G02*
X155938549Y-175085098I-62J-200200D01*
G01*
X322631000Y-146050692D02*
X322631000Y-150119492D01*
X350162500Y-99159301D02*
X350162500Y-111749992D01*
X347056462Y-141250700D02*
G75*
G02*
X347256549Y-141455398I-62J-200200D01*
G01*
X327575262Y-164900600D02*
G75*
G02*
X327775300Y-165100592I38J-200000D01*
G01*
X264437500Y-130799992D02*
G75*
G02*
X263637500Y-131600000I-800100J92D01*
G01*
X303149680Y-160500692D02*
G75*
G02*
X303349680Y-160300680I200020J-8D01*
G01*
X373174962Y-117400000D02*
G75*
G02*
X373975048Y-118209302I-62J-800200D01*
G01*
X202525000Y-156309301D02*
X202525000Y-168899992D01*
X206487500Y-188750000D02*
X193887462Y-188750000D01*
X112924962Y-169700000D02*
G75*
G02*
X112125000Y-168900000I38J800000D01*
G01*
D11*
X280907662Y-194650000D02*
X266105462Y-194650000D01*
D12*
X149337500Y-131600000D02*
X136737462Y-131600000D01*
D11*
X53635762Y-192750000D02*
G75*
G02*
X54339765Y-193039765I38J-1000000D01*
G01*
D12*
X321587500Y-130799992D02*
G75*
G02*
X320787500Y-131600000I-800100J92D01*
G01*
X183475000Y-168899992D02*
G75*
G02*
X182675000Y-169700000I-800100J92D01*
G01*
X349362462Y-98350000D02*
G75*
G02*
X350162548Y-99159302I-62J-800200D01*
G01*
X216900000Y-137249992D02*
G75*
G02*
X217710645Y-136449968I800200J-108D01*
G01*
X326350000Y-168899992D02*
G75*
G02*
X325550000Y-169700000I-800100J92D01*
G01*
X250150000Y-149849992D02*
G75*
G02*
X249350000Y-150650000I-800100J92D01*
G01*
X335962500Y-111750000D02*
X335962500Y-99149992D01*
X246364461Y-173899240D02*
X249262362Y-173899240D01*
X170074962Y-169700000D02*
G75*
G02*
X169275000Y-168900000I38J800000D01*
G01*
X159662500Y-111749992D02*
G75*
G02*
X158862500Y-112550000I-800100J92D01*
G01*
D11*
X282928972Y-193042902D02*
G75*
G02*
X283628951Y-192750017I707128J-707098D01*
G01*
D12*
X316081362Y-150319500D02*
G75*
G02*
X315881400Y-150119500I38J200000D01*
G01*
X49849962Y-171462500D02*
G75*
G02*
X49050000Y-170662500I38J800000D01*
G01*
X246285645Y-155500000D02*
X258874962Y-155500000D01*
D11*
X262533662Y-92450000D02*
X282098262Y-92450000D01*
D12*
X220775000Y-169700000D02*
X208174962Y-169700000D01*
X188237500Y-130799992D02*
G75*
G02*
X187437500Y-131600000I-800100J92D01*
G01*
X140700000Y-137249992D02*
G75*
G02*
X141510645Y-136449968I800200J-108D01*
G01*
X315881400Y-141050692D02*
G75*
G02*
X315681400Y-141250700I-200100J92D01*
G01*
X102512500Y-111749992D02*
G75*
G02*
X101712500Y-112550000I-800100J92D01*
G01*
X315881400Y-150119500D02*
X315881400Y-144244987D01*
X98517900Y-170369800D02*
X98517900Y-169564987D01*
X212050000Y-149849992D02*
G75*
G02*
X211250000Y-150650000I-800100J92D01*
G01*
X346630962Y-141250700D02*
X347056462Y-141250700D01*
X359775000Y-111750000D02*
X359775000Y-99150092D01*
X350162500Y-111749992D02*
G75*
G02*
X349362500Y-112550000I-800100J92D01*
G01*
X341605362Y-151519800D02*
G75*
G02*
X341405400Y-151319800I38J200000D01*
G01*
X81168750Y-160100692D02*
X81168750Y-156299992D01*
X320787500Y-131600000D02*
X308187462Y-131600000D01*
D13*
%TO.C,G\u002A\u002A\u002A*%
G36*
X224162686Y-187687618D02*
G01*
X224317748Y-187691929D01*
X224321688Y-188361346D01*
X224325627Y-189030762D01*
X224166625Y-189030762D01*
X224007623Y-189030762D01*
X224007623Y-188357035D01*
X224007623Y-187683307D01*
X224162686Y-187687618D01*
G37*
G36*
X236790828Y-188138207D02*
G01*
X236790828Y-189030762D01*
X236631983Y-189030762D01*
X236473139Y-189030762D01*
X236473139Y-188138207D01*
X236473139Y-187245652D01*
X236631983Y-187245652D01*
X236790828Y-187245652D01*
X236790828Y-188138207D01*
G37*
G36*
X238670488Y-187687618D02*
G01*
X238825551Y-187691929D01*
X238829490Y-188361346D01*
X238833429Y-189030762D01*
X238674428Y-189030762D01*
X238515426Y-189030762D01*
X238515426Y-188357035D01*
X238515426Y-187683307D01*
X238670488Y-187687618D01*
G37*
G36*
X224252752Y-187180000D02*
G01*
X224301896Y-187217338D01*
X224336909Y-187275190D01*
X224341819Y-187289671D01*
X224347809Y-187355845D01*
X224327701Y-187415015D01*
X224285572Y-187462399D01*
X224225500Y-187493214D01*
X224160130Y-187502829D01*
X224113430Y-187497586D01*
X224073692Y-187477798D01*
X224041783Y-187451358D01*
X224006098Y-187414008D01*
X223989509Y-187380359D01*
X223985619Y-187340490D01*
X223997868Y-187272099D01*
X224030752Y-187219263D01*
X224078477Y-187182808D01*
X224135248Y-187163562D01*
X224195271Y-187162350D01*
X224252752Y-187180000D01*
G37*
G36*
X238760554Y-187180000D02*
G01*
X238809698Y-187217338D01*
X238844711Y-187275190D01*
X238849621Y-187289671D01*
X238855611Y-187355845D01*
X238835503Y-187415015D01*
X238793374Y-187462399D01*
X238733302Y-187493214D01*
X238667932Y-187502829D01*
X238621233Y-187497586D01*
X238581494Y-187477798D01*
X238549585Y-187451358D01*
X238513900Y-187414008D01*
X238497311Y-187380359D01*
X238493421Y-187340490D01*
X238505670Y-187272099D01*
X238538554Y-187219263D01*
X238586279Y-187182808D01*
X238643050Y-187163562D01*
X238703073Y-187162350D01*
X238760554Y-187180000D01*
G37*
G36*
X226966224Y-187690059D02*
G01*
X227068198Y-187725360D01*
X227152823Y-187784924D01*
X227221405Y-187869512D01*
X227245125Y-187911479D01*
X227261647Y-187949635D01*
X227275018Y-187994982D01*
X227285530Y-188050833D01*
X227293476Y-188120502D01*
X227299146Y-188207303D01*
X227302833Y-188314549D01*
X227304829Y-188445554D01*
X227305425Y-188595831D01*
X227305539Y-189030762D01*
X227148039Y-189030762D01*
X226990540Y-189030762D01*
X226985238Y-188580703D01*
X226983487Y-188444103D01*
X226981379Y-188334221D01*
X226978292Y-188247519D01*
X226973603Y-188180462D01*
X226966687Y-188129512D01*
X226956922Y-188091131D01*
X226943684Y-188061784D01*
X226926351Y-188037932D01*
X226904299Y-188016039D01*
X226882425Y-187997209D01*
X226815299Y-187958958D01*
X226739413Y-187944836D01*
X226661195Y-187952802D01*
X226587069Y-187980815D01*
X226523461Y-188026834D01*
X226476799Y-188088819D01*
X226460012Y-188131353D01*
X226454764Y-188166357D01*
X226450386Y-188228787D01*
X226446975Y-188315825D01*
X226444630Y-188424651D01*
X226443449Y-188552444D01*
X226443324Y-188610959D01*
X226443240Y-189030762D01*
X226284395Y-189030762D01*
X226125551Y-189030762D01*
X226125551Y-188357016D01*
X226125551Y-187683270D01*
X226273049Y-187687600D01*
X226420548Y-187691929D01*
X226428112Y-187805390D01*
X226435676Y-187918850D01*
X226460799Y-187873466D01*
X226522430Y-187792198D01*
X226604825Y-187732021D01*
X226706218Y-187693831D01*
X226824843Y-187678523D01*
X226845595Y-187678258D01*
X226966224Y-187690059D01*
G37*
G36*
X239976349Y-187690059D02*
G01*
X240078323Y-187725360D01*
X240162948Y-187784924D01*
X240231530Y-187869512D01*
X240255250Y-187911479D01*
X240271772Y-187949635D01*
X240285143Y-187994982D01*
X240295655Y-188050833D01*
X240303601Y-188120502D01*
X240309271Y-188207303D01*
X240312958Y-188314549D01*
X240314954Y-188445554D01*
X240315550Y-188595831D01*
X240315664Y-189030762D01*
X240158164Y-189030762D01*
X240000665Y-189030762D01*
X239995363Y-188580703D01*
X239993612Y-188444103D01*
X239991504Y-188334221D01*
X239988417Y-188247519D01*
X239983728Y-188180462D01*
X239976812Y-188129512D01*
X239967047Y-188091131D01*
X239953809Y-188061784D01*
X239936476Y-188037932D01*
X239914424Y-188016039D01*
X239892550Y-187997209D01*
X239825424Y-187958958D01*
X239749539Y-187944836D01*
X239671320Y-187952802D01*
X239597194Y-187980815D01*
X239533586Y-188026834D01*
X239486924Y-188088819D01*
X239470137Y-188131353D01*
X239464889Y-188166357D01*
X239460511Y-188228787D01*
X239457100Y-188315825D01*
X239454755Y-188424651D01*
X239453575Y-188552444D01*
X239453449Y-188610959D01*
X239453365Y-189030762D01*
X239294520Y-189030762D01*
X239135676Y-189030762D01*
X239135676Y-188357016D01*
X239135676Y-187683270D01*
X239283174Y-187687600D01*
X239430673Y-187691929D01*
X239438237Y-187805390D01*
X239445801Y-187918850D01*
X239470924Y-187873466D01*
X239532555Y-187792198D01*
X239614950Y-187732021D01*
X239716343Y-187693831D01*
X239834968Y-187678523D01*
X239855720Y-187678258D01*
X239976349Y-187690059D01*
G37*
G36*
X219881447Y-187245915D02*
G01*
X220021438Y-187246746D01*
X220134642Y-187249129D01*
X220224497Y-187253228D01*
X220294440Y-187259207D01*
X220347908Y-187267230D01*
X220354199Y-187268509D01*
X220502165Y-187313871D01*
X220632314Y-187382963D01*
X220743576Y-187474314D01*
X220834875Y-187586451D01*
X220905141Y-187717903D01*
X220953300Y-187867200D01*
X220978278Y-188032869D01*
X220981750Y-188129281D01*
X220969741Y-188308944D01*
X220934869Y-188471198D01*
X220877895Y-188614978D01*
X220799580Y-188739218D01*
X220700684Y-188842852D01*
X220581970Y-188924814D01*
X220444198Y-188984040D01*
X220354199Y-189007905D01*
X220302738Y-189016223D01*
X220235279Y-189022475D01*
X220148382Y-189026824D01*
X220038612Y-189029434D01*
X219902530Y-189030471D01*
X219881447Y-189030499D01*
X219514592Y-189030762D01*
X219514592Y-188746045D01*
X219832281Y-188746045D01*
X220062984Y-188740529D01*
X220155228Y-188737831D01*
X220223547Y-188734263D01*
X220274271Y-188728982D01*
X220313731Y-188721150D01*
X220348257Y-188709924D01*
X220373554Y-188699296D01*
X220470629Y-188640275D01*
X220547276Y-188559126D01*
X220603537Y-188455767D01*
X220639454Y-188330115D01*
X220655069Y-188182087D01*
X220655809Y-188138207D01*
X220645677Y-187984115D01*
X220615254Y-187852421D01*
X220564498Y-187743042D01*
X220493367Y-187655895D01*
X220401820Y-187590899D01*
X220373554Y-187577118D01*
X220338665Y-187562936D01*
X220303390Y-187552751D01*
X220261398Y-187545723D01*
X220206359Y-187541009D01*
X220131942Y-187537771D01*
X220062984Y-187535885D01*
X219832281Y-187530369D01*
X219832281Y-188138207D01*
X219832281Y-188746045D01*
X219514592Y-188746045D01*
X219514592Y-188138207D01*
X219514592Y-187245652D01*
X219881447Y-187245915D01*
G37*
G36*
X230240381Y-188138207D02*
G01*
X230240381Y-189030762D01*
X230081536Y-189030762D01*
X229922692Y-189030762D01*
X229922692Y-188922596D01*
X229922692Y-188814430D01*
X229879560Y-188873972D01*
X229800040Y-188961142D01*
X229707873Y-189020880D01*
X229603520Y-189053022D01*
X229487445Y-189057406D01*
X229399418Y-189043859D01*
X229316657Y-189013806D01*
X229231971Y-188963656D01*
X229156322Y-188900687D01*
X229117540Y-188856789D01*
X229051939Y-188746875D01*
X229005877Y-188619898D01*
X228979456Y-188481981D01*
X228973129Y-188346760D01*
X229303503Y-188346760D01*
X229306243Y-188444048D01*
X229318287Y-188530190D01*
X229324699Y-188555265D01*
X229355896Y-188627780D01*
X229401528Y-188694285D01*
X229454569Y-188745786D01*
X229490367Y-188767255D01*
X229553091Y-188783437D01*
X229627927Y-188787075D01*
X229699426Y-188778102D01*
X229730531Y-188768275D01*
X229800784Y-188722919D01*
X229856317Y-188653148D01*
X229895846Y-188561653D01*
X229918091Y-188451128D01*
X229922692Y-188364786D01*
X229913234Y-188237069D01*
X229885317Y-188130987D01*
X229839621Y-188047473D01*
X229776831Y-187987463D01*
X229697628Y-187951891D01*
X229613538Y-187941542D01*
X229557296Y-187945451D01*
X229506913Y-187955454D01*
X229485473Y-187963462D01*
X229424482Y-188009118D01*
X229370821Y-188075321D01*
X229331962Y-188152361D01*
X229325783Y-188170996D01*
X229310028Y-188251389D01*
X229303503Y-188346760D01*
X228973129Y-188346760D01*
X228972778Y-188339248D01*
X228985942Y-188197823D01*
X229019051Y-188063828D01*
X229072206Y-187943387D01*
X229101654Y-187896716D01*
X229183986Y-187802585D01*
X229280327Y-187735093D01*
X229391472Y-187693833D01*
X229518218Y-187678399D01*
X229529363Y-187678267D01*
X229637266Y-187687064D01*
X229726730Y-187716529D01*
X229803905Y-187769790D01*
X229874941Y-187849972D01*
X229879560Y-187856283D01*
X229922692Y-187915826D01*
X229922692Y-187580739D01*
X229922692Y-187245652D01*
X230081536Y-187245652D01*
X230240381Y-187245652D01*
X230240381Y-188138207D01*
G37*
G36*
X232947318Y-187831864D02*
G01*
X232965090Y-187889394D01*
X232989715Y-187969538D01*
X233019255Y-188065962D01*
X233051770Y-188172331D01*
X233085320Y-188282309D01*
X233102445Y-188338535D01*
X233132773Y-188436412D01*
X233160713Y-188523244D01*
X233184974Y-188595287D01*
X233204267Y-188648801D01*
X233217301Y-188680042D01*
X233222361Y-188686480D01*
X233229160Y-188669833D01*
X233243650Y-188627663D01*
X233264730Y-188563396D01*
X233291299Y-188480460D01*
X233322256Y-188382283D01*
X233356502Y-188272291D01*
X233383841Y-188183591D01*
X233534728Y-187691929D01*
X233690262Y-187687591D01*
X233756220Y-187686873D01*
X233810649Y-187688382D01*
X233846620Y-187691804D01*
X233857090Y-187695155D01*
X233854230Y-187711213D01*
X233841923Y-187753100D01*
X233821055Y-187818204D01*
X233792511Y-187903918D01*
X233757179Y-188007632D01*
X233715942Y-188126736D01*
X233669688Y-188258621D01*
X233619302Y-188400678D01*
X233585647Y-188494748D01*
X233520720Y-188675292D01*
X233464802Y-188829624D01*
X233416827Y-188960058D01*
X233375729Y-189068914D01*
X233340443Y-189158505D01*
X233309901Y-189231150D01*
X233283039Y-189289165D01*
X233258790Y-189334866D01*
X233236089Y-189370569D01*
X233213869Y-189398592D01*
X233191064Y-189421251D01*
X233166609Y-189440862D01*
X233142558Y-189457651D01*
X233085226Y-189491029D01*
X233026218Y-189512800D01*
X232956970Y-189525001D01*
X232868916Y-189529669D01*
X232838624Y-189529903D01*
X232706254Y-189529988D01*
X232706254Y-189401399D01*
X232706254Y-189272811D01*
X232810110Y-189272811D01*
X232885867Y-189267889D01*
X232940076Y-189249912D01*
X232980304Y-189214060D01*
X233014114Y-189155517D01*
X233021976Y-189137877D01*
X233054469Y-189062345D01*
X232817713Y-188399829D01*
X232769356Y-188264378D01*
X232724012Y-188137112D01*
X232682726Y-188020977D01*
X232646539Y-187918920D01*
X232616496Y-187833887D01*
X232593640Y-187768826D01*
X232579014Y-187726682D01*
X232573765Y-187710840D01*
X232573159Y-187699266D01*
X232582118Y-187691643D01*
X232605540Y-187687161D01*
X232648326Y-187685009D01*
X232715375Y-187684380D01*
X232734044Y-187684365D01*
X232901517Y-187684365D01*
X232947318Y-187831864D01*
G37*
G36*
X221927869Y-187682235D02*
G01*
X222061407Y-187716053D01*
X222176308Y-187772584D01*
X222271279Y-187850963D01*
X222345026Y-187950322D01*
X222354575Y-187967739D01*
X222395102Y-188058708D01*
X222421165Y-188153367D01*
X222435103Y-188261754D01*
X222438347Y-188327308D01*
X222441870Y-188448332D01*
X221976682Y-188452333D01*
X221511495Y-188456333D01*
X221511495Y-188492033D01*
X221520851Y-188550248D01*
X221545051Y-188616568D01*
X221578288Y-188676982D01*
X221599069Y-188703420D01*
X221673525Y-188761114D01*
X221765015Y-188794496D01*
X221851876Y-188803177D01*
X221939053Y-188794321D01*
X222015121Y-188769611D01*
X222073064Y-188731836D01*
X222094485Y-188706777D01*
X222107640Y-188688987D01*
X222123292Y-188677620D01*
X222147944Y-188671241D01*
X222188098Y-188668415D01*
X222250259Y-188667704D01*
X222271528Y-188667689D01*
X222422960Y-188667689D01*
X222413367Y-188716855D01*
X222384921Y-188791032D01*
X222331432Y-188864106D01*
X222257883Y-188931232D01*
X222169252Y-188987564D01*
X222105760Y-189016154D01*
X222024691Y-189038243D01*
X221926528Y-189051898D01*
X221823424Y-189056430D01*
X221727530Y-189051149D01*
X221669712Y-189040868D01*
X221539451Y-188993413D01*
X221428511Y-188923279D01*
X221337857Y-188831840D01*
X221268457Y-188720470D01*
X221221279Y-188590545D01*
X221197289Y-188443438D01*
X221194292Y-188365128D01*
X221206992Y-188217433D01*
X221207452Y-188215749D01*
X221511495Y-188215749D01*
X221525879Y-188219710D01*
X221566059Y-188223197D01*
X221627577Y-188226022D01*
X221705974Y-188227995D01*
X221796790Y-188228927D01*
X221823612Y-188228975D01*
X222135729Y-188228975D01*
X222127467Y-188167381D01*
X222103484Y-188084535D01*
X222059162Y-188018975D01*
X221999161Y-187970943D01*
X221928143Y-187940681D01*
X221850767Y-187928434D01*
X221771693Y-187934442D01*
X221695582Y-187958948D01*
X221627094Y-188002195D01*
X221570890Y-188064426D01*
X221534775Y-188136541D01*
X221520809Y-188178787D01*
X221512501Y-188209060D01*
X221511495Y-188215749D01*
X221207452Y-188215749D01*
X221243683Y-188082987D01*
X221302073Y-187963925D01*
X221379869Y-187862384D01*
X221474775Y-187780497D01*
X221584499Y-187720400D01*
X221706748Y-187684227D01*
X221839227Y-187674115D01*
X221927869Y-187682235D01*
G37*
G36*
X228281651Y-187682235D02*
G01*
X228415189Y-187716053D01*
X228530090Y-187772584D01*
X228625061Y-187850963D01*
X228698808Y-187950322D01*
X228708357Y-187967739D01*
X228748884Y-188058708D01*
X228774947Y-188153367D01*
X228788885Y-188261754D01*
X228792129Y-188327308D01*
X228795652Y-188448332D01*
X228330464Y-188452333D01*
X227865277Y-188456333D01*
X227865277Y-188492033D01*
X227874633Y-188550248D01*
X227898833Y-188616568D01*
X227932070Y-188676982D01*
X227952851Y-188703420D01*
X228027307Y-188761114D01*
X228118797Y-188794496D01*
X228205658Y-188803177D01*
X228292835Y-188794321D01*
X228368903Y-188769611D01*
X228426846Y-188731836D01*
X228448267Y-188706777D01*
X228461422Y-188688987D01*
X228477074Y-188677620D01*
X228501726Y-188671241D01*
X228541880Y-188668415D01*
X228604041Y-188667704D01*
X228625310Y-188667689D01*
X228776742Y-188667689D01*
X228767149Y-188716855D01*
X228738703Y-188791032D01*
X228685215Y-188864106D01*
X228611665Y-188931232D01*
X228523034Y-188987564D01*
X228459542Y-189016154D01*
X228378473Y-189038243D01*
X228280310Y-189051898D01*
X228177206Y-189056430D01*
X228081312Y-189051149D01*
X228023494Y-189040868D01*
X227893233Y-188993413D01*
X227782293Y-188923279D01*
X227691639Y-188831840D01*
X227622239Y-188720470D01*
X227575061Y-188590545D01*
X227551071Y-188443438D01*
X227548074Y-188365128D01*
X227560774Y-188217433D01*
X227561234Y-188215749D01*
X227865277Y-188215749D01*
X227879661Y-188219710D01*
X227919841Y-188223197D01*
X227981359Y-188226022D01*
X228059756Y-188227995D01*
X228150572Y-188228927D01*
X228177394Y-188228975D01*
X228489511Y-188228975D01*
X228481249Y-188167381D01*
X228457266Y-188084535D01*
X228412944Y-188018975D01*
X228352943Y-187970943D01*
X228281925Y-187940681D01*
X228204549Y-187928434D01*
X228125475Y-187934442D01*
X228049364Y-187958948D01*
X227980876Y-188002195D01*
X227924672Y-188064426D01*
X227888557Y-188136541D01*
X227874591Y-188178787D01*
X227866283Y-188209060D01*
X227865277Y-188215749D01*
X227561234Y-188215749D01*
X227597465Y-188082987D01*
X227655855Y-187963925D01*
X227733651Y-187862384D01*
X227828557Y-187780497D01*
X227938281Y-187720400D01*
X228060530Y-187684227D01*
X228193009Y-187674115D01*
X228281651Y-187682235D01*
G37*
G36*
X235539423Y-187228126D02*
G01*
X235652126Y-187242296D01*
X235716736Y-187258491D01*
X235813017Y-187297051D01*
X235908355Y-187348731D01*
X235989473Y-187406147D01*
X236002540Y-187417417D01*
X236062133Y-187484881D01*
X236118076Y-187574078D01*
X236165920Y-187676494D01*
X236201215Y-187783617D01*
X236207343Y-187809172D01*
X236216538Y-187850774D01*
X236052236Y-187850774D01*
X235887934Y-187850774D01*
X235870535Y-187792703D01*
X235827441Y-187698610D01*
X235761294Y-187622366D01*
X235674787Y-187565928D01*
X235570613Y-187531254D01*
X235497379Y-187521482D01*
X235394661Y-187521811D01*
X235307958Y-187539334D01*
X235226812Y-187576597D01*
X235198563Y-187594260D01*
X235115531Y-187667195D01*
X235050921Y-187763029D01*
X235005405Y-187880158D01*
X234979654Y-188016979D01*
X234973717Y-188130643D01*
X234977060Y-188246340D01*
X234988510Y-188340677D01*
X235009599Y-188421825D01*
X235041859Y-188497958D01*
X235043017Y-188500252D01*
X235092106Y-188583296D01*
X235147146Y-188644965D01*
X235216730Y-188694025D01*
X235250789Y-188712195D01*
X235310222Y-188738880D01*
X235362172Y-188752984D01*
X235422290Y-188758112D01*
X235451716Y-188758457D01*
X235574841Y-188746917D01*
X235678988Y-188712554D01*
X235763491Y-188655759D01*
X235827684Y-188576918D01*
X235854188Y-188524064D01*
X235888712Y-188440768D01*
X236052625Y-188440768D01*
X236216538Y-188440768D01*
X236206561Y-188482370D01*
X236157539Y-188626959D01*
X236085266Y-188753207D01*
X235991678Y-188859532D01*
X235878713Y-188944353D01*
X235748309Y-189006090D01*
X235602402Y-189043161D01*
X235507305Y-189052953D01*
X235434322Y-189054280D01*
X235360904Y-189051827D01*
X235301116Y-189046125D01*
X235293151Y-189044841D01*
X235161203Y-189006910D01*
X235035675Y-188942744D01*
X234921758Y-188856342D01*
X234824643Y-188751699D01*
X234749521Y-188632813D01*
X234744376Y-188622305D01*
X234690265Y-188479263D01*
X234656618Y-188323343D01*
X234643309Y-188160900D01*
X234650214Y-187998287D01*
X234677208Y-187841857D01*
X234724167Y-187697966D01*
X234764128Y-187616289D01*
X234851509Y-187491742D01*
X234959405Y-187387758D01*
X235084606Y-187306969D01*
X235200114Y-187259174D01*
X235301641Y-187236580D01*
X235418669Y-187226226D01*
X235539423Y-187228126D01*
G37*
G36*
X237751812Y-187682235D02*
G01*
X237885350Y-187716053D01*
X238000251Y-187772584D01*
X238095222Y-187850963D01*
X238168969Y-187950322D01*
X238178518Y-187967739D01*
X238219045Y-188058708D01*
X238245108Y-188153367D01*
X238259045Y-188261754D01*
X238262290Y-188327308D01*
X238265813Y-188448332D01*
X237800625Y-188452333D01*
X237335438Y-188456333D01*
X237335438Y-188492033D01*
X237344794Y-188550248D01*
X237368993Y-188616568D01*
X237402231Y-188676982D01*
X237423012Y-188703420D01*
X237497467Y-188761114D01*
X237588958Y-188794496D01*
X237675819Y-188803177D01*
X237762996Y-188794321D01*
X237839064Y-188769611D01*
X237897007Y-188731836D01*
X237918428Y-188706777D01*
X237931583Y-188688987D01*
X237947235Y-188677620D01*
X237971887Y-188671241D01*
X238012041Y-188668415D01*
X238074201Y-188667704D01*
X238095471Y-188667689D01*
X238246903Y-188667689D01*
X238237310Y-188716855D01*
X238208864Y-188791032D01*
X238155375Y-188864106D01*
X238081825Y-188931232D01*
X237993195Y-188987564D01*
X237929702Y-189016154D01*
X237848634Y-189038243D01*
X237750471Y-189051898D01*
X237647367Y-189056430D01*
X237551473Y-189051149D01*
X237493655Y-189040868D01*
X237363394Y-188993413D01*
X237252453Y-188923279D01*
X237161800Y-188831840D01*
X237092400Y-188720470D01*
X237045222Y-188590545D01*
X237021232Y-188443438D01*
X237018235Y-188365128D01*
X237030934Y-188217433D01*
X237031394Y-188215749D01*
X237335438Y-188215749D01*
X237349822Y-188219710D01*
X237390002Y-188223197D01*
X237451520Y-188226022D01*
X237529917Y-188227995D01*
X237620733Y-188228927D01*
X237647555Y-188228975D01*
X237959672Y-188228975D01*
X237951410Y-188167381D01*
X237927427Y-188084535D01*
X237883105Y-188018975D01*
X237823104Y-187970943D01*
X237752086Y-187940681D01*
X237674709Y-187928434D01*
X237595636Y-187934442D01*
X237519525Y-187958948D01*
X237451037Y-188002195D01*
X237394833Y-188064426D01*
X237358717Y-188136541D01*
X237344751Y-188178787D01*
X237336443Y-188209060D01*
X237335438Y-188215749D01*
X237031394Y-188215749D01*
X237067626Y-188082987D01*
X237126016Y-187963925D01*
X237203811Y-187862384D01*
X237298718Y-187780497D01*
X237408442Y-187720400D01*
X237530691Y-187684227D01*
X237663170Y-187674115D01*
X237751812Y-187682235D01*
G37*
G36*
X231481341Y-187582251D02*
G01*
X231481869Y-187695597D01*
X231483188Y-187780955D01*
X231485422Y-187840587D01*
X231488699Y-187876755D01*
X231493144Y-187891719D01*
X231498435Y-187888594D01*
X231534038Y-187839318D01*
X231585609Y-187785806D01*
X231642494Y-187738196D01*
X231685110Y-187710943D01*
X231735849Y-187691216D01*
X231798050Y-187680985D01*
X231859083Y-187678370D01*
X231973283Y-187685746D01*
X232070111Y-187712497D01*
X232157603Y-187761567D01*
X232215725Y-187809057D01*
X232298896Y-187901260D01*
X232360011Y-188006996D01*
X232400192Y-188129265D01*
X232420561Y-188271065D01*
X232423739Y-188365128D01*
X232412900Y-188522449D01*
X232381158Y-188662563D01*
X232329677Y-188783912D01*
X232259619Y-188884938D01*
X232172148Y-188964083D01*
X232068426Y-189019789D01*
X231949618Y-189050498D01*
X231908861Y-189054773D01*
X231828127Y-189055701D01*
X231760433Y-189044337D01*
X231729450Y-189034504D01*
X231637804Y-188991271D01*
X231566402Y-188932267D01*
X231524411Y-188878881D01*
X231499420Y-188846360D01*
X231480549Y-188829792D01*
X231475245Y-188829648D01*
X231470307Y-188848664D01*
X231466875Y-188888786D01*
X231465753Y-188934951D01*
X231465753Y-189030762D01*
X231314473Y-189030762D01*
X231163192Y-189030762D01*
X231163192Y-188380230D01*
X231476064Y-188380230D01*
X231487774Y-188493176D01*
X231516706Y-188593879D01*
X231561374Y-188677646D01*
X231620296Y-188739782D01*
X231638812Y-188752461D01*
X231678758Y-188773712D01*
X231717334Y-188784193D01*
X231767044Y-188786448D01*
X231800240Y-188785271D01*
X231862094Y-188779757D01*
X231906137Y-188767978D01*
X231944715Y-188746137D01*
X231957130Y-188737008D01*
X232015107Y-188674998D01*
X232058415Y-188592579D01*
X232086660Y-188496016D01*
X232099449Y-188391575D01*
X232096390Y-188285523D01*
X232077089Y-188184126D01*
X232041155Y-188093649D01*
X232001177Y-188034516D01*
X231942849Y-187981770D01*
X231874928Y-187952006D01*
X231791096Y-187942932D01*
X231753062Y-187944480D01*
X231664972Y-187963520D01*
X231593927Y-188006906D01*
X231539595Y-188075022D01*
X231501646Y-188168256D01*
X231483058Y-188259735D01*
X231476064Y-188380230D01*
X231163192Y-188380230D01*
X231163192Y-188138207D01*
X231163192Y-187245652D01*
X231322037Y-187245652D01*
X231480881Y-187245652D01*
X231481341Y-187582251D01*
G37*
G36*
X223264188Y-187677675D02*
G01*
X223382866Y-187698375D01*
X223492926Y-187738382D01*
X223512800Y-187748444D01*
X223605618Y-187812220D01*
X223673149Y-187891957D01*
X223717002Y-187989759D01*
X223727029Y-188028529D01*
X223737722Y-188077695D01*
X223588680Y-188077695D01*
X223439638Y-188077695D01*
X223409777Y-188022247D01*
X223365530Y-187968921D01*
X223304310Y-187933250D01*
X223232974Y-187915215D01*
X223158376Y-187914794D01*
X223087374Y-187931971D01*
X223026824Y-187966724D01*
X222983582Y-188019035D01*
X222981331Y-188023455D01*
X222970901Y-188075594D01*
X222988084Y-188125838D01*
X223030535Y-188168066D01*
X223038730Y-188173208D01*
X223069672Y-188186178D01*
X223123084Y-188203226D01*
X223191819Y-188222259D01*
X223268725Y-188241186D01*
X223279272Y-188243603D01*
X223402123Y-188273543D01*
X223499030Y-188302510D01*
X223574143Y-188332671D01*
X223631611Y-188366192D01*
X223675584Y-188405243D01*
X223710211Y-188451988D01*
X223723623Y-188475683D01*
X223749373Y-188551468D01*
X223757565Y-188639469D01*
X223748189Y-188727247D01*
X223723936Y-188797309D01*
X223682000Y-188858691D01*
X223622870Y-188920749D01*
X223557409Y-188972838D01*
X223525179Y-188992087D01*
X223443810Y-189023193D01*
X223342845Y-189045116D01*
X223231814Y-189056870D01*
X223120247Y-189057469D01*
X223017671Y-189045926D01*
X223013252Y-189045072D01*
X222890731Y-189008242D01*
X222788572Y-188950599D01*
X222708171Y-188873115D01*
X222661685Y-188799979D01*
X222631852Y-188738519D01*
X222617091Y-188697071D01*
X222620405Y-188671693D01*
X222644797Y-188658443D01*
X222693270Y-188653380D01*
X222768826Y-188652561D01*
X222773977Y-188652561D01*
X222932112Y-188652561D01*
X222955758Y-188702392D01*
X222991274Y-188754476D01*
X223042109Y-188788578D01*
X223112594Y-188806698D01*
X223190981Y-188811026D01*
X223258409Y-188808685D01*
X223306259Y-188800775D01*
X223345012Y-188785162D01*
X223359670Y-188776682D01*
X223410749Y-188732034D01*
X223433702Y-188681564D01*
X223428964Y-188629438D01*
X223396970Y-188579819D01*
X223338155Y-188536873D01*
X223334425Y-188534928D01*
X223307454Y-188525430D01*
X223258521Y-188512036D01*
X223195336Y-188496754D01*
X223145324Y-188485705D01*
X223027672Y-188458402D01*
X222934945Y-188431060D01*
X222861882Y-188401582D01*
X222803221Y-188367869D01*
X222757024Y-188330920D01*
X222702488Y-188263888D01*
X222663841Y-188182672D01*
X222646529Y-188099331D01*
X222646099Y-188085259D01*
X222655718Y-188020596D01*
X222681130Y-187947018D01*
X222717164Y-187877429D01*
X222744491Y-187839676D01*
X222819275Y-187774171D01*
X222914436Y-187724529D01*
X223024174Y-187691440D01*
X223142691Y-187675593D01*
X223264188Y-187677675D01*
G37*
G36*
X225198272Y-187683763D02*
G01*
X225282733Y-187705297D01*
X225354625Y-187745646D01*
X225421335Y-187807739D01*
X225421675Y-187808116D01*
X225456807Y-187849174D01*
X225482451Y-187882887D01*
X225492898Y-187901576D01*
X225495201Y-187896273D01*
X225498865Y-187866728D01*
X225503190Y-187818885D01*
X225504244Y-187805390D01*
X225512865Y-187691929D01*
X225664145Y-187691929D01*
X225815426Y-187691929D01*
X225820048Y-188395384D01*
X225820975Y-188597624D01*
X225820897Y-188769778D01*
X225819814Y-188912000D01*
X225817722Y-189024441D01*
X225814618Y-189107256D01*
X225810502Y-189160599D01*
X225808049Y-189176327D01*
X225770257Y-189283529D01*
X225706591Y-189375750D01*
X225618047Y-189451919D01*
X225505619Y-189510963D01*
X225492363Y-189516165D01*
X225432030Y-189532353D01*
X225350902Y-189544854D01*
X225258278Y-189553124D01*
X225163456Y-189556619D01*
X225075735Y-189554794D01*
X225004412Y-189547105D01*
X224995027Y-189545270D01*
X224890592Y-189512657D01*
X224789948Y-189462654D01*
X224733756Y-189424081D01*
X224692083Y-189381586D01*
X224652213Y-189325142D01*
X224619816Y-189264633D01*
X224600559Y-189209944D01*
X224597617Y-189186636D01*
X224598849Y-189170977D01*
X224606180Y-189160905D01*
X224625062Y-189155206D01*
X224660947Y-189152667D01*
X224719288Y-189152073D01*
X224752680Y-189152114D01*
X224907743Y-189152441D01*
X224930435Y-189200910D01*
X224965164Y-189250344D01*
X225017923Y-189284746D01*
X225092333Y-189305775D01*
X225178748Y-189314540D01*
X225244993Y-189316318D01*
X225291761Y-189313035D01*
X225329634Y-189303053D01*
X225368262Y-189285224D01*
X225416945Y-189257101D01*
X225451833Y-189227873D01*
X225475373Y-189191858D01*
X225490012Y-189143372D01*
X225498200Y-189076733D01*
X225502383Y-188986258D01*
X225502746Y-188972983D01*
X225507756Y-188781149D01*
X225461260Y-188845152D01*
X225385709Y-188924957D01*
X225293840Y-188979594D01*
X225186835Y-189008577D01*
X225065877Y-189011421D01*
X225058220Y-189010752D01*
X224936490Y-188985444D01*
X224829025Y-188935005D01*
X224737235Y-188861693D01*
X224662527Y-188767765D01*
X224606312Y-188655479D01*
X224569997Y-188527092D01*
X224554992Y-188384863D01*
X224558931Y-188306312D01*
X224886200Y-188306312D01*
X224886231Y-188412831D01*
X224902056Y-188515449D01*
X224933892Y-188606611D01*
X224961166Y-188653228D01*
X225015585Y-188705176D01*
X225088319Y-188739999D01*
X225171746Y-188756145D01*
X225258243Y-188752066D01*
X225334109Y-188729056D01*
X225403387Y-188681413D01*
X225454945Y-188610044D01*
X225488329Y-188516069D01*
X225503085Y-188400610D01*
X225502441Y-188313992D01*
X225486309Y-188192517D01*
X225452147Y-188094344D01*
X225400371Y-188019978D01*
X225331395Y-187969926D01*
X225245634Y-187944693D01*
X225196877Y-187941542D01*
X225116103Y-187948911D01*
X225052065Y-187974139D01*
X224994265Y-188021913D01*
X224978714Y-188038889D01*
X224932657Y-188111787D01*
X224901747Y-188203446D01*
X224886200Y-188306312D01*
X224558931Y-188306312D01*
X224562705Y-188231048D01*
X224564231Y-188219169D01*
X224595768Y-188073224D01*
X224648375Y-187948563D01*
X224721856Y-187845489D01*
X224816017Y-187764306D01*
X224879910Y-187727428D01*
X224939307Y-187700778D01*
X224990512Y-187685890D01*
X225048118Y-187679400D01*
X225093857Y-187678115D01*
X225198272Y-187683763D01*
G37*
%TD*%
M02*
